<svg xmlns="http://www.w3.org/2000/svg" xmlns:xlink="http://www.w3.org/1999/xlink" width="927" height="527" viewBox="0 0 927 527">
    <defs>
        <path id="n7uloi1goa" d="M1.023.74C.611.969.354 1.397.354 1.859v18.946c0 .463.257.89.669 1.12l9.493 5.31c.413.232.92.232 1.335 0l13.565-7.588L4.268 7.813c-.206-.115-.332-.33-.332-.56v-.531c0-.231.127-.445.334-.562.207-.115.462-.115.667.002l23.058 12.925c.206.116.333.33.333.56-.001.23-.127.445-.334.562L1.023 35.297c-.412.23-.669.657-.669 1.119v18.946c0 .462.257.89.669 1.12.413.232.923.232 1.334 0l29.553-16.53c.413-.233.667-.66.667-1.121V18.39c0-.462-.254-.89-.667-1.121L2.357.74C2.152.623 1.921.566 1.69.566c-.23 0-.46.057-.667.174"/>
        <path id="mahyo03npd" d="M0 0.226L34.933 0.226 34.933 60.873 0 60.873z"/>
        <linearGradient id="2dvloz978b" x1="55.362%" x2="29.506%" y1="80.399%" y2="4.863%">
            <stop offset="0%" stop-color="#673089"/>
            <stop offset="100%" stop-color="#D8175F"/>
        </linearGradient>
    </defs>
    <g fill="none" fill-rule="evenodd">
        <g>
            <g>
                <path fill="#FFF" d="M0 0H927V527H0z" transform="translate(-256 -4386) translate(256 4386)"/>
                <g>
                    <text fill="#2E3243" font-family="TTNormsPro-Bold, TT Norms Pro" font-size="20" font-weight="bold" transform="translate(-256 -4386) translate(256 4386) translate(8 20)">
                        <tspan x="367.45" y="119">Onboarding</tspan>
                    </text>
                    <text fill="#2E3243" font-family="TTNormsPro-Bold, TT Norms Pro" font-size="20" font-weight="bold" transform="translate(-256 -4386) translate(256 4386) translate(8 20)">
                        <tspan x="409.65" y="351">Payments</tspan>
                    </text>
                    <text fill="#2E3243" font-family="TTNormsPro-Bold, TT Norms Pro" font-size="20" font-weight="bold" transform="translate(-256 -4386) translate(256 4386) translate(8 20)">
                        <tspan x="656" y="225">License</tspan>
                    </text>
                    <text fill="#2E3243" font-family="TTNormsPro-Bold, TT Norms Pro" font-size="13" font-weight="bold" transform="translate(-256 -4386) translate(256 4386) translate(8 20)">
                        <tspan x="620.393" y="351">Fin Crime</tspan>
                    </text>
                    <text fill="#2E3243" font-family="TTNormsPro-Bold, TT Norms Pro" font-size="13" font-weight="bold" transform="translate(-256 -4386) translate(256 4386) translate(8 20)">
                        <tspan x="780.52" y="286">Ops</tspan>
                    </text>
                    <text fill="#2E3243" font-family="TTNormsPro-Bold, TT Norms Pro" font-size="13" font-weight="bold" transform="translate(-256 -4386) translate(256 4386) translate(8 20)">
                        <tspan x="801.58" y="355">Screening</tspan>
                    </text>
                    <text fill="#2E3243" font-family="TTNormsPro-Bold, TT Norms Pro" font-size="13" font-weight="bold" transform="translate(-256 -4386) translate(256 4386) translate(8 20)">
                        <tspan x="734.445" y="449">Transaction </tspan> <tspan x="736.428" y="465">monitoring</tspan>
                    </text>
                    <text fill="#2E3243" font-family="TTNormsPro-Bold, TT Norms Pro" font-size="13" font-weight="bold" transform="translate(-256 -4386) translate(256 4386) translate(8 20)">
                        <tspan x="369.387" y="439">Ledger</tspan>
                    </text>
                    <text fill="#2E3243" font-family="TTNormsPro-Bold, TT Norms Pro" font-size="13" font-weight="bold" transform="translate(-256 -4386) translate(256 4386) translate(8 20)">
                        <tspan x="534.31" y="474">Safeguarding</tspan>
                    </text>
                    <text fill="#2E3243" font-family="TTNormsPro-Bold, TT Norms Pro" font-size="13" font-weight="bold" transform="translate(-256 -4386) translate(256 4386) translate(8 20)">
                        <tspan x="247.585" y="306">Funding</tspan>
                    </text>
                    <text fill="#000" font-family="TTNormsPro-Bold, TT Norms Pro" font-size="13" font-weight="bold" transform="translate(-256 -4386) translate(256 4386) translate(8 20)">
                        <tspan x="198.42" y="398">FX</tspan>
                    </text>
                    <text fill="#2E3243" font-family="TTNormsPro-Bold, TT Norms Pro" font-size="13" font-weight="bold" transform="translate(-256 -4386) translate(256 4386) translate(8 20)">
                        <tspan x="125.22" y="479">Liquidity</tspan>
                    </text>
                    <text fill="#2E3243" font-family="TTNormsPro-Bold, TT Norms Pro" font-size="13" font-weight="bold" transform="translate(-256 -4386) translate(256 4386) translate(8 20)">
                        <tspan x="33.805" y="413">Hedging</tspan>
                    </text>
                    <text fill="#2E3243" font-family="TTNormsPro-Bold, TT Norms Pro" font-size="13" font-weight="bold" transform="translate(-256 -4386) translate(256 4386) translate(8 20)">
                        <tspan x="57.51" y="309">Quotes</tspan>
                    </text>
                    <text fill="#2E3243" font-family="TTNormsPro-Bold, TT Norms Pro" font-size="20" font-weight="bold" transform="translate(-256 -4386) translate(256 4386) translate(8 20)">
                        <tspan x="158" y="186">Info to see</tspan>
                    </text>
                    <text fill="#2E3243" font-family="TTNormsPro-Bold, TT Norms Pro" font-size="13" font-weight="bold" transform="translate(-256 -4386) translate(256 4386) translate(8 20)">
                        <tspan x="321.507" y="16">Log in</tspan>
                    </text>
                    <text fill="#2E3243" font-family="TTNormsPro-Bold, TT Norms Pro" font-size="13" font-weight="bold" transform="translate(-256 -4386) translate(256 4386) translate(8 20)">
                        <tspan x="64.528" y="40">Registration</tspan>
                    </text>
                    <text fill="#2E3243" font-family="TTNormsPro-Bold, TT Norms Pro" font-size="13" font-weight="bold" transform="translate(-256 -4386) translate(256 4386) translate(8 20)">
                        <tspan x="493.777" y="32">Details</tspan>
                    </text>
                    <text fill="#2E3243" font-family="TTNormsPro-Bold, TT Norms Pro" font-size="13" font-weight="bold" transform="translate(-256 -4386) translate(256 4386) translate(8 20)">
                        <tspan x="643.253" y="122">KYC</tspan>
                    </text>
                    <text fill="#2E3243" font-family="TTNormsPro-Bold, TT Norms Pro" font-size="13" font-weight="bold" transform="translate(-256 -4386) translate(256 4386) translate(8 20)">
                        <tspan x="782.58" y="145">Screening</tspan>
                    </text>
                    <text fill="#2E3243" font-family="TTNormsPro-Bold, TT Norms Pro" font-size="13" font-weight="bold" transform="translate(-256 -4386) translate(256 4386) translate(8 20)">
                        <tspan x="704.015" y="12">Identity</tspan>
                    </text>
                    <path stroke="#B12878" stroke-dasharray="0 11" stroke-linecap="round" stroke-opacity=".5" stroke-width="3" d="M155.799 47.044L348.398 104.133M356.5 27.5L384.5 96.5M501.9 40.978L478.1 101.934M629.5 117.5L490.5 112.5M642.7 221.761L546.3 235.283M432.5 132.5L442.3 215.283M266.5 188.5L356.5 221.5M452.2 268.131L456.5 331.5M517.95 346.924L606.5 346.5M486.659 363.097L551.5 459.5M431.659 362.097L404.5 426.5M400.5 338.5L310.5 309.5M400.5 350.5L221.42 391.299M193.51 383.249L108.5 312.5M187.495 394.625L90.495 407.625M199 408L170 467M683.013 336.464L775.437 288.014M690.5 346.5L790.5 350.5M678.5 358.5L733.5 432.5M711.4 22.131L669.2 110.914M771.5 136.5L681.5 121.5" transform="translate(-256 -4386) translate(256 4386) translate(8 20)"/>
                    <g>
                        <g>
                            <path fill="#2E3243" d="M86.06 29.253c-4.002 0-7.062-3.022-7.062-7.204 0-4.183 3.06-7.205 7.062-7.205 4.002 0 7.062 3.022 7.062 7.205 0 4.182-3.06 7.204-7.062 7.204m0-18.824c-6.592 0-11.769 5.112-11.769 11.62 0 6.507 5.177 11.62 11.77 11.62 6.59 0 11.77-5.113 11.77-11.62 0-6.508-5.18-11.62-11.77-11.62M60.872 28.324c-3.531 0-6.355-2.789-6.355-6.74 0-3.95 2.824-6.74 6.355-6.74 3.532 0 6.356 2.79 6.356 6.74 0 3.951-2.824 6.74-6.356 6.74m9.747-17.431h-2.074c-.728 0-1.317.583-1.317 1.3v1.722s-2.354-3.486-7.298-3.486c-5.413 0-10.12 4.647-10.12 11.155 0 6.506 4.707 11.155 10.12 11.155 4.944 0 7.298-3.486 7.298-3.486v3.022c0 4.416-2.824 7.204-7.063 7.204-2.603 0-4.51-1.378-5.524-2.34-.504-.48-1.297-.486-1.81-.017l-1.384 1.27c-.262.24-.413.575-.42.928-.007.352.13.692.382.942 1.375 1.367 4.32 3.634 8.756 3.634 6.828 0 11.77-4.881 11.77-11.62V12.193c0-.718-.59-1.301-1.316-1.301m-34.698 18.36c-3.767 0-6.827-3.022-6.827-7.204 0-4.183 3.06-7.205 6.827-7.205 3.766 0 6.827 3.022 6.827 7.205 0 4.182-3.061 7.204-6.827 7.204m10.217-18.36h-2.074c-.727 0-1.316.583-1.316 1.3v1.954s-2.355-3.718-7.768-3.718c-5.65 0-10.594 4.88-10.594 11.62 0 6.739 4.943 11.62 10.594 11.62 5.413 0 7.768-3.718 7.768-3.718v1.952c0 .719.589 1.302 1.316 1.302h2.074c.727 0 1.317-.583 1.317-1.302v-19.71c0-.717-.59-1.3-1.317-1.3m-34.228 18.36c-3.766 0-6.826-3.022-6.826-7.204 0-4.183 3.06-7.205 6.826-7.205 3.768 0 6.827 3.022 6.827 7.205 0 4.182-3.06 7.204-6.827 7.204m.943-18.824c-5.415 0-7.77 3.718-7.77 3.718v-1.953c0-.718-.588-1.301-1.316-1.301H1.695c-.727 0-1.318.583-1.318 1.3V42.13c0 .72.59 1.301 1.318 1.301h2.073c.728 0 1.317-.581 1.317-1.3V29.95s2.354 3.719 7.77 3.719c5.648 0 10.592-4.881 10.592-11.62 0-6.74-4.944-11.62-10.593-11.62" transform="translate(-256 -4386) translate(256 4386) translate(8 20) translate(370 210) translate(46 8)"/>
                            <path fill="#6B7386" d="M125.689 32.174l-7.723-10.59 7.02-9.661c.144-.199.163-.459.052-.677-.114-.217-.34-.354-.588-.354h-.968c-.211 0-.41.102-.535.273l-6.394 8.792-6.393-8.792c-.125-.17-.323-.273-.535-.273h-6.381V6.245c0-2.557 1.411-3.95 3.53-3.95.849 0 1.636.184 2.2.363.199.065.418.03.588-.092.172-.123.272-.319.272-.527v-.711c0-.269-.167-.509-.42-.607-.538-.205-1.536-.518-2.64-.518-3.53 0-5.65 2.092-5.65 6.042v26.308c0 .36.295.651.659.651h.801c.364 0 .66-.29.66-.651V12.985h5.649l6.247 8.599-7.723 10.59c-.144.199-.162.459-.05.677.113.216.338.353.586.353h.965c.212 0 .41-.1.535-.27l7.1-9.723 7.101 9.724c.124.169.323.27.534.27h.967c.246 0 .473-.138.586-.354.112-.218.092-.478-.052-.677" transform="translate(-256 -4386) translate(256 4386) translate(8 20) translate(370 210) translate(46 8)"/>
                        </g>
                        <g transform="translate(-256 -4386) translate(256 4386) translate(8 20) translate(370 210) translate(1 1)">
                            <mask id="nu49cw5clc" fill="#fff">
                                <use xlink:href="#n7uloi1goa"/>
                            </mask>
                            <path fill="url(#2dvloz978b)" d="M1.023.74C.611.969.354 1.397.354 1.859v18.946c0 .463.257.89.669 1.12l9.493 5.31c.413.232.92.232 1.335 0l13.565-7.588L4.268 7.813c-.206-.115-.332-.33-.332-.56v-.531c0-.231.127-.445.334-.562.207-.115.462-.115.667.002l23.058 12.925c.206.116.333.33.333.56-.001.23-.127.445-.334.562L1.023 35.297c-.412.23-.669.657-.669 1.119v18.946c0 .462.257.89.669 1.12.413.232.923.232 1.334 0l29.553-16.53c.413-.233.667-.66.667-1.121V18.39c0-.462-.254-.89-.667-1.121L2.357.74C2.152.623 1.921.566 1.69.566c-.23 0-.46.057-.667.174" mask="url(#nu49cw5clc)"/>
                        </g>
                        <g transform="translate(-256 -4386) translate(256 4386) translate(8 20) translate(370 210)">
                            <mask id="zwex45j32e" fill="#fff">
                                <use xlink:href="#mahyo03npd"/>
                            </mask>
                            <path fill="#FEFEFE" d="M3.05.226c-.535 0-1.062.142-1.525.413C.584 1.189 0 2.21 0 3.309V22.6c0 1.097.584 2.12 1.525 2.67l9.04 5.278-9.04 5.277C.584 36.376 0 37.4 0 38.497V57.79c0 1.097.584 2.12 1.525 2.67.463.27.99.413 1.524.413.535 0 1.062-.143 1.525-.413L33.41 43.626c.94-.549 1.523-1.572 1.523-2.671V20.142c0-1.098-.584-2.12-1.523-2.67L4.574.64C4.11.369 3.584.226 3.049.226m0 1.766c.226 0 .451.058.651.176L32.536 19c.403.237.651.671.651 1.141v20.813c0 .471-.248.906-.65 1.141L3.7 58.929c-.2.12-.425.177-.65.177-.226 0-.45-.058-.652-.177-.403-.235-.652-.67-.652-1.14V38.498c0-.47.25-.904.652-1.14l26.318-15.365c.201-.117.324-.335.326-.57 0-.235-.125-.453-.326-.57L6.218 7.69c-.101-.06-.215-.089-.327-.089-.112 0-.224.03-.324.088-.202.119-.327.335-.327.572v.54c0 .235.124.453.325.571l20.633 12.05-13.234 7.727c-.203.118-.427.177-.652.177-.224 0-.45-.059-.651-.177L2.398 23.74c-.403-.235-.652-.67-.652-1.14V3.31c0-.47.25-.906.652-1.141.202-.118.426-.176.651-.176" mask="url(#zwex45j32e)"/>
                        </g>
                    </g>
                </g>
            </g>
        </g>
    </g>
</svg>
