<svg width="20" height="20" viewBox="0 0 20 20" xmlns="http://www.w3.org/2000/svg"><g fill="#212121" fill-rule="evenodd"><path d="M9.997 1.801c2.67 0 2.985.01 4.04.059.974.044 1.503.207 1.856.344.466.181.8.398 1.15.748.349.35.566.682.747 1.149.137.352.3.882.344 1.856.048 1.054.058 1.37.058 4.04s-.01 2.985-.058 4.04c-.044.974-.207 1.503-.344 1.856-.181.466-.398.8-.748 1.15-.35.349-.683.566-1.15.747-.352.137-.88.3-1.856.344-1.054.048-1.37.058-4.04.058-2.669 0-2.985-.01-4.039-.058-.974-.044-1.504-.207-1.856-.344a3.097 3.097 0 0 1-1.15-.748 3.097 3.097 0 0 1-.747-1.15c-.137-.352-.3-.88-.345-1.856-.048-1.054-.058-1.37-.058-4.04 0-2.668.01-2.985.058-4.039.045-.974.208-1.504.345-1.856.181-.467.398-.8.748-1.15.35-.35.682-.566 1.149-.747.352-.137.882-.3 1.856-.344 1.054-.049 1.37-.059 4.04-.059m0-1.801C7.282 0 6.94.012 5.875.06 4.811.11 4.085.278 3.448.525a4.9 4.9 0 0 0-1.77 1.153 4.9 4.9 0 0 0-1.153 1.77C.278 4.085.109 4.812.06 5.876.011 6.941 0 7.282 0 9.997s.011 3.055.06 4.122c.049 1.064.218 1.79.465 2.426a4.9 4.9 0 0 0 1.153 1.77 4.9 4.9 0 0 0 1.77 1.154c.636.247 1.363.416 2.427.465 1.066.048 1.407.06 4.122.06s3.055-.012 4.121-.06c1.065-.049 1.791-.218 2.427-.465a4.9 4.9 0 0 0 1.77-1.153 4.9 4.9 0 0 0 1.154-1.77c.247-.637.416-1.363.465-2.427.048-1.067.06-1.407.06-4.122s-.012-3.056-.06-4.122c-.049-1.064-.218-1.79-.465-2.426a4.9 4.9 0 0 0-1.153-1.771 4.9 4.9 0 0 0-1.77-1.153C15.908.278 15.182.109 14.117.06 13.052.012 12.712 0 9.997 0"/><path d="M10.134 5a5.134 5.134 0 1 0 0 10.267 5.134 5.134 0 0 0 0-10.267zm0 8.466a3.332 3.332 0 1 1 0-6.665 3.332 3.332 0 0 1 0 6.665z"/></g></svg>