<svg width="34" height="30" viewBox="0 0 34 30" xmlns="http://www.w3.org/2000/svg" xmlns:xlink="http://www.w3.org/1999/xlink"><defs><path id="a" d="M0 29.657h33.301V0H0z"/></defs><g fill="none" fill-rule="evenodd"><g><mask id="b" fill="#fff"><use xlink:href="#a"/></mask><path d="M33.301 14.829c0-2.316-2.777-4.321-7.09-5.521a22.42 22.42 0 0 0 .443-2.1c.544-3.445-.052-5.86-1.678-6.8C23.35-.53 20.96.162 18.248 2.357a22.36 22.36 0 0 0-1.597 1.434 22.421 22.421 0 0 0-1.598-1.434C12.341.16 9.951-.53 8.325.409c-1.626.939-2.222 3.354-1.677 6.8.106.675.256 1.378.443 2.099C2.777 10.508 0 12.513 0 14.828c0 2.316 2.777 4.322 7.09 5.521a22.42 22.42 0 0 0-.442 2.1c-.545 3.446.05 5.86 1.677 6.8a3.161 3.161 0 0 0 1.605.408c1.441 0 3.2-.8 5.123-2.355.532-.43 1.066-.913 1.598-1.435a22.36 22.36 0 0 0 1.597 1.435c1.922 1.555 3.682 2.355 5.124 2.355a3.16 3.16 0 0 0 1.604-.408c1.626-.94 2.222-3.354 1.678-6.8a22.42 22.42 0 0 0-.443-2.1c4.313-1.2 7.09-3.205 7.09-5.52M18.872 3.127c1.73-1.4 3.298-2.134 4.494-2.134.42 0 .795.09 1.114.275 1.228.709 1.663 2.817 1.194 5.786a21.465 21.465 0 0 1-.423 2.006 34.113 34.113 0 0 0-4.828-.768 34.28 34.28 0 0 0-3.078-3.794c.508-.5 1.019-.96 1.527-1.371m2.726 14.558a41.32 41.32 0 0 1-1.723 2.734c-1.028.079-2.103.122-3.224.122s-2.197-.043-3.224-.122a41.32 41.32 0 0 1-3.228-5.59 41.277 41.277 0 0 1 3.228-5.59 42.04 42.04 0 0 1 6.448 0 41.39 41.39 0 0 1 3.227 5.59c-.453.95-.955 1.906-1.504 2.856m2.037-1.69c.544 1.245.997 2.471 1.35 3.65a31.979 31.979 0 0 1-3.834.653 42.857 42.857 0 0 0 2.484-4.303m-6.984 8.456a32.372 32.372 0 0 1-2.482-2.99 42.968 42.968 0 0 0 4.963 0 32.37 32.37 0 0 1-2.481 2.99m-4.5-4.153a31.974 31.974 0 0 1-3.835-.652c.353-1.18.806-2.406 1.35-3.65a42.71 42.71 0 0 0 2.485 4.302m-2.485-6.636a32.287 32.287 0 0 1-1.35-3.65 31.974 31.974 0 0 1 3.835-.653 42.857 42.857 0 0 0-2.485 4.303m6.985-8.455a32.37 32.37 0 0 1 2.481 2.989 42.966 42.966 0 0 0-4.963 0 32.372 32.372 0 0 1 2.482-2.99m5.806 6.27A42.857 42.857 0 0 0 21.15 9.36c1.386.154 2.67.376 3.834.652a32.342 32.342 0 0 1-1.35 3.651 42.71 42.71 0 0 0-1.178-2.185M7.627 7.054c-.469-2.969-.034-5.077 1.194-5.786.32-.184.694-.275 1.114-.275 1.196 0 2.765.735 4.494 2.134.509.41 1.02.871 1.528 1.371a34.25 34.25 0 0 0-3.079 3.794 34.119 34.119 0 0 0-4.828.768c-.178-.69-.321-1.361-.423-2.006M.992 14.829c0-1.693 2.37-3.457 6.364-4.57a34.31 34.31 0 0 0 1.749 4.57 34.31 34.31 0 0 0-1.75 4.569C3.364 18.286.993 16.521.993 14.828m13.437 11.703c-2.336 1.89-4.38 2.568-5.608 1.858-1.228-.708-1.663-2.817-1.194-5.785.102-.645.245-1.317.423-2.006 1.47.35 3.095.611 4.828.767a34.25 34.25 0 0 0 3.079 3.794c-.509.5-1.02.96-1.528 1.372m11.245-3.927c.47 2.968.034 5.077-1.194 5.785-1.228.71-3.272.032-5.608-1.858a21.35 21.35 0 0 1-1.527-1.372 34.28 34.28 0 0 0 3.078-3.794 34.113 34.113 0 0 0 4.828-.767c.178.69.321 1.36.423 2.006m.272-3.206a34.307 34.307 0 0 0-1.749-4.57 34.307 34.307 0 0 0 1.749-4.569c3.993 1.113 6.364 2.877 6.364 4.57 0 1.692-2.371 3.457-6.364 4.569" fill="#F8F8F8" mask="url(#b)"/></g><path d="M17.05 12a3.05 3.05 0 1 0 0 6.101 3.05 3.05 0 0 0 0-6.101" fill="#F8F8F8"/></g></svg>