<svg width="372" height="150" viewBox="0 0 372 150" xmlns="http://www.w3.org/2000/svg"><path d="M278.451 106.8c16.089 0 29.496-18.175 29.496-35.902v-.447c1.34.15 2.98.15 4.767.15 6.405 0 12.215-1.937 17.727-6.406l.447.447L272.79 150h15.94l65.843-101h-12.365c-7.597 6.853-15.343 10.428-25.175 10.428-6.108 0-10.726-.894-14.45-2.533-3.426-3.426-8.64-5.363-15.046-5.363-15.94 0-30.538 16.834-30.538 34.263 0 13.11 9.385 21.004 21.451 21.004zm63.312 41.412c16.088 0 29.495-18.174 29.495-35.9 0-11.918-7.746-19.367-20.408-19.367-15.94 0-30.539 16.834-30.539 34.263 0 13.11 9.385 21.004 21.452 21.004zm3.426-9.236c-4.171 0-6.853-3.128-6.853-8.938 0-10.725 7.598-27.112 16.238-27.112 4.17 0 6.703 3.129 6.703 8.342 0 11.322-7.448 27.708-16.088 27.708zm-63.311-41.413c-4.172 0-6.853-3.128-6.853-8.938 0-9.534 6.108-23.685 13.556-26.516 2.533 2.533 5.512 4.767 9.236 6.257.15.447.15 1.043.15 1.49 0 11.321-7.45 27.707-16.09 27.707zM1.126 146.396h98.649v-20.495H71.17V1.577H47.297C39.19 13.964 21.847 20.27 0 19.369v17.568c5.405 1.577 12.613 2.703 19.37 2.703 4.73 0 8.783-.45 11.486-1.126V125.9H1.126v20.495zM114.64 45.721c0 21.17 13.063 30.856 28.828 36.937-18.243 4.279-30.855 14.865-30.855 30.405 0 18.694 18.693 36.937 56.756 36.937 36.262 0 59.46-20.495 59.46-47.523 0-21.846-16.442-31.982-33.559-38.063 17.117-4.279 29.28-14.864 29.28-30.18C224.55 16.892 207.883 0 171.17 0c-34.009 0-56.531 20.495-56.531 45.72zm79.504 70.27c0 10.81-9.009 17.568-23.423 17.568-18.92 0-28.379-9.235-28.379-22.298 0-8.108 2.703-15.766 9.685-23.198 24.1 6.757 42.117 13.063 42.117 27.928zM149.55 32.658c0-9.01 7.657-16.217 20.045-16.217 16.216 0 25 10.136 25 21.172 0 7.657-2.703 14.414-8.784 21.17-22.523-6.306-36.261-12.161-36.261-26.125z" fill="#F8F8F8" fill-rule="evenodd"/></svg>