<svg width="213" height="150" viewBox="0 0 213 150" xmlns="http://www.w3.org/2000/svg"><path d="M57.658 150c37.837 0 60.585-17.793 60.585-41.892 0-19.144-13.738-30.63-45.72-34.685v-1.126c30.63-4.054 43.468-15.09 43.468-35.135C115.991 17.117 96.396 0 58.784 0c-34.01 0-55.63 14.865-55.63 34.009 0 12.387 8.332 20.045 20.945 20.045 13.288 0 19.595-7.658 19.595-17.117 0-6.757-4.28-12.838-10.586-15.54 3.153-1.802 9.91-3.379 16.216-3.379 15.54 0 22.523 7.207 22.523 21.396 0 18.244-7.883 25.226-30.856 25.226h-6.532v20.045h6.532c25.676 0 33.108 6.756 33.108 24.55 0 16.215-10.36 22.747-22.748 22.747-10.585 0-19.594-2.027-21.846-4.28C36.036 125 40.54 118.92 40.54 111.938c0-9.234-6.532-16.892-19.82-16.892C8.333 95.045 0 102.703 0 115.765 0 134.91 20.946 150 57.658 150zM213 94.46c0 7.562-1.08 13.553-3.241 17.973-2.16 4.42-5.255 8.103-9.281 11.05a32.142 32.142 0 0 1-11.344 5.155c-2.259 2.358-4.518 3.88-6.777 4.567v4.862c0 .196.025.466.074.81.049.344.344.909.884 1.694.54.786 1.252 1.498 2.136 2.137.884.638 2.332 1.227 4.346 1.767 2.013.54 4.395.81 7.145.81h1.915V150h-37.714v-4.714h1.915c8.938 0 13.8-2.26 14.585-6.777v-5.304c-2.26-.687-4.518-2.21-6.777-4.567-4.321-1.08-8.103-2.799-11.344-5.156-4.026-2.946-7.12-6.63-9.28-11.049-1.965-4.125-3.046-8.888-3.242-14.29v-4.714h11.786V84h42.281c.196 2.848.196 5.991 0 9.429H213v1.03zm-58.487 15.91c2.554 5.206 6.335 9.036 11.344 11.492-2.652-4.813-4.714-11.442-6.187-19.889-.099-.786-.246-2.062-.442-3.83h-7.514c.197 4.616 1.13 8.692 2.8 12.228zm50.974 0c1.67-3.535 2.602-7.611 2.799-12.227h-7.514a93.776 93.776 0 0 0-.368 1.989c-.147.835-.221 1.448-.221 1.841-1.473 8.447-3.536 15.076-6.187 19.889 5.205-2.554 9.035-6.384 11.49-11.491z" fill="#F8F8F8" fill-rule="evenodd"/></svg>