<svg width="388" height="150" viewBox="0 0 388 150" xmlns="http://www.w3.org/2000/svg"><path d="M28.069 35.254c9.656 3.593 20.659 6.288 36.153 6.288 20.21 0 37.05-8.533 47.604-29.64L105.09 0C93.189 5.838 83.757 8.533 67.14 8.533c-14.37 0-34.131-2.246-48.951-7.186l-6.512 5.839-5.165 75 16.168 4.94c6.736-5.39 16.392-8.758 23.128-8.758 15.719 0 24.027 7.635 24.027 26.946 0 17.74-8.757 27.845-23.802 27.845-5.614 0-11.677-1.348-15.045-3.144 5.39-3.368 8.758-9.207 8.758-16.168 0-8.084-6.063-16.392-18.414-16.392C8.084 97.455 0 106.662 0 118.787 0 138.547 21.557 150 54.79 150c39.746 0 59.057-23.129 59.057-49.177 0-22.904-14.146-43.338-52.096-43.338-13.023 0-26.047 4.042-36.377 12.126l2.695-34.357zM190.419 150c35.704 0 62.2-26.946 62.2-75.45 0-47.828-26.047-74.1-62.2-74.1-35.479 0-62.2 27.394-62.2 75.448 0 47.83 26.047 74.102 62.2 74.102zm.674-18.638c-12.35 0-20.21-12.8-20.21-55.913 0-43.114 6.737-56.362 18.863-56.362 12.35 0 20.21 12.8 20.21 55.913 0 43.114-6.737 56.362-18.863 56.362zM294.22 106.2c16.2 0 29.7-18.3 29.7-36.15v-.45c1.35.15 3 .15 4.8.15 6.45 0 12.3-1.95 17.85-6.45l.45.45-58.5 85.95h16.05L370.87 48h-12.45c-7.65 6.9-15.45 10.5-25.35 10.5-6.15 0-10.8-.9-14.55-2.55-3.45-3.45-8.7-5.4-15.15-5.4-16.05 0-30.75 16.95-30.75 34.5 0 13.2 9.45 21.15 21.6 21.15zm63.75 41.7c16.2 0 29.7-18.3 29.7-36.15 0-12-7.8-19.5-20.55-19.5-16.05 0-30.75 16.95-30.75 34.5 0 13.2 9.45 21.15 21.6 21.15zm3.45-9.3c-4.2 0-6.9-3.15-6.9-9 0-10.8 7.65-27.3 16.35-27.3 4.2 0 6.75 3.15 6.75 8.4 0 11.4-7.5 27.9-16.2 27.9zm-63.75-41.7c-4.2 0-6.9-3.15-6.9-9 0-9.6 6.15-23.85 13.65-26.7 2.55 2.55 5.55 4.8 9.3 6.3.15.45.15 1.05.15 1.5 0 11.4-7.5 27.9-16.2 27.9z" fill="#F8F8F8" fill-rule="evenodd"/></svg>