<svg width="392" height="150" viewBox="0 0 392 150" xmlns="http://www.w3.org/2000/svg"><g fill="#F8F8F8" fill-rule="evenodd"><path d="M28.494 35.254c9.656 3.593 20.659 6.288 36.153 6.288 20.21 0 37.05-8.533 47.604-29.64L105.515 0c-11.901 5.838-21.333 8.533-37.95 8.533-14.37 0-34.131-2.246-48.951-7.186l-6.512 5.839-5.165 75 16.168 4.94c6.736-5.39 16.392-8.758 23.128-8.758 15.719 0 24.027 7.635 24.027 26.946 0 17.74-8.757 27.845-23.802 27.845-5.614 0-11.677-1.348-15.045-3.144 5.39-3.368 8.758-9.207 8.758-16.168 0-8.084-6.063-16.392-18.414-16.392-13.248 0-21.332 9.207-21.332 21.332 0 19.76 21.557 31.213 54.79 31.213 39.746 0 59.057-23.129 59.057-49.177 0-22.904-14.146-43.338-52.096-43.338-13.023 0-26.047 4.042-36.377 12.126l2.695-34.357zm163.922 49.85h-45.135l43.788-56.361h1.347v56.362zm37.05 40.195v-19.086h26.049V85.105h-26.048V1.572H190.62l-67.141 83.757v20.884h68.937v19.086h-23.578v21.108h81.063V125.3h-20.434zM297.6 105.2c16.2 0 29.7-18.3 29.7-36.15v-.45c1.35.15 3 .15 4.8.15 6.45 0 12.3-1.95 17.85-6.45l.45.45-58.5 85.95h16.05L374.25 47H361.8c-7.65 6.9-15.45 10.5-25.35 10.5-6.15 0-10.8-.9-14.55-2.55-3.45-3.45-8.7-5.4-15.15-5.4-16.05 0-30.75 16.95-30.75 34.5 0 13.2 9.45 21.15 21.6 21.15zm63.75 41.7c16.2 0 29.7-18.3 29.7-36.15 0-12-7.8-19.5-20.55-19.5-16.05 0-30.75 16.95-30.75 34.5 0 13.2 9.45 21.15 21.6 21.15zm3.45-9.3c-4.2 0-6.9-3.15-6.9-9 0-10.8 7.65-27.3 16.35-27.3 4.2 0 6.75 3.15 6.75 8.4 0 11.4-7.5 27.9-16.2 27.9zm-63.75-41.7c-4.2 0-6.9-3.15-6.9-9 0-9.6 6.15-23.85 13.65-26.7 2.55 2.55 5.55 4.8 9.3 6.3.15.45.15 1.05.15 1.5 0 11.4-7.5 27.9-16.2 27.9z"/></g></svg>