<svg width="756" height="499" viewBox="0 0 756 499" xmlns="http://www.w3.org/2000/svg" xmlns:xlink="http://www.w3.org/1999/xlink"><defs><path id="a" d="M0 0h824v499H0z"/><linearGradient x1="100%" y1="50%" x2="0%" y2="50%" id="c"><stop stop-color="#464646" offset="0%"/><stop stop-color="#212121" offset="100%"/></linearGradient><linearGradient x1="50%" y1="100%" x2="50%" y2="0%" id="d"><stop stop-color="#464646" offset="0%"/><stop stop-color="#212121" offset="100%"/></linearGradient><linearGradient x1="0%" y1="50%" y2="50%" id="e"><stop stop-color="#464646" offset="0%"/><stop stop-color="#212121" offset="100%"/></linearGradient><linearGradient x1="50%" y1="0%" x2="50%" y2="100%" id="f"><stop stop-color="#464646" offset="0%"/><stop stop-color="#212121" offset="100%"/></linearGradient></defs><g transform="translate(-68)" fill="none" fill-rule="evenodd"><mask id="b" fill="#fff"><use xlink:href="#a"/></mask><g mask="url(#b)"><path d="M582.598 35.105s-23.728 5.391-31.277 13.478c-7.55 8.088-38.289 56.073-38.289 56.073s2.157 22.644 4.854 27.496c2.697 4.853 52.308 42.054 52.308 42.054l17.796 4.314h11.325l15.1-5.932 32.357-65.776s6.471-19.948 5.93-22.104c-.538-2.158-8.088-14.557-8.088-14.557l-62.016-35.046zM492.54 125.143l-10.246 7.549h12.943zM550.781 20.009l14.56-4.314L550.781.6zM582.884 199.546h21.824l-17.796 28.035v-18.87zM418.66 154.797l16.178-2.157s46.916 0 53.926 2.157c7.012 2.156 26.426 8.625 26.426 8.625l39.905 28.576s5.932 11.86 7.011 21.565c1.078 9.705 3.236 141.259 3.236 141.259l-118.1 12.399-28.582-212.424z" stroke="#565656"/><path stroke="url(#c)" d="M367.639 380.414l-186.048 31.27-106.776 15.097 35.592 168.754 286.623-4.314zM528.341 591.222l-131.312 12.94-284.465 2.695 35.592 115.378H543.44z" transform="translate(37 -224)"/><path d="M304.005 368.013l93.024-11.322 28.85-11.322L455 319.49l32.897-51.758 4.313-38.82 3.776-25.878S460.933 72.02 451.764 57.464c0 0-23.726-55.533-26.423-56.612L304.005 34.82l-40.445-6.47 40.445 339.664z" stroke="url(#d)" transform="translate(37 -224)"/><path stroke="url(#c)" d="M292.99 369.626l-227.032 37.2L.935 60.699 218.8 5.166l32.896 20.488z" transform="translate(37 -224)"/><path stroke="url(#d)" d="M490.458 70.537l-2.023 18.601 29.525 107.156 38.836 42.458 58.938 33.158 198.286-84.916-46.917-157.297-172.701 33.562z" transform="translate(37 -224)"/><path stroke="url(#e)" d="M599.795 408.584l-4.45 24.667-40.849 54.723 2.427 88.016 314.664-18.6-15.774-334.812-216.382 93.812z" transform="translate(37 -224)"/><path d="M859.723 575.99c-10.516-.404-305.228 15.232-305.228 15.232l13.213 128.317h292.015V575.99z" stroke="url(#f)" transform="translate(37 -224)"/><path stroke="#565656" d="M668.612 64.489v5.66l202.226-88.153-4.045-4.04z"/><path d="M408.6 246c3.465 0 6.431 1.198 8.899 3.594 2.467 2.396 3.701 5.286 3.701 8.672 0 2.708-1.05 5.963-3.15 9.765-2.1 3.802-4.2 6.927-6.3 9.375L408.6 281a24.796 24.796 0 0 1-1.378-1.523c-.551-.651-1.549-1.914-2.993-3.79a67.352 67.352 0 0 1-3.819-5.468c-1.103-1.771-2.113-3.776-3.032-6.016S396 259.984 396 258.266c0-3.386 1.234-6.276 3.701-8.672 2.468-2.396 5.434-3.594 8.899-3.594zm0 16.64c1.26 0 2.323-.43 3.19-1.288.866-.86 1.299-1.888 1.299-3.086s-.433-2.227-1.3-3.086c-.866-.86-1.929-1.29-3.189-1.29s-2.323.43-3.19 1.29c-.866.86-1.299 1.888-1.299 3.086s.433 2.226 1.3 3.086c.866.859 1.929 1.289 3.189 1.289z" fill="#FC1D42"/><text transform="rotate(-9 -1153.968 39.857)" font-family="ProximaNova-Bold, Proxima Nova" font-size="15" font-weight="bold" letter-spacing="10"><tspan x="156.627" y="392.922" fill="#999">OLD STREET</tspan></text><text font-family="ProximaNova-Bold, Proxima Nova" font-size="15" font-weight="bold" transform="translate(37 -224)"><tspan x="534" y="337" fill="#CCC">OLD STREET</tspan></text><g transform="translate(531 98)"><ellipse stroke="#F8F8F8" stroke-width="4" cx="14.547" cy="9.5" rx="9.59" ry="9.5"/><path fill="#FC1D42" d="M0 7.045h29.094v5.124H0z"/></g></g></g></svg>