<svg xmlns="http://www.w3.org/2000/svg" width="343" height="122" viewBox="0 0 343 122">
    <g fill="#F8F8F8" fill-rule="evenodd">
        <path d="M46.832 122C17.013 122 0 109.727 0 94.156c0-10.624 6.769-16.853 16.83-16.853 10.794 0 16.099 6.229 16.099 13.739 0 5.679-3.659 10.625-8.964 12.823 1.83 1.832 9.147 3.48 17.745 3.48 10.061 0 18.476-5.312 18.476-18.501 0-14.472-6.036-19.967-26.891-19.967h-5.306V52.574h5.306c18.66 0 25.062-5.68 25.062-20.517 0-11.54-5.671-17.402-18.294-17.402-5.122 0-10.61 1.282-13.171 2.747 5.122 2.199 8.598 7.145 8.598 12.64 0 7.694-5.122 13.922-15.916 13.922-10.244 0-17.013-6.228-17.013-16.303C2.561 12.09 20.123 0 47.747 0c30.55 0 46.466 13.922 46.466 30.225 0 16.304-10.428 25.28-35.307 28.577v.916c25.977 3.297 37.136 12.64 37.136 28.21 0 19.6-18.476 34.072-49.21 34.072zm110.494 0c-29.453 0-50.673-21.432-50.673-60.45 0-39.202 21.77-61.55 50.673-61.55C186.78 0 208 21.432 208 60.45c0 39.568-21.587 61.55-50.674 61.55zm.55-15.204c9.878 0 15.366-10.808 15.366-45.98 0-35.17-6.403-45.612-16.465-45.612-9.878 0-15.366 10.808-15.366 45.98 0 35.17 6.403 45.612 16.464 45.612zM249.59 78.372c16.194 0 29.688-18.354 29.688-36.257v-.451c1.35.15 2.998.15 4.798.15 6.447 0 12.294-1.956 17.842-6.469l.45.451L243.893 122h16.043l66.271-102h-12.444c-7.647 6.92-15.444 10.531-25.34 10.531-6.147 0-10.795-.903-14.543-2.558-3.448-3.46-8.696-5.415-15.143-5.415-16.043 0-30.737 17-30.737 34.601 0 13.24 9.446 21.213 21.59 21.213zm63.723 41.823c16.193 0 29.687-18.354 29.687-36.257 0-12.035-7.797-19.557-20.541-19.557-16.043 0-30.737 17-30.737 34.601 0 13.24 9.446 21.213 21.59 21.213zm3.448-9.328c-4.198 0-6.897-3.159-6.897-9.026 0-10.832 7.647-27.38 16.343-27.38 4.198 0 6.747 3.158 6.747 8.424 0 11.434-7.496 27.982-16.193 27.982zM253.04 69.044c-4.198 0-6.897-3.159-6.897-9.026 0-9.629 6.147-23.92 13.644-26.78 2.55 2.558 5.548 4.815 9.296 6.32.15.45.15 1.053.15 1.504 0 11.434-7.497 27.982-16.193 27.982z"/>
    </g>
</svg>
