<?xml version="1.0" encoding="UTF-8"?>
<svg width="17px" height="16px" viewBox="0 0 17 16" version="1.1" xmlns="http://www.w3.org/2000/svg" xmlns:xlink="http://www.w3.org/1999/xlink">
    <!-- Generator: sketchtool 41.2 (35397) - http://www.bohemiancoding.com/sketch -->
    <title>Like</title>
    <defs></defs>
    <g id="Page-1" stroke="none" stroke-width="1" fill="none" fill-rule="evenodd">
        <g id="Social_L_Slide4" transform="translate(-837.000000, -205.000000)" fill="#212121">
            <g id="Group-3" transform="translate(-630.000000, 10.000000)">
                <g id="Group">
                    <g id="Group-Copy" transform="translate(1400.000000, 191.000000)">
                        <path d="M83.6114443,8.61312 C83.3685643,5.93984 81.4764043,4.00032 79.1084043,4.00032 C77.5308043,4.00032 76.0863243,4.84928 75.2735243,6.20992 C74.4680843,4.83168 73.0828043,4 71.5304843,4 C69.1628043,4 67.2703243,5.93952 67.0277643,8.6128 C67.0085643,8.73088 66.9298443,9.35232 67.1692043,10.36576 C67.5141643,11.82752 68.3109643,13.15712 69.4728843,14.20992 L75.2696843,19.4704 L81.1660043,14.21024 C82.3279243,13.15712 83.1247243,11.82784 83.4696843,10.36576 C83.7090443,9.35264 83.6303243,8.7312 83.6114443,8.61312 Z" id="Shape"></path>
                    </g>
                </g>
            </g>
        </g>
    </g>
</svg>
