<?xml version="1.0" encoding="UTF-8"?>
<svg width="27px" height="16px" viewBox="0 0 27 16" version="1.1" xmlns="http://www.w3.org/2000/svg" xmlns:xlink="http://www.w3.org/1999/xlink">
    <!-- Generator: sketchtool 41.2 (35397) - http://www.bohemiancoding.com/sketch -->
    <title>Retweet</title>
    <defs></defs>
    <g stroke="none" stroke-width="1" fill="none" fill-rule="evenodd">
        <g transform="translate(-770.000000, -205.000000)" fill="#212121">
            <g transform="translate(-630.000000, 10.000000)">
                <g>
                    <g transform="translate(1400.000000, 191.000000)">
                        <path d="M5.36355556,19.7037037 C4.81422222,19.7037037 4.3677037,19.2551111 4.3677037,18.7045926 L4.3677037,10.5671111 L0,10.565037 L5.93451852,4.06903704 L11.8714074,10.5671111 L7.49777778,10.5671111 L7.49777778,16.5623704 L12.1940741,16.5623704 L15.2714074,19.7037037 L5.36355556,19.7037037 Z M26.6666667,13.138963 L22.2974815,13.138963 L22.2974815,4.99911111 C22.2974815,4.4482963 21.8506667,4 21.3016296,4 L11.3958519,4 L14.4711111,7.14103704 L19.1668148,7.14103704 L19.1668148,13.1365926 L14.7958519,13.138963 L20.7321481,19.6361481 L26.6666667,13.138963 Z"></path>
                    </g>
                </g>
            </g>
        </g>
    </g>
</svg>
