<svg width="32" height="20" viewBox="0 0 32 20" xmlns="http://www.w3.org/2000/svg"><path d="M.027 9.462C.113 4.331 4.85-.163 10.005.008c2.47-.114 4.791.956 6.683 2.459a35.395 35.395 0 0 1-2.537 2.616c-2.273-1.565-5.507-2.012-7.78-.205-3.254 2.24-3.402 7.528-.273 9.939 3.042 2.749 8.794 1.384 9.635-2.825-1.907-.028-3.817 0-5.723-.062-.005-1.132-.01-2.263-.005-3.395a908.49 908.49 0 0 1 9.563.01c.191 2.662-.162 5.497-1.805 7.699-2.49 3.485-7.486 4.503-11.383 3.01C2.468 17.77-.303 13.656.027 9.462m25.667-3.699h2.842c.005.946.01 1.897.02 2.843.95.01 1.905.01 2.856.02v2.829c-.951.01-1.901.014-2.857.024-.01.95-.014 1.897-.019 2.843H25.69c-.01-.946-.01-1.892-.019-2.839l-2.856-.028v-2.83c.95-.01 1.9-.014 2.856-.019.005-.95.014-1.897.024-2.843" fill-rule="evenodd"/></svg>