<svg width="21" height="20" viewBox="0 0 21 20" xmlns="http://www.w3.org/2000/svg"><path d="M17.08 17.042h-2.966v-4.641c0-1.107-.019-2.531-1.541-2.531-1.544 0-1.78 1.206-1.78 2.452v4.72H7.832V7.498h2.843v1.305h.041c.396-.75 1.364-1.542 2.807-1.542 3.003 0 3.558 1.976 3.558 4.547v5.234zM4.486 6.194a1.72 1.72 0 0 1-1.72-1.72 1.719 1.719 0 1 1 3.44 0c0 .95-.771 1.72-1.72 1.72zM3.001 17.042H5.97V7.498H3.001v9.544zM18.557 0H1.513C.699 0 .037.646.037 1.442v17.115C.037 19.353.7 20 1.513 20h17.044c.816 0 1.48-.647 1.48-1.443V1.442c0-.796-.664-1.442-1.48-1.442z" fill="#FFF" fill-rule="evenodd"/></svg>