<?xml version="1.0" encoding="UTF-8" standalone="no"?>
<svg width="26px" height="35px" viewBox="0 0 26 35" version="1.1" xmlns="http://www.w3.org/2000/svg" xmlns:xlink="http://www.w3.org/1999/xlink">
    <!-- Generator: sketchtool 39.1 (31720) - http://www.bohemiancoding.com/sketch -->
    <title>45D9ADF8-7AB1-40B5-8A46-A67BECB86A09</title>
    <desc>Created with sketchtool.</desc>
    <defs></defs>
    <g id="Symbols" stroke="none" stroke-width="1" fill="none" fill-rule="evenodd">
        <g id="Footer" transform="translate(-1012.000000, -246.000000)" fill="#FC1D42">
            <g id="Map" transform="translate(616.000000, 0.000000)">
                <g transform="translate(37.000000, -224.000000)" id="Page-1-Copy-9">
                    <path d="M371.6,470 C375.065015,470 378.031237,471.197905 380.49875,473.59375 C382.966263,475.989595 384.2,478.88019 384.2,482.265625 C384.2,484.97397 383.150012,488.22915 381.05,492.03125 C378.949988,495.83335 376.850012,498.95832 374.75,501.40625 L371.6,505 C371.232498,504.635415 370.773128,504.127608 370.221872,503.476562 C369.670622,502.825517 368.673131,501.562509 367.229372,499.6875 C365.785619,497.81249 364.512505,495.98959 363.41,494.21875 C362.307494,492.44791 361.29688,490.44272 360.378125,488.203125 C359.45937,485.96353 359,483.984385 359,482.265625 C359,478.88019 360.233738,475.989595 362.70125,473.59375 C365.168763,471.197905 368.134985,470 371.6,470 L371.6,470 Z M371.6,486.640625 C372.860005,486.640625 373.923122,486.21094 374.789372,485.35156 C375.655628,484.492185 376.08875,483.46355 376.08875,482.265625 C376.08875,481.0677 375.655628,480.039065 374.789372,479.17969 C373.923122,478.32031 372.860005,477.890625 371.6,477.890625 C370.339995,477.890625 369.276878,478.32031 368.410628,479.17969 C367.544372,480.039065 367.11125,481.0677 367.11125,482.265625 C367.11125,483.46355 367.544372,484.492185 368.410628,485.35156 C369.276878,486.21094 370.339995,486.640625 371.6,486.640625 L371.6,486.640625 Z"></path>
                </g>
            </g>
        </g>
    </g>
</svg>
