<svg id="Layer_1" xmlns="http://www.w3.org/2000/svg" viewBox="0 0 756 400" enable-background="new 0 0 756 400"><style>.st0,.st1,.st2,.st3,.st4,.st5,.st6{fill:none;stroke:#464646;stroke-miterlimit:10}.st1,.st2,.st3,.st4,.st5,.st6{stroke:url(#SVGID_1_)}.st2,.st3,.st4,.st5,.st6{stroke:url(#SVGID_2_)}.st3,.st4,.st5,.st6{stroke:url(#SVGID_3_)}.st4,.st5,.st6{stroke:url(#SVGID_4_)}.st5,.st6{stroke:url(#SVGID_5_)}.st6{stroke:url(#SVGID_6_)}.st7{filter:url(#Adobe_OpacityMaskFilter)}.st8{fill:#fff}.st9{mask:url(#mask-2_1_)}.st10{fill:#fc1d42}.st11{enable-background:new}.st12{fill:#999}.st13{font-family:&apos;ProximaNova-Bold&apos;}.st14{font-size:14px}.st15{letter-spacing:9}.st16{fill:#ccc}.st17{fill:none;stroke:#f8f8f8;stroke-width:4}</style><path class="st0" d="M530.9 60.9s-23.1 5.3-30.5 13.1-37.3 54.7-37.3 54.7 2.1 22.1 4.7 26.8 51 41 51 41l17.3 4.2h11l14.7-5.8 31.5-64.1s6.3-19.4 5.8-21.5c-.5-2.1-7.9-14.2-7.9-14.2l-60.3-34.2zM443.1 148.7l-10 7.3h12.6zM499.8 46.2L514 42l-14.2-14.7zM531.1 221.2h21.3l-17.3 27.3v-18.4zM371.1 177.6l15.8-2.1s45.7 0 52.6 2.1 25.8 8.4 25.8 8.4l38.9 27.9s5.8 11.6 6.8 21c1.1 9.5 3.2 137.7 3.2 137.7l-115.1 12.1-28-207.1z"/><linearGradient id="SVGID_1_" gradientUnits="userSpaceOnUse" x1="71.407" y1="283.974" x2="386.625" y2="283.974"><stop offset="0" stop-color="#212121"/><stop offset="1" stop-color="#464646"/></linearGradient><path class="st1" d="M357.4 179.2l-181.3 30.4L72 224.4l34.7 164.5 279.4-4.2z"/><linearGradient id="SVGID_2_" gradientUnits="userSpaceOnUse" x1="369.2" y1="167.622" x2="369.2" y2="-191.394"><stop offset="0" stop-color="#464646"/><stop offset="1" stop-color="#212121"/></linearGradient><path class="st2" d="M295.4 167.1l90.7-11 28.1-11 28.4-25.2 32.1-50.5 4.2-37.8 3.7-25.2s-34.2-127.7-43.1-141.9c0 0-23.1-54.1-25.8-55.2l-118.3 33.1-39.4-6.3 39.4 331z"/><linearGradient id="SVGID_3_" gradientUnits="userSpaceOnUse" x1="299.367" y1="-72.596" x2="1.663" y2="99.283"><stop offset="0" stop-color="#464646"/><stop offset="1" stop-color="#212121"/></linearGradient><path class="st3" d="M284.7 168.6L63.4 204.9 0-132.5l212.3-54.2 32.1 20z"/><linearGradient id="SVGID_4_" gradientUnits="userSpaceOnUse" x1="474.633" y1="-44.695" x2="793.076" y2="-44.695"><stop offset="0" stop-color="#464646"/><stop offset="1" stop-color="#212121"/></linearGradient><path class="st4" d="M477.1-122.9l-2 18.1L503.9-.3l37.9 41.4 57.4 32.3L792.5-9.4l-45.8-153.3L578.4-130z"/><linearGradient id="SVGID_5_" gradientUnits="userSpaceOnUse" x1="539.021" y1="197.441" x2="849.1" y2="197.441"><stop offset="0" stop-color="#464646"/><stop offset="1" stop-color="#212121"/></linearGradient><path class="st5" d="M622.3 116.7l-38.6 89.9-4.4 24.1-39.8 53.3 2.4 85.8 306.7-18.1-15.4-326.4z"/><linearGradient id="SVGID_6_" gradientUnits="userSpaceOnUse" x1="614.186" y1="50.204" x2="812.658" y2="50.204"><stop offset="0" stop-color="#464646"/><stop offset="1" stop-color="#212121"/></linearGradient><path class="st6" d="M614.7 89.5v5.6l197.1-86-4-3.9z"/><g id="Symbols"><g id="Footer" transform="translate(-684)"><g id="Map" transform="translate(616)"><defs><filter id="Adobe_OpacityMaskFilter" filterUnits="userSpaceOnUse" x="255.2" y="123.2" width="408.8" height="183.8"><feColorMatrix values="1 0 0 0 0 0 1 0 0 0 0 0 1 0 0 0 0 0 1 0"/></filter></defs><mask maskUnits="userSpaceOnUse" x="255.2" y="123.2" width="408.8" height="183.8" id="mask-2_1_"><g class="st7"><path id="path-1_1_" class="st8" d="M17.3 26h824v499h-824z"/></g></mask><g transform="translate(37 -224)" class="st9"><path id="Page-1-Copy-9" class="st10" d="M388.1 496c3.5 0 6.4 1.2 8.9 3.6 2.5 2.4 3.7 5.3 3.7 8.7 0 2.7-1 6-3.2 9.8-2.1 3.8-4.2 6.9-6.3 9.4l-3.1 3.6c-.4-.4-.8-.9-1.4-1.5-.6-.7-1.5-1.9-3-3.8s-2.7-3.7-3.8-5.5c-1.1-1.8-2.1-3.8-3-6-.9-2.2-1.4-4.2-1.4-5.9 0-3.4 1.2-6.3 3.7-8.7 2.5-2.5 5.5-3.7 8.9-3.7zm0 16.6c1.3 0 2.3-.4 3.2-1.3.9-.9 1.3-1.9 1.3-3.1s-.4-2.2-1.3-3.1c-.9-.9-1.9-1.3-3.2-1.3s-2.3.4-3.2 1.3c-.9.9-1.3 1.9-1.3 3.1s.4 2.2 1.3 3.1c.9.9 2 1.3 3.2 1.3z"/><g class="st11"><text transform="rotate(-8.996 2810.036 -1185.976)" class="st12 st13 st14 st15">OLD STREET</text></g><g class="st11"><text transform="translate(545.327 364.182)" class="st16 st13 st14">OLD STREET</text></g><g id="Tueb-logo" transform="translate(494 322)"><ellipse id="Oval-2" class="st17" cx="25.9" cy="36.7" rx="9.6" ry="9.5"/><path id="Rectangle-22" class="st10" d="M11.3 34.2h29.1v5.1H11.3z"/></g></g></g></g></g></svg>