<svg xmlns="http://www.w3.org/2000/svg" xmlns:xlink="http://www.w3.org/1999/xlink" viewBox="0 0 756 499"><defs><style>.\31 5296489-7023-4b70-a002-9b934c640e22,.\31 88f4a9e-b3cf-4477-b2f7-b03734c64d81,.\32 6bdd014-baea-49c8-9a31-e8db7d568ebf,.\33 34ab110-562e-4389-9b3d-9127bcaa9ac0,.\34 113e046-c17d-4d4d-856d-5d9f80bef13e,.\36 166f390-bc14-4665-8eee-69e42baae21e,.\37 9af2162-99d2-4a87-8cc8-51363492bb69,.d7368790-48a8-41da-81b8-4b7f12a580b8,.ead8121d-d896-4a02-a14f-e9ae4a3ed92f{fill:none;}.\32 6bdd014-baea-49c8-9a31-e8db7d568ebf{stroke:#565656;}.\34 113e046-c17d-4d4d-856d-5d9f80bef13e{stroke:url(#3124cbc5-e9c2-4c88-9dce-db7835ff0af3);}.\31 88f4a9e-b3cf-4477-b2f7-b03734c64d81{stroke:url(#75718ee0-b589-4ed9-b8ca-fc14ac47c2f3);}.\36 166f390-bc14-4665-8eee-69e42baae21e{stroke:url(#ccc5304e-425c-4ec1-9d40-f48bc88e49bb);}.\31 5296489-7023-4b70-a002-9b934c640e22{stroke:url(#9ec864c5-3b36-425d-8b97-9231ce040614);}.\33 34ab110-562e-4389-9b3d-9127bcaa9ac0{stroke:url(#596cf775-62ca-4627-bb41-81d7c16ba193);}.d7368790-48a8-41da-81b8-4b7f12a580b8{stroke:url(#1461e111-8c37-4ebd-9132-1d65f3c31afb);}.ead8121d-d896-4a02-a14f-e9ae4a3ed92f{stroke:url(#77069ccd-9725-4b2a-aea0-1921c44b1af1);}.\36 b8c5b12-f5c1-442e-9ac1-bf17b317f689{isolation:isolate;}.e9554b27-5c5f-435e-930b-ed06dd061073{fill:#999;}.\33 0c067df-53d5-40e6-8820-1d79512a168e{fill:#ccc;}.\37 9af2162-99d2-4a87-8cc8-51363492bb69{stroke:#f8f8f8;stroke-width:4px;}.a789a405-0606-4e31-acca-56cf5ff9de72{fill:#fc1d42;}</style><linearGradient id="3124cbc5-e9c2-4c88-9dce-db7835ff0af3" x1="-302.06" y1="632.94" x2="-303.06" y2="632.94" gradientTransform="matrix(322.21, 0, 0, -215.12, 97693.03, 136409.01)" gradientUnits="userSpaceOnUse"><stop offset="0" stop-color="#464646"/><stop offset="1" stop-color="#212121"/></linearGradient><linearGradient id="75718ee0-b589-4ed9-b8ca-fc14ac47c2f3" x1="-302.29" y1="632.57" x2="-303.29" y2="632.57" gradientTransform="matrix(430.88, 0, 0, -131.01, 130763.99, 83295.73)" xlink:href="#3124cbc5-e9c2-4c88-9dce-db7835ff0af3"/><linearGradient id="ccc5304e-425c-4ec1-9d40-f48bc88e49bb" x1="-302.24" y1="632.64" x2="-302.24" y2="633.64" gradientTransform="matrix(232.43, 0, 0, -367.16, 70586.07, 232422.97)" xlink:href="#3124cbc5-e9c2-4c88-9dce-db7835ff0af3"/><linearGradient id="9ec864c5-3b36-425d-8b97-9231ce040614" x1="-301.96" y1="633.15" x2="-302.96" y2="633.15" gradientTransform="matrix(292.06, 0, 0, -401.66, 88450.74, 254300.42)" xlink:href="#3124cbc5-e9c2-4c88-9dce-db7835ff0af3"/><linearGradient id="596cf775-62ca-4627-bb41-81d7c16ba193" x1="-302.53" y1="632.45" x2="-302.53" y2="633.45" gradientTransform="matrix(325.58, 0, 0, -242.21, 99131.1, 153234.79)" xlink:href="#3124cbc5-e9c2-4c88-9dce-db7835ff0af3"/><linearGradient id="1461e111-8c37-4ebd-9132-1d65f3c31afb" x1="-303.04" y1="633.22" x2="-302.04" y2="633.22" gradientTransform="matrix(317.09, 0, 0, -353.41, 96615.12, 223928.26)" xlink:href="#3124cbc5-e9c2-4c88-9dce-db7835ff0af3"/><linearGradient id="77069ccd-9725-4b2a-aea0-1921c44b1af1" x1="-302.52" y1="633.07" x2="-302.52" y2="632.07" gradientTransform="matrix(305.23, 0, 0, -143.56, 93008.65, 91232.7)" xlink:href="#3124cbc5-e9c2-4c88-9dce-db7835ff0af3"/></defs><title>Map</title><g data-name="Layer 1"><g data-name="Symbols"><g data-name="Footer Large"><g data-name="Map"><path id="3d287da9-89c6-44c0-86d6-6ee8a5f3250e" data-name="Stroke-1" class="26bdd014-baea-49c8-9a31-e8db7d568ebf" d="M483.32,48.58C475.77,56.67,445,104.66,445,104.66s2.16,22.64,4.85,27.5,52.31,42.05,52.31,42.05l17.8,4.31h11.32l15.1-5.93,32.36-65.78s6.47-19.95,5.93-22.1-8.09-14.56-8.09-14.56l-62-35S490.87,40.5,483.32,48.58Z"/><polygon id="114d16c0-ad8e-48f1-9dff-5d73372a0abe" data-name="Stroke-3" class="26bdd014-baea-49c8-9a31-e8db7d568ebf" points="414.29 132.69 427.24 132.69 424.54 125.14 414.29 132.69"/><polygon id="53be0a96-39d5-4fa9-bfef-4316646c691b" data-name="Stroke-5" class="26bdd014-baea-49c8-9a31-e8db7d568ebf" points="482.78 20.01 497.34 15.7 482.78 0.6 482.78 20.01"/><polygon id="d3775fe3-29b8-4948-adcd-7b4cc63d45f7" data-name="Stroke-7" class="26bdd014-baea-49c8-9a31-e8db7d568ebf" points="514.88 199.55 536.71 199.55 518.91 227.58 518.91 208.71 514.88 199.55"/><path id="722020d9-c3f0-42b3-9cb2-09a3c599c79f" data-name="Stroke-9" class="26bdd014-baea-49c8-9a31-e8db7d568ebf" d="M350.66,154.8l16.18-2.16s46.92,0,53.93,2.16,26.43,8.63,26.43,8.63L487.09,192s5.93,11.86,7,21.57,3.24,141.26,3.24,141.26l-118.1,12.4L350.66,154.8Z"/><polygon id="5df687c9-1733-4e97-84b4-ff44c00a2eee" data-name="Stroke-11" class="4113e046-c17d-4d4d-856d-5d9f80bef13e" points="336.64 156.41 150.59 187.68 43.81 202.78 79.41 371.54 366.03 367.22 336.64 156.41"/><polygon id="c15969eb-75fc-4df0-8004-d450340b0b1f" data-name="Stroke-13" class="188f4a9e-b3cf-4477-b2f7-b03734c64d81" points="497.34 367.22 366.03 380.16 81.56 382.86 117.16 498.24 512.44 498.24 497.34 367.22"/><path id="bf989771-ab56-4ee0-adf1-c7d6a7c77990" data-name="Stroke-15" class="6166f390-bc14-4665-8eee-69e42baae21e" d="M273,144l93-11.32,28.85-11.32L424,95.49l32.9-51.76,4.31-38.82L465-21s-35.05-131-44.22-145.57c0,0-23.73-55.53-26.42-56.61L273-189.18l-40.45-6.47L273,144Z"/><polygon id="09f2149f-e1c5-4c7f-82bd-5cc0f60b9a2f" data-name="Stroke-17" class="15296489-7023-4b70-a002-9b934c640e22" points="261.99 145.63 34.96 182.83 -30.07 -163.3 187.8 -218.83 220.7 -198.35 261.99 145.63"/><polygon id="da51f842-adb8-4856-8707-8d4bffd68bdb" data-name="Stroke-19" class="334ab110-562e-4389-9b3d-9127bcaa9ac0" points="459.46 -153.46 457.44 -134.86 486.96 -27.71 525.8 14.75 584.73 47.91 783.02 -37.01 736.1 -194.3 563.4 -160.74 459.46 -153.46"/><polygon id="64d2992a-3169-477b-81a2-3ace7bc06204" data-name="Stroke-21" class="d7368790-48a8-41da-81b8-4b7f12a580b8" points="568.79 184.58 564.35 209.25 523.5 263.97 525.92 351.99 840.59 333.39 824.81 -1.42 608.43 92.39 568.79 184.58"/><path id="35a6f2a0-3202-4328-8fd6-903705182487" data-name="Stroke-23" class="ead8121d-d896-4a02-a14f-e9ae4a3ed92f" d="M523.5,367.22l8.38,81.35,3.82,37.11,1,9.86h292V352C818.21,351.59,523.5,367.22,523.5,367.22Z"/><polygon id="1c2bed9d-b245-4316-8114-d0eaaf027419" data-name="Stroke-25" class="26bdd014-baea-49c8-9a31-e8db7d568ebf" points="600.61 70.15 802.84 -18 798.79 -22.05 600.61 64.49 600.61 70.15"/><g data-name="OLD-STREET" class="6b8c5b12-f5c1-442e-9ac1-bf17b317f689"><g class="6b8c5b12-f5c1-442e-9ac1-bf17b317f689"><path class="e9554b27-5c5f-435e-930b-ed06dd061073" d="M132.36,172.52a5.17,5.17,0,1,1-4.35,5.93A5,5,0,0,1,132.36,172.52Zm.3,1.87a3.29,3.29,0,1,0,3.52,2.77A3,3,0,0,0,132.66,174.39Z"/><path class="e9554b27-5c5f-435e-930b-ed06dd061073" d="M148.91,170.07l2.1-.33,1.27,8,4.18-.66.29,1.85-6.28,1Z"/><path class="e9554b27-5c5f-435e-930b-ed06dd061073" d="M166.52,167.28l3.9-.62c3.1-.49,5.56,1.14,6,4.12s-1.37,5.27-4.46,5.76l-3.9.62Zm5.17,7.41a3,3,0,0,0,2.61-3.57,2.93,2.93,0,0,0-3.59-2.6l-1.79.28,1,6.18Z"/><path class="e9554b27-5c5f-435e-930b-ed06dd061073" d="M202.25,168.68a4.39,4.39,0,0,0,3.35.84c1.16-.18,1.63-.82,1.54-1.38-.12-.74-1-.86-2.2-.94-1.67-.11-3.82-.23-4.17-2.44-.26-1.64,1-3.2,3.28-3.57a5.56,5.56,0,0,1,4.07.77l-.93,1.73a4.27,4.27,0,0,0-3-.63c-.95.15-1.39.65-1.29,1.24s1,.74,2.15.83c1.69.11,3.84.27,4.19,2.47.29,1.81-.79,3.37-3.45,3.8a5.76,5.76,0,0,1-4.44-.91Z"/><path class="e9554b27-5c5f-435e-930b-ed06dd061073" d="M221.92,160.4l-2.89.46-.29-1.85,7.88-1.25.29,1.85-2.87.46,1.27,8-2.12.34Z"/><path class="e9554b27-5c5f-435e-930b-ed06dd061073" d="M242.48,161.75l-1.54.24.56,3.54-2.1.33L237.83,156l4.62-.73a3.12,3.12,0,0,1,3.82,2.66,2.87,2.87,0,0,1-1.7,3.28l2.82,3.41L245,165Zm-.05-4.64-2.21.35.43,2.73,2.21-.35a1.39,1.39,0,1,0-.43-2.73Z"/><path class="e9554b27-5c5f-435e-930b-ed06dd061073" d="M257.22,152.91l7-1.11.29,1.81-4.89.77.34,2.15,4.79-.76.29,1.81-4.79.76.36,2.3,4.89-.77.29,1.82-7,1.11Z"/><path class="e9554b27-5c5f-435e-930b-ed06dd061073" d="M275.73,150l7-1.11.29,1.81-4.89.77.34,2.15,4.79-.76.29,1.81-4.79.76.36,2.3,4.89-.77.29,1.82-7,1.11Z"/><path class="e9554b27-5c5f-435e-930b-ed06dd061073" d="M296.81,148.54l-2.89.46-.29-1.85,7.88-1.25.29,1.85-2.87.46,1.27,8-2.12.34Z"/></g></g><g data-name="OLD-STREET-STATION" class="6b8c5b12-f5c1-442e-9ac1-bf17b317f689"><g class="6b8c5b12-f5c1-442e-9ac1-bf17b317f689"><path class="30c067df-53d5-40e6-8820-1d79512a168e" d="M508.73,102.83a5.18,5.18,0,1,1-5.22,5.17A5,5,0,0,1,508.73,102.83Zm0,1.89a3.29,3.29,0,1,0,3,3.28A3,3,0,0,0,508.73,104.72Z"/><path class="30c067df-53d5-40e6-8820-1d79512a168e" d="M515.46,103h2.13v8.13h4.23V113h-6.36Z"/><path class="30c067df-53d5-40e6-8820-1d79512a168e" d="M523.31,103h3.94c3.14,0,5.31,2,5.31,5s-2.17,5-5.31,5h-3.94Zm3.94,8.13a3,3,0,0,0,3.14-3.12,2.93,2.93,0,0,0-3.14-3.13h-1.81v6.25Z"/><path class="30c067df-53d5-40e6-8820-1d79512a168e" d="M538.4,110a4.39,4.39,0,0,0,3.18,1.35c1.17,0,1.74-.56,1.74-1.12,0-.75-.87-1-2-1.28-1.63-.37-3.74-.83-3.74-3.06,0-1.67,1.44-3,3.79-3a5.56,5.56,0,0,1,3.9,1.39l-1.18,1.56a4.27,4.27,0,0,0-2.86-1.1c-1,0-1.47.42-1.47,1s.84.88,2,1.15c1.65.38,3.75.87,3.75,3.09,0,1.83-1.31,3.21-4,3.21a5.76,5.76,0,0,1-4.25-1.59Z"/><path class="30c067df-53d5-40e6-8820-1d79512a168e" d="M549.13,104.87H546.2V103h8v1.88h-2.91V113h-2.14Z"/><path class="30c067df-53d5-40e6-8820-1d79512a168e" d="M559.23,109.42h-1.56V113h-2.13V103h4.68a3.12,3.12,0,0,1,3.36,3.23,2.87,2.87,0,0,1-2.19,3l2.25,3.81H561.2Zm.68-4.59h-2.24v2.76h2.24a1.38,1.38,0,1,0,0-2.76Z"/><path class="30c067df-53d5-40e6-8820-1d79512a168e" d="M565.19,103h7.08v1.83h-5V107h4.84v1.83h-4.84v2.33h5V113h-7.08Z"/><path class="30c067df-53d5-40e6-8820-1d79512a168e" d="M573.93,103H581v1.83h-4.95V107h4.84v1.83h-4.84v2.33H581V113h-7.08Z"/><path class="30c067df-53d5-40e6-8820-1d79512a168e" d="M585,104.87h-2.92V103h8v1.88h-2.91V113H585Z"/></g></g></g></g></g><g data-name="Symbols"><g data-name="Footer Large"><g data-name="Map"><g id="50d8314d-7709-4b95-a505-e3cac04586c5" data-name="Tube-logo"><ellipse id="8edde136-1889-4263-9c3e-017d4998133d" data-name="Oval-2" class="79af2162-99d2-4a87-8cc8-51363492bb69" cx="479.53" cy="107.81" rx="9.59" ry="9.5"/><rect id="8dfaf58c-5a46-41d4-bc7f-ea79a9673824" data-name="Rectangle-22" class="a789a405-0606-4e31-acca-56cf5ff9de72" x="464.99" y="105.36" width="29.09" height="5.12"/></g></g></g></g></g></svg>
<svg xmlns="http://www.w3.org/2000/svg" xmlns:xlink="http://www.w3.org/1999/xlink" viewBox="0 0 756 499"><defs><style>.\31 5296489-7023-4b70-a002-9b934c640e22,.\31 88f4a9e-b3cf-4477-b2f7-b03734c64d81,.\32 6bdd014-baea-49c8-9a31-e8db7d568ebf,.\33 34ab110-562e-4389-9b3d-9127bcaa9ac0,.\34 113e046-c17d-4d4d-856d-5d9f80bef13e,.\36 166f390-bc14-4665-8eee-69e42baae21e,.\37 9af2162-99d2-4a87-8cc8-51363492bb69,.d7368790-48a8-41da-81b8-4b7f12a580b8,.ead8121d-d896-4a02-a14f-e9ae4a3ed92f{fill:none;}.\32 6bdd014-baea-49c8-9a31-e8db7d568ebf{stroke:#565656;}.\34 113e046-c17d-4d4d-856d-5d9f80bef13e{stroke:url(#3124cbc5-e9c2-4c88-9dce-db7835ff0af3);}.\31 88f4a9e-b3cf-4477-b2f7-b03734c64d81{stroke:url(#75718ee0-b589-4ed9-b8ca-fc14ac47c2f3);}.\36 166f390-bc14-4665-8eee-69e42baae21e{stroke:url(#ccc5304e-425c-4ec1-9d40-f48bc88e49bb);}.\31 5296489-7023-4b70-a002-9b934c640e22{stroke:url(#9ec864c5-3b36-425d-8b97-9231ce040614);}.\33 34ab110-562e-4389-9b3d-9127bcaa9ac0{stroke:url(#596cf775-62ca-4627-bb41-81d7c16ba193);}.d7368790-48a8-41da-81b8-4b7f12a580b8{stroke:url(#1461e111-8c37-4ebd-9132-1d65f3c31afb);}.ead8121d-d896-4a02-a14f-e9ae4a3ed92f{stroke:url(#77069ccd-9725-4b2a-aea0-1921c44b1af1);}.\36 b8c5b12-f5c1-442e-9ac1-bf17b317f689{isolation:isolate;}.e9554b27-5c5f-435e-930b-ed06dd061073{fill:#999;}.\33 0c067df-53d5-40e6-8820-1d79512a168e{fill:#ccc;}.\37 9af2162-99d2-4a87-8cc8-51363492bb69{stroke:#f8f8f8;stroke-width:4px;}.a789a405-0606-4e31-acca-56cf5ff9de72{fill:#fc1d42;}</style><linearGradient id="3124cbc5-e9c2-4c88-9dce-db7835ff0af3" x1="-302.06" y1="632.94" x2="-303.06" y2="632.94" gradientTransform="matrix(322.21, 0, 0, -215.12, 97693.03, 136409.01)" gradientUnits="userSpaceOnUse"><stop offset="0" stop-color="#464646"/><stop offset="1" stop-color="#212121"/></linearGradient><linearGradient id="75718ee0-b589-4ed9-b8ca-fc14ac47c2f3" x1="-302.29" y1="632.57" x2="-303.29" y2="632.57" gradientTransform="matrix(430.88, 0, 0, -131.01, 130763.99, 83295.73)" xlink:href="#3124cbc5-e9c2-4c88-9dce-db7835ff0af3"/><linearGradient id="ccc5304e-425c-4ec1-9d40-f48bc88e49bb" x1="-302.24" y1="632.64" x2="-302.24" y2="633.64" gradientTransform="matrix(232.43, 0, 0, -367.16, 70586.07, 232422.97)" xlink:href="#3124cbc5-e9c2-4c88-9dce-db7835ff0af3"/><linearGradient id="9ec864c5-3b36-425d-8b97-9231ce040614" x1="-301.96" y1="633.15" x2="-302.96" y2="633.15" gradientTransform="matrix(292.06, 0, 0, -401.66, 88450.74, 254300.42)" xlink:href="#3124cbc5-e9c2-4c88-9dce-db7835ff0af3"/><linearGradient id="596cf775-62ca-4627-bb41-81d7c16ba193" x1="-302.53" y1="632.45" x2="-302.53" y2="633.45" gradientTransform="matrix(325.58, 0, 0, -242.21, 99131.1, 153234.79)" xlink:href="#3124cbc5-e9c2-4c88-9dce-db7835ff0af3"/><linearGradient id="1461e111-8c37-4ebd-9132-1d65f3c31afb" x1="-303.04" y1="633.22" x2="-302.04" y2="633.22" gradientTransform="matrix(317.09, 0, 0, -353.41, 96615.12, 223928.26)" xlink:href="#3124cbc5-e9c2-4c88-9dce-db7835ff0af3"/><linearGradient id="77069ccd-9725-4b2a-aea0-1921c44b1af1" x1="-302.52" y1="633.07" x2="-302.52" y2="632.07" gradientTransform="matrix(305.23, 0, 0, -143.56, 93008.65, 91232.7)" xlink:href="#3124cbc5-e9c2-4c88-9dce-db7835ff0af3"/></defs><title>Map</title><g data-name="Layer 1"><g data-name="Symbols"><g data-name="Footer Large"><g data-name="Map"><path id="3d287da9-89c6-44c0-86d6-6ee8a5f3250e" data-name="Stroke-1" class="26bdd014-baea-49c8-9a31-e8db7d568ebf" d="M483.32,48.58C475.77,56.67,445,104.66,445,104.66s2.16,22.64,4.85,27.5,52.31,42.05,52.31,42.05l17.8,4.31h11.32l15.1-5.93,32.36-65.78s6.47-19.95,5.93-22.1-8.09-14.56-8.09-14.56l-62-35S490.87,40.5,483.32,48.58Z"/><polygon id="114d16c0-ad8e-48f1-9dff-5d73372a0abe" data-name="Stroke-3" class="26bdd014-baea-49c8-9a31-e8db7d568ebf" points="414.29 132.69 427.24 132.69 424.54 125.14 414.29 132.69"/><polygon id="53be0a96-39d5-4fa9-bfef-4316646c691b" data-name="Stroke-5" class="26bdd014-baea-49c8-9a31-e8db7d568ebf" points="482.78 20.01 497.34 15.7 482.78 0.6 482.78 20.01"/><polygon id="d3775fe3-29b8-4948-adcd-7b4cc63d45f7" data-name="Stroke-7" class="26bdd014-baea-49c8-9a31-e8db7d568ebf" points="514.88 199.55 536.71 199.55 518.91 227.58 518.91 208.71 514.88 199.55"/><path id="722020d9-c3f0-42b3-9cb2-09a3c599c79f" data-name="Stroke-9" class="26bdd014-baea-49c8-9a31-e8db7d568ebf" d="M350.66,154.8l16.18-2.16s46.92,0,53.93,2.16,26.43,8.63,26.43,8.63L487.09,192s5.93,11.86,7,21.57,3.24,141.26,3.24,141.26l-118.1,12.4L350.66,154.8Z"/><polygon id="5df687c9-1733-4e97-84b4-ff44c00a2eee" data-name="Stroke-11" class="4113e046-c17d-4d4d-856d-5d9f80bef13e" points="336.64 156.41 150.59 187.68 43.81 202.78 79.41 371.54 366.03 367.22 336.64 156.41"/><polygon id="c15969eb-75fc-4df0-8004-d450340b0b1f" data-name="Stroke-13" class="188f4a9e-b3cf-4477-b2f7-b03734c64d81" points="497.34 367.22 366.03 380.16 81.56 382.86 117.16 498.24 512.44 498.24 497.34 367.22"/><path id="bf989771-ab56-4ee0-adf1-c7d6a7c77990" data-name="Stroke-15" class="6166f390-bc14-4665-8eee-69e42baae21e" d="M273,144l93-11.32,28.85-11.32L424,95.49l32.9-51.76,4.31-38.82L465-21s-35.05-131-44.22-145.57c0,0-23.73-55.53-26.42-56.61L273-189.18l-40.45-6.47L273,144Z"/><polygon id="09f2149f-e1c5-4c7f-82bd-5cc0f60b9a2f" data-name="Stroke-17" class="15296489-7023-4b70-a002-9b934c640e22" points="261.99 145.63 34.96 182.83 -30.07 -163.3 187.8 -218.83 220.7 -198.35 261.99 145.63"/><polygon id="da51f842-adb8-4856-8707-8d4bffd68bdb" data-name="Stroke-19" class="334ab110-562e-4389-9b3d-9127bcaa9ac0" points="459.46 -153.46 457.44 -134.86 486.96 -27.71 525.8 14.75 584.73 47.91 783.02 -37.01 736.1 -194.3 563.4 -160.74 459.46 -153.46"/><polygon id="64d2992a-3169-477b-81a2-3ace7bc06204" data-name="Stroke-21" class="d7368790-48a8-41da-81b8-4b7f12a580b8" points="568.79 184.58 564.35 209.25 523.5 263.97 525.92 351.99 840.59 333.39 824.81 -1.42 608.43 92.39 568.79 184.58"/><path id="35a6f2a0-3202-4328-8fd6-903705182487" data-name="Stroke-23" class="ead8121d-d896-4a02-a14f-e9ae4a3ed92f" d="M523.5,367.22l8.38,81.35,3.82,37.11,1,9.86h292V352C818.21,351.59,523.5,367.22,523.5,367.22Z"/><polygon id="1c2bed9d-b245-4316-8114-d0eaaf027419" data-name="Stroke-25" class="26bdd014-baea-49c8-9a31-e8db7d568ebf" points="600.61 70.15 802.84 -18 798.79 -22.05 600.61 64.49 600.61 70.15"/><g data-name="OLD-STREET" class="6b8c5b12-f5c1-442e-9ac1-bf17b317f689"><g class="6b8c5b12-f5c1-442e-9ac1-bf17b317f689"><path class="e9554b27-5c5f-435e-930b-ed06dd061073" d="M132.36,172.52a5.17,5.17,0,1,1-4.35,5.93A5,5,0,0,1,132.36,172.52Zm.3,1.87a3.29,3.29,0,1,0,3.52,2.77A3,3,0,0,0,132.66,174.39Z"/><path class="e9554b27-5c5f-435e-930b-ed06dd061073" d="M148.91,170.07l2.1-.33,1.27,8,4.18-.66.29,1.85-6.28,1Z"/><path class="e9554b27-5c5f-435e-930b-ed06dd061073" d="M166.52,167.28l3.9-.62c3.1-.49,5.56,1.14,6,4.12s-1.37,5.27-4.46,5.76l-3.9.62Zm5.17,7.41a3,3,0,0,0,2.61-3.57,2.93,2.93,0,0,0-3.59-2.6l-1.79.28,1,6.18Z"/><path class="e9554b27-5c5f-435e-930b-ed06dd061073" d="M202.25,168.68a4.39,4.39,0,0,0,3.35.84c1.16-.18,1.63-.82,1.54-1.38-.12-.74-1-.86-2.2-.94-1.67-.11-3.82-.23-4.17-2.44-.26-1.64,1-3.2,3.28-3.57a5.56,5.56,0,0,1,4.07.77l-.93,1.73a4.27,4.27,0,0,0-3-.63c-.95.15-1.39.65-1.29,1.24s1,.74,2.15.83c1.69.11,3.84.27,4.19,2.47.29,1.81-.79,3.37-3.45,3.8a5.76,5.76,0,0,1-4.44-.91Z"/><path class="e9554b27-5c5f-435e-930b-ed06dd061073" d="M221.92,160.4l-2.89.46-.29-1.85,7.88-1.25.29,1.85-2.87.46,1.27,8-2.12.34Z"/><path class="e9554b27-5c5f-435e-930b-ed06dd061073" d="M242.48,161.75l-1.54.24.56,3.54-2.1.33L237.83,156l4.62-.73a3.12,3.12,0,0,1,3.82,2.66,2.87,2.87,0,0,1-1.7,3.28l2.82,3.41L245,165Zm-.05-4.64-2.21.35.43,2.73,2.21-.35a1.39,1.39,0,1,0-.43-2.73Z"/><path class="e9554b27-5c5f-435e-930b-ed06dd061073" d="M257.22,152.91l7-1.11.29,1.81-4.89.77.34,2.15,4.79-.76.29,1.81-4.79.76.36,2.3,4.89-.77.29,1.82-7,1.11Z"/><path class="e9554b27-5c5f-435e-930b-ed06dd061073" d="M275.73,150l7-1.11.29,1.81-4.89.77.34,2.15,4.79-.76.29,1.81-4.79.76.36,2.3,4.89-.77.29,1.82-7,1.11Z"/><path class="e9554b27-5c5f-435e-930b-ed06dd061073" d="M296.81,148.54l-2.89.46-.29-1.85,7.88-1.25.29,1.85-2.87.46,1.27,8-2.12.34Z"/></g></g><g data-name="OLD-STREET-STATION" class="6b8c5b12-f5c1-442e-9ac1-bf17b317f689"><g class="6b8c5b12-f5c1-442e-9ac1-bf17b317f689"><path class="30c067df-53d5-40e6-8820-1d79512a168e" d="M508.73,102.83a5.18,5.18,0,1,1-5.22,5.17A5,5,0,0,1,508.73,102.83Zm0,1.89a3.29,3.29,0,1,0,3,3.28A3,3,0,0,0,508.73,104.72Z"/><path class="30c067df-53d5-40e6-8820-1d79512a168e" d="M515.46,103h2.13v8.13h4.23V113h-6.36Z"/><path class="30c067df-53d5-40e6-8820-1d79512a168e" d="M523.31,103h3.94c3.14,0,5.31,2,5.31,5s-2.17,5-5.31,5h-3.94Zm3.94,8.13a3,3,0,0,0,3.14-3.12,2.93,2.93,0,0,0-3.14-3.13h-1.81v6.25Z"/><path class="30c067df-53d5-40e6-8820-1d79512a168e" d="M538.4,110a4.39,4.39,0,0,0,3.18,1.35c1.17,0,1.74-.56,1.74-1.12,0-.75-.87-1-2-1.28-1.63-.37-3.74-.83-3.74-3.06,0-1.67,1.44-3,3.79-3a5.56,5.56,0,0,1,3.9,1.39l-1.18,1.56a4.27,4.27,0,0,0-2.86-1.1c-1,0-1.47.42-1.47,1s.84.88,2,1.15c1.65.38,3.75.87,3.75,3.09,0,1.83-1.31,3.21-4,3.21a5.76,5.76,0,0,1-4.25-1.59Z"/><path class="30c067df-53d5-40e6-8820-1d79512a168e" d="M549.13,104.87H546.2V103h8v1.88h-2.91V113h-2.14Z"/><path class="30c067df-53d5-40e6-8820-1d79512a168e" d="M559.23,109.42h-1.56V113h-2.13V103h4.68a3.12,3.12,0,0,1,3.36,3.23,2.87,2.87,0,0,1-2.19,3l2.25,3.81H561.2Zm.68-4.59h-2.24v2.76h2.24a1.38,1.38,0,1,0,0-2.76Z"/><path class="30c067df-53d5-40e6-8820-1d79512a168e" d="M565.19,103h7.08v1.83h-5V107h4.84v1.83h-4.84v2.33h5V113h-7.08Z"/><path class="30c067df-53d5-40e6-8820-1d79512a168e" d="M573.93,103H581v1.83h-4.95V107h4.84v1.83h-4.84v2.33H581V113h-7.08Z"/><path class="30c067df-53d5-40e6-8820-1d79512a168e" d="M585,104.87h-2.92V103h8v1.88h-2.91V113H585Z"/></g></g></g></g></g><g data-name="Symbols"><g data-name="Footer Large"><g id="4dde1f2e-5e45-4cd4-a432-e8874b81b1fc" data-name="Map"><g id="50d8314d-7709-4b95-a505-e3cac04586c5" data-name="Tube-logo"><ellipse id="8edde136-1889-4263-9c3e-017d4998133d" data-name="Oval-2" class="79af2162-99d2-4a87-8cc8-51363492bb69" cx="479.53" cy="107.81" rx="9.59" ry="9.5"/><rect id="8dfaf58c-5a46-41d4-bc7f-ea79a9673824" data-name="Rectangle-22" class="a789a405-0606-4e31-acca-56cf5ff9de72" x="464.99" y="105.36" width="29.09" height="5.12"/></g></g></g></g></g></svg>
