<?xml version="1.0" encoding="utf-8"?>
<!-- Generator: Adobe Illustrator 20.0.0, SVG Export Plug-In . SVG Version: 6.00 Build 0)  -->
<svg version="1.1" id="Layer_1" xmlns="http://www.w3.org/2000/svg" xmlns:xlink="http://www.w3.org/1999/xlink" x="0px" y="0px"
	 viewBox="0 0 756 400" style="enable-background:new 0 0 756 400;" xml:space="preserve">
	<title>Map</title>
	<desc>This is a map of Old Street in London.</desc>
<style type="text/css">
	.st0{fill:none;stroke:#464646;stroke-miterlimit:10;}
	.st1{fill:none;stroke:url(#SVGID_1_);stroke-miterlimit:10;}
	.st2{fill:none;stroke:url(#SVGID_2_);stroke-miterlimit:10;}
	.st3{fill:none;stroke:url(#SVGID_3_);stroke-miterlimit:10;}
	.st4{fill:none;stroke:url(#SVGID_4_);stroke-miterlimit:10;}
	.st5{fill:none;stroke:url(#SVGID_5_);stroke-miterlimit:10;}
	.st6{fill:none;stroke:url(#SVGID_6_);stroke-miterlimit:10;}
	.st7{fill:#FC1D42;}
	.st8{enable-background:new    ;}
	.st9{fill:#999999;}
	.st10{fill:#CCCCCC;}
	.st11{fill:none;stroke:#F8F8F8;stroke-width:4;}
</style>
<path class="st0" d="M530.9,60.9c0,0-23.1,5.3-30.5,13.1s-37.3,54.7-37.3,54.7s2.1,22.1,4.7,26.8s51,41,51,41l17.3,4.2h11l14.7-5.8
	l31.5-64.1c0,0,6.3-19.4,5.8-21.5s-7.9-14.2-7.9-14.2L530.9,60.9z"/>
<polygon class="st0" points="443.1,148.7 433.1,156 445.7,156 "/>
<polygon class="st0" points="499.8,46.2 514,42 499.8,27.3 "/>
<polygon class="st0" points="531.1,221.2 552.4,221.2 535.1,248.5 535.1,230.1 "/>
<path class="st0" d="M371.1,177.6l15.8-2.1c0,0,45.7,0,52.6,2.1s25.8,8.4,25.8,8.4l38.9,27.9c0,0,5.8,11.6,6.8,21
	c1.1,9.5,3.2,137.7,3.2,137.7l-115.1,12.1L371.1,177.6z"/>
<linearGradient id="SVGID_1_" gradientUnits="userSpaceOnUse" x1="71.4004" y1="117.986" x2="386.6735" y2="117.986" gradientTransform="matrix(1 0 0 -1 0 402)">
	<stop  offset="0" style="stop-color:#212121"/>
	<stop  offset="1" style="stop-color:#464646"/>
</linearGradient>
<polygon class="st1" points="357.4,179.2 176.1,209.6 72,224.4 106.7,388.9 386.1,384.7 "/>
<linearGradient id="SVGID_2_" gradientUnits="userSpaceOnUse" x1="369.2675" y1="234.3433" x2="369.2675" y2="593.2276" gradientTransform="matrix(1 0 0 -1 0 402)">
	<stop  offset="0" style="stop-color:#464646"/>
	<stop  offset="1" style="stop-color:#212121"/>
</linearGradient>
<path class="st2" d="M295.4,167.1l90.7-11l28.1-11l28.4-25.2l32.1-50.5l4.2-37.8l3.7-25.2c0,0-34.2-127.7-43.1-141.9
	c0,0-23.1-54.1-25.8-55.2l-118.3,33.1l-39.4-6.3L295.4,167.1z"/>
<linearGradient id="SVGID_3_" gradientUnits="userSpaceOnUse" x1="299.3736" y1="474.5909" x2="1.6875" y2="302.7218" gradientTransform="matrix(1 0 0 -1 0 402)">
	<stop  offset="0" style="stop-color:#464646"/>
	<stop  offset="1" style="stop-color:#212121"/>
</linearGradient>
<polygon class="st3" points="284.7,168.6 63.4,204.9 0,-132.5 212.3,-186.7 244.4,-166.7 "/>
<linearGradient id="SVGID_4_" gradientUnits="userSpaceOnUse" x1="474.5925" y1="446.6602" x2="793.1067" y2="446.6602" gradientTransform="matrix(1 0 0 -1 0 402)">
	<stop  offset="0" style="stop-color:#464646"/>
	<stop  offset="1" style="stop-color:#212121"/>
</linearGradient>
<polygon class="st4" points="477.1,-122.9 475.1,-104.8 503.9,-0.3 541.8,41.1 599.2,73.4 792.5,-9.4 746.7,-162.7 578.4,-130 "/>
<linearGradient id="SVGID_5_" gradientUnits="userSpaceOnUse" x1="538.9954" y1="204.5585" x2="849.1227" y2="204.5585" gradientTransform="matrix(1 0 0 -1 0 402)">
	<stop  offset="0" style="stop-color:#464646"/>
	<stop  offset="1" style="stop-color:#212121"/>
</linearGradient>
<polygon class="st5" points="622.3,116.7 583.7,206.6 579.3,230.7 539.5,284 541.9,369.8 848.6,351.7 833.2,25.3 "/>
<linearGradient id="SVGID_6_" gradientUnits="userSpaceOnUse" x1="614.2" y1="351.7646" x2="812.6813" y2="351.7646" gradientTransform="matrix(1 0 0 -1 0 402)">
	<stop  offset="0" style="stop-color:#464646"/>
	<stop  offset="1" style="stop-color:#212121"/>
</linearGradient>
<polygon class="st6" points="614.7,89.5 614.7,95.1 811.8,9.1 807.8,5.2 "/>
<g id="Symbols">
	<g id="Footer" transform="translate(-684.000000, 0.000000)">
		<g id="Map" transform="translate(616.000000, 0.000000)">
			<g>
				<g transform="translate(37.000000, -224.000000)">
					<path id="Page-1-Copy-9" class="st7" d="M388.1,496c3.5,0,6.4,1.2,8.9,3.6s3.7,5.3,3.7,8.7c0,2.7-1,6-3.2,9.8
						c-2.1,3.8-4.2,6.9-6.3,9.4l-3.1,3.6c-0.4-0.4-0.8-0.9-1.4-1.5c-0.6-0.7-1.5-1.9-3-3.8s-2.7-3.7-3.8-5.5c-1.1-1.8-2.1-3.8-3-6
						s-1.4-4.2-1.4-5.9c0-3.4,1.2-6.3,3.7-8.7C381.7,497.2,384.7,496,388.1,496L388.1,496z M388.1,512.6c1.3,0,2.3-0.4,3.2-1.3
						c0.9-0.9,1.3-1.9,1.3-3.1s-0.4-2.2-1.3-3.1s-1.9-1.3-3.2-1.3s-2.3,0.4-3.2,1.3c-0.9,0.9-1.3,1.9-1.3,3.1s0.4,2.2,1.3,3.1
						C385.8,512.2,386.9,512.6,388.1,512.6L388.1,512.6z"/>
					<g class="st8">
						<g class="st8">
							<path class="st9" d="M223.9,414.7c2.8-0.4,5.1,1.2,5.6,4s-1.3,5.1-4.1,5.5c-2.8,0.4-5.1-1.2-5.6-4S221.1,415.1,223.9,414.7z
								 M224.1,416.4c-1.7,0.3-2.6,1.7-2.3,3.5c0.3,1.7,1.6,2.9,3.3,2.6c1.7-0.3,2.6-1.8,2.3-3.5
								C227.1,417.3,225.8,416.2,224.1,416.4z"/>
							<path class="st9" d="M239,412.4l2-0.3l1.2,7.5l3.9-0.6l0.3,1.7l-5.9,0.9L239,412.4z"/>
							<path class="st9" d="M255.1,409.9l3.6-0.6c2.9-0.5,5.2,1.1,5.6,3.8s-1.3,4.9-4.2,5.4l-3.6,0.6L255.1,409.9z M259.9,416.8
								c1.8-0.3,2.7-1.8,2.4-3.3c-0.3-1.6-1.5-2.7-3.4-2.4l-1.7,0.3l0.9,5.8L259.9,416.8z"/>
							<path class="st9" d="M287.8,411.3c0.8,0.6,1.9,1,3.1,0.8c1.1-0.2,1.5-0.8,1.4-1.3c-0.1-0.7-0.9-0.8-2.1-0.9
								c-1.6-0.1-3.6-0.2-3.9-2.3c-0.2-1.5,0.9-3,3.1-3.3c1.5-0.2,2.8,0,3.8,0.7l-0.9,1.6c-0.9-0.6-1.9-0.7-2.8-0.6
								c-0.9,0.1-1.3,0.6-1.2,1.2c0.1,0.6,0.9,0.7,2,0.8c1.6,0.1,3.6,0.3,3.9,2.3c0.3,1.7-0.7,3.2-3.2,3.5c-1.8,0.3-3.1-0.1-4.1-0.8
								L287.8,411.3z"/>
							<path class="st9" d="M305.8,403.6l-2.7,0.4l-0.3-1.7l7.4-1.2l0.3,1.7l-2.7,0.4l1.2,7.5l-2,0.3L305.8,403.6z"/>
							<path class="st9" d="M324.6,405l-1.4,0.2l0.5,3.3l-2,0.3l-1.5-9.2l4.3-0.7c1.9-0.3,3.3,0.8,3.6,2.5c0.3,1.6-0.6,2.7-1.6,3.1
								l2.6,3.2L327,408L324.6,405z M324.6,400.6l-2.1,0.3l0.4,2.5l2.1-0.3c0.8-0.1,1.3-0.7,1.2-1.5
								C326,400.9,325.4,400.5,324.6,400.6z"/>
							<path class="st9" d="M338.1,396.8l6.5-1l0.3,1.7l-4.6,0.7l0.3,2l4.5-0.7l0.3,1.7l-4.5,0.7l0.3,2.1l4.6-0.7l0.3,1.7l-6.5,1
								L338.1,396.8z"/>
							<path class="st9" d="M355,394.1l6.5-1l0.3,1.7l-4.6,0.7l0.3,2l4.5-0.7l0.3,1.7l-4.5,0.7l0.3,2.1l4.6-0.7l0.3,1.7l-6.5,1
								L355,394.1z"/>
							<path class="st9" d="M374.3,392.8l-2.7,0.4l-0.3-1.7l7.4-1.2l0.3,1.7l-2.7,0.4l1.2,7.5l-2,0.3L374.3,392.8z"/>
						</g>
					</g>
					<g class="st8">
						<g class="st8">
							<path class="st10" d="M550.7,354.7c2.8,0,4.9,2,4.9,4.8c0,2.8-2.1,4.8-4.9,4.8c-2.8,0-4.9-2-4.9-4.8
								C545.8,356.7,547.9,354.7,550.7,354.7z M550.7,356.5c-1.7,0-2.8,1.3-2.8,3.1c0,1.7,1.1,3.1,2.8,3.1c1.7,0,2.8-1.3,2.8-3.1
								C553.5,357.8,552.4,356.5,550.7,356.5z"/>
							<path class="st10" d="M557,354.8h2v7.6h4v1.8H557V354.8z"/>
							<path class="st10" d="M564.3,354.8h3.7c2.9,0,5,1.9,5,4.7c0,2.8-2,4.7-5,4.7h-3.7V354.8z M568,362.4c1.8,0,2.9-1.3,2.9-2.9
								c0-1.7-1-2.9-2.9-2.9h-1.7v5.8H568z"/>
							<path class="st10" d="M578.4,361.4c0.7,0.7,1.7,1.3,3,1.3c1.1,0,1.6-0.5,1.6-1.1c0-0.7-0.8-0.9-1.9-1.2
								c-1.5-0.3-3.5-0.8-3.5-2.9c0-1.6,1.3-2.8,3.5-2.8c1.5,0,2.7,0.4,3.6,1.3l-1.1,1.5c-0.8-0.7-1.8-1-2.7-1c-0.9,0-1.4,0.4-1.4,1
								c0,0.6,0.8,0.8,1.9,1.1c1.5,0.3,3.5,0.8,3.5,2.9c0,1.7-1.2,3-3.7,3c-1.8,0-3.1-0.6-4-1.5L578.4,361.4z"/>
							<path class="st10" d="M588.4,356.6h-2.7v-1.8h7.5v1.8h-2.7v7.6h-2V356.6z"/>
							<path class="st10" d="M597.8,360.8h-1.5v3.3h-2v-9.3h4.4c1.9,0,3.1,1.3,3.1,3c0,1.7-1,2.5-2,2.8l2.1,3.6h-2.3L597.8,360.8z
								 M598.4,356.5h-2.1v2.6h2.1c0.8,0,1.4-0.5,1.4-1.3C599.8,357.1,599.2,356.5,598.4,356.5z"/>
							<path class="st10" d="M603.4,354.8h6.6v1.7h-4.6v2h4.5v1.7h-4.5v2.2h4.6v1.7h-6.6V354.8z"/>
							<path class="st10" d="M611.5,354.8h6.6v1.7h-4.6v2h4.5v1.7h-4.5v2.2h4.6v1.7h-6.6V354.8z"/>
							<path class="st10" d="M621.9,356.6h-2.7v-1.8h7.5v1.8h-2.7v7.6h-2V356.6z"/>
						</g>
					</g>
					<g id="Tueb-logo" transform="translate(494.000000, 322.000000)">
						<ellipse id="Oval-2" class="st11" cx="25.9" cy="36.7" rx="9.6" ry="9.5"/>
						<rect id="Rectangle-22" x="11.3" y="34.2" class="st7" width="29.1" height="5.1"/>
					</g>
				</g>
			</g>
		</g>
	</g>
</g>
</svg>
