<?xml version="1.0" encoding="utf-8"?>
<!-- Generator: Adobe Illustrator 20.0.0, SVG Export Plug-In . SVG Version: 6.00 Build 0)  -->
<svg version="1.1" id="Layer_1" xmlns="http://www.w3.org/2000/svg" xmlns:xlink="http://www.w3.org/1999/xlink" x="0px" y="0px"
	 viewBox="0 0 756 400" style="enable-background:new 0 0 756 400;" xml:space="preserve">
	 <title>Map</title>
	 <desc>This is a map of Old Street in London.</desc>
<style type="text/css">
	.st0{fill:none;stroke:#464646;stroke-miterlimit:10;}
	.st1{fill:none;stroke:url(#SVGID_1_);stroke-miterlimit:10;}
	.st2{fill:none;stroke:url(#SVGID_2_);stroke-miterlimit:10;}
	.st3{fill:none;stroke:url(#SVGID_3_);stroke-miterlimit:10;}
	.st4{fill:none;stroke:url(#SVGID_4_);stroke-miterlimit:10;}
	.st5{fill:none;stroke:url(#SVGID_5_);stroke-miterlimit:10;}
	.st6{fill:none;stroke:url(#SVGID_6_);stroke-miterlimit:10;}
	.st7{filter:url(#Adobe_OpacityMaskFilter);}
	.st8{fill:#FFFFFF;}
	.st9{mask:url(#mask-2_1_);}
	.st10{fill:#FC1D42;}
	.st11{enable-background:new    ;}
	.st12{fill:#999999;}
	.st13{font-family:'ProximaNova-Bold';}
	.st14{font-size:14px;}
	.st15{letter-spacing:9;}
	.st16{fill:#CCCCCC;}
	.st17{fill:none;stroke:#F8F8F8;stroke-width:4;}
</style>
<path class="st0" d="M530.9,60.9c0,0-23.1,5.3-30.5,13.1s-37.3,54.7-37.3,54.7s2.1,22.1,4.7,26.8s51,41,51,41l17.3,4.2h11l14.7-5.8
	l31.5-64.1c0,0,6.3-19.4,5.8-21.5c-0.5-2.1-7.9-14.2-7.9-14.2L530.9,60.9z"/>
<polygon class="st0" points="443.1,148.7 433.1,156 445.7,156 "/>
<polygon class="st0" points="499.8,46.2 514,42 499.8,27.3 "/>
<polygon class="st0" points="531.1,221.2 552.4,221.2 535.1,248.5 535.1,230.1 "/>
<path class="st0" d="M371.1,177.6l15.8-2.1c0,0,45.7,0,52.6,2.1s25.8,8.4,25.8,8.4l38.9,27.9c0,0,5.8,11.6,6.8,21
	c1.1,9.5,3.2,137.7,3.2,137.7l-115.1,12.1L371.1,177.6z"/>
<linearGradient id="SVGID_1_" gradientUnits="userSpaceOnUse" x1="71.4072" y1="283.9742" x2="386.6245" y2="283.9742">
	<stop  offset="0" style="stop-color:#212121"/>
	<stop  offset="1" style="stop-color:#464646"/>
</linearGradient>
<polygon class="st1" points="357.4,179.2 176.1,209.6 72,224.4 106.7,388.9 386.1,384.7 "/>
<linearGradient id="SVGID_2_" gradientUnits="userSpaceOnUse" x1="369.1995" y1="167.6218" x2="369.1995" y2="-191.3941">
	<stop  offset="0" style="stop-color:#464646"/>
	<stop  offset="1" style="stop-color:#212121"/>
</linearGradient>
<path class="st2" d="M295.4,167.1l90.7-11l28.1-11l28.4-25.2l32.1-50.5l4.2-37.8l3.7-25.2c0,0-34.2-127.7-43.1-141.9
	c0,0-23.1-54.1-25.8-55.2l-118.3,33.1l-39.4-6.3L295.4,167.1z"/>
<linearGradient id="SVGID_3_" gradientUnits="userSpaceOnUse" x1="299.3672" y1="-72.5961" x2="1.6631" y2="99.2834">
	<stop  offset="0" style="stop-color:#464646"/>
	<stop  offset="1" style="stop-color:#212121"/>
</linearGradient>
<polygon class="st3" points="284.7,168.6 63.4,204.9 0,-132.5 212.3,-186.7 244.4,-166.7 "/>
<linearGradient id="SVGID_4_" gradientUnits="userSpaceOnUse" x1="474.6326" y1="-44.6954" x2="793.0758" y2="-44.6954">
	<stop  offset="0" style="stop-color:#464646"/>
	<stop  offset="1" style="stop-color:#212121"/>
</linearGradient>
<polygon class="st4" points="477.1,-122.9 475.1,-104.8 503.9,-0.3 541.8,41.1 599.2,73.4 792.5,-9.4 746.7,-162.7 578.4,-130 "/>
<linearGradient id="SVGID_5_" gradientUnits="userSpaceOnUse" x1="539.0211" y1="197.4409" x2="849.0995" y2="197.4409">
	<stop  offset="0" style="stop-color:#464646"/>
	<stop  offset="1" style="stop-color:#212121"/>
</linearGradient>
<polygon class="st5" points="622.3,116.7 583.7,206.6 579.3,230.7 539.5,284 541.9,369.8 848.6,351.7 833.2,25.3 "/>
<linearGradient id="SVGID_6_" gradientUnits="userSpaceOnUse" x1="614.186" y1="50.2039" x2="812.6575" y2="50.2039">
	<stop  offset="0" style="stop-color:#464646"/>
	<stop  offset="1" style="stop-color:#212121"/>
</linearGradient>
<polygon class="st6" points="614.7,89.5 614.7,95.1 811.8,9.1 807.8,5.2 "/>
<g id="Symbols">
	<g id="Footer" transform="translate(-684.000000, 0.000000)">
		<g id="Map" transform="translate(616.000000, 0.000000)">
			<defs>
				<filter id="Adobe_OpacityMaskFilter" filterUnits="userSpaceOnUse" x="255.2" y="123.2" width="408.8" height="183.8">
					<feColorMatrix  type="matrix" values="1 0 0 0 0  0 1 0 0 0  0 0 1 0 0  0 0 0 1 0"/>
				</filter>
			</defs>
			<mask maskUnits="userSpaceOnUse" x="255.2" y="123.2" width="408.8" height="183.8" id="mask-2_1_">
				<g class="st7">
					<rect id="path-1_1_" x="17.3" y="26" class="st8" width="824" height="499"/>
				</g>
			</mask>
			<g class="st9">
				<g transform="translate(37.000000, -224.000000)">
					<path id="Page-1-Copy-9" class="st10" d="M388.1,496c3.5,0,6.4,1.2,8.9,3.6c2.5,2.4,3.7,5.3,3.7,8.7c0,2.7-1,6-3.2,9.8
						c-2.1,3.8-4.2,6.9-6.3,9.4l-3.1,3.6c-0.4-0.4-0.8-0.9-1.4-1.5c-0.6-0.7-1.5-1.9-3-3.8s-2.7-3.7-3.8-5.5c-1.1-1.8-2.1-3.8-3-6
						c-0.9-2.2-1.4-4.2-1.4-5.9c0-3.4,1.2-6.3,3.7-8.7C381.7,497.2,384.7,496,388.1,496L388.1,496z M388.1,512.6
						c1.3,0,2.3-0.4,3.2-1.3c0.9-0.9,1.3-1.9,1.3-3.1s-0.4-2.2-1.3-3.1c-0.9-0.9-1.9-1.3-3.2-1.3s-2.3,0.4-3.2,1.3
						c-0.9,0.9-1.3,1.9-1.3,3.1s0.4,2.2,1.3,3.1C385.8,512.2,386.9,512.6,388.1,512.6L388.1,512.6z"/>
					<g class="st11">
						<text transform="matrix(0.9877 -0.1564 0.1564 0.9877 220.0501 424.9022)" class="st12 st13 st14 st15">OLD STREET</text>
					</g>
					<g class="st11">
						<text transform="matrix(1 0 0 1 545.3275 364.1824)" class="st16 st13 st14">OLD STREET</text>
					</g>
					<g id="Tueb-logo" transform="translate(494.000000, 322.000000)">
						<ellipse id="Oval-2" class="st17" cx="25.9" cy="36.7" rx="9.6" ry="9.5"/>
						<rect id="Rectangle-22" x="11.3" y="34.2" class="st10" width="29.1" height="5.1"/>
					</g>
				</g>
			</g>
		</g>
	</g>
</g>
</svg>
