<?xml version="1.0" encoding="UTF-8"?>
<svg width="873px" height="723px" viewBox="0 0 873 723" version="1.1" xmlns="http://www.w3.org/2000/svg" xmlns:xlink="http://www.w3.org/1999/xlink">
    <!-- Generator: Sketch 46.2 (44496) - http://www.bohemiancoding.com/sketch -->
    <title>Artboard</title>
    <desc>Created with Sketch.</desc>
    <defs></defs>
    <g id="Page-1" stroke="none" stroke-width="1" fill="none" fill-rule="evenodd">
        <g id="Artboard">
            <g id="map" transform="translate(-2.378052, 1.000000)">
                <g id="Mallow-St" transform="translate(97.587471, 258.766784)" fill="#91928E">
                    <polyline id="Fill-1" points="13.8654537 16.4776185 0.471462198 11.2683127 0.468673526 9.54117809 13.8347783 4.25932708 0.454730166 4.2955997 0.443575478 0.336304088 19.0328629 0.286080465 19.0468062 5.838581 7.46824019 10.3866091 19.0719043 14.8732527 19.0858476 20.4508651 0.496560246 20.5010887 0.485405558 16.5111009 13.8654537 16.4776185"></polyline>
                    <path d="M7.18937299,42.727832 L7.20331635,48.8913867 L15.7227092,45.8026338 L7.18937299,42.727832 Z M3.77882716,49.9879358 L3.75651779,41.6759262 L0.549545013,40.5124122 L0.538390325,36.1624884 L19.1471984,43.3109841 L19.1611418,48.2747522 L0.585797749,55.4902127 L0.574643061,51.1654007 L3.77882716,49.9879358 L3.77882716,49.9879358 Z" id="Fill-2"></path>
                    <polyline id="Fill-3" points="19.2169152 71.132081 19.2280699 75.0885864 4.12183382 75.1304394 4.14414319 82.9960168 0.661091892 83.0015972 0.627627829 71.1795144 19.2169152 71.132081"></polyline>
                    <polyline id="Fill-4" points="19.2894207 99.67584 19.3005754 103.635136 4.19433929 103.674198 4.21664866 111.539776 0.733597364 111.545356 0.7001333 99.7204833 19.2894207 99.67584"></polyline>
                    <path d="M16.1800514,136.283281 C16.1716854,132.854123 13.5475451,130.658235 10.0644938,130.669396 C6.60932922,130.674976 3.96566819,132.887606 3.9740342,136.313973 C3.98518889,139.745921 6.63721594,141.969711 10.0923805,141.96134 C13.5782205,141.95018 16.1912061,139.715228 16.1800514,136.283281 Z M19.6937781,136.27491 C19.7105102,141.905536 15.7059772,146.018293 10.1035352,146.032244 C4.50388188,146.048985 0.477039542,141.95855 0.46030751,136.325134 C0.449152822,130.72241 4.45089711,126.609653 10.0533391,126.598492 C15.6557811,126.581751 19.6798348,130.669396 19.6937781,136.27491 L19.6937781,136.27491 Z" id="Fill-5"></path>
                    <polyline id="Fill-6" points="13.6563033 173.175322 0.884185651 169.974961 0.873030963 165.764547 19.448375 160.38783 19.4595297 164.821459 6.03207412 168.122267 19.4790504 171.62955 19.4874164 174.723884 6.05996084 178.27302 19.5013598 181.47059 19.5125145 185.934912 0.909283698 180.683754 0.900917682 176.47334 13.6563033 173.175322"></polyline>
                    <path d="M6.6511593,223.786783 C5.29307605,225.100968 4.15529788,227.140605 4.15808655,229.7048 C4.16645257,231.881157 5.20104987,232.938643 6.26074522,232.935853 C7.65508121,232.930272 8.1235781,231.311956 8.61996172,229.166291 C9.30876369,226.124972 10.1342106,222.21869 14.2865432,222.207529 C17.3819691,222.199158 19.8945625,224.872171 19.9085059,229.247207 C19.9140832,232.20482 19.0300742,234.660197 17.3345616,236.50452 L14.4287654,234.311422 C15.8175241,232.799133 16.45613,230.790188 16.4505526,228.976557 C16.447764,227.193619 15.6613585,226.24774 14.5486783,226.250531 C13.2937759,226.253321 12.9061505,227.813043 12.4097669,229.964289 C11.7237536,233.03351 10.8118579,236.939792 6.68741204,236.950953 C3.2880209,236.959323 0.716865332,234.540219 0.702921972,229.520647 C0.691767284,225.949189 1.88531889,223.382204 3.63660489,221.618797 L6.6511593,223.786783" id="Fill-7"></path>
                    <polyline id="Fill-8" points="16.2190929 257.662617 16.2023608 252.221724 19.6854121 252.213353 19.7272422 267.051644 16.2441909 267.060014 16.2274589 261.649814 1.12122277 261.688877 1.11285675 257.698889 16.2190929 257.662617"></polyline>
                </g>
                <g id="City-Road" transform="translate(699.040872, 257.218679)" fill="#91928E">
                    <path d="M12.097896,0.00501187684 C18.9524517,-0.00893912953 23.642998,5.16688423 23.6569413,11.693165 C23.668096,16.7797019 20.9965483,19.6312876 18.2246083,21.2077514 L16.2083985,17.1284771 C18.0126693,16.1881793 19.4488353,14.1792343 19.443258,11.7015356 C19.434892,7.82315585 16.3199454,4.8822837 12.106262,4.89065431 C7.88978998,4.89902491 4.78599807,7.84826766 4.79436408,11.7322278 C4.79994142,14.2099266 6.20822077,16.2105009 8.04874428,17.1452183 L6.08551921,21.2328632 C3.30521325,19.6312876 0.591835411,16.8243452 0.580680723,11.7405984 C0.566737363,5.21431765 5.2405516,0.0189628832 12.097896,0.00501187684" id="Fill-9"></path>
                    <polyline id="Fill-10" points="23.3473987 40.7977545 23.3557648 45.5494673 1.04638894 45.5941105 1.03802293 40.8423977 23.3473987 40.7977545"></polyline>
                    <polyline id="Fill-11" points="19.2257416 71.8750163 19.2145869 65.3487355 23.3975948 65.3403649 23.4310589 83.141849 19.2480509 83.1530098 19.2341076 76.6574213 1.10773973 76.6936939 1.09937371 71.9084987 19.2257416 71.8750163"></polyline>
                    <polyline id="Fill-12" points="10.3019912 109.191168 23.464523 100.563866 23.4756777 105.985227 14.5212519 111.557259 23.497987 117.026053 23.5091417 122.450205 10.3131459 113.942881 1.18303387 113.959622 1.17187918 109.205119 10.3019912 109.191168"></polyline>
                    <path d="M19.5324955,176.334572 L19.5213408,171.348482 L13.3695304,171.362433 L13.3806851,176.348523 C13.3834738,178.25702 14.5881801,179.691184 16.459379,179.685603 C18.3333665,179.682813 19.5352842,178.243069 19.5324955,176.334572 Z M9.29528065,174.850184 L9.28691464,171.370804 L1.29458075,171.387545 L1.28621473,166.633042 L23.5955906,166.591189 L23.6178999,177.032122 C23.6262659,181.680597 20.5866135,184.532183 16.4370696,184.540554 C12.4910987,184.546134 10.3800741,182.076806 9.80560762,179.666072 L1.32246747,184.705175 L1.31131278,179.250332 L9.29528065,174.850184 L9.29528065,174.850184 Z" id="Fill-13"></path>
                    <path d="M19.8420381,215.442033 C19.8336721,211.326486 16.6852614,208.689746 12.5050421,208.695326 C8.35828687,208.706487 5.18477816,211.354388 5.19314417,215.469935 C5.20151019,219.588272 8.38617359,222.258494 12.5329288,222.247334 C16.7131481,222.241753 19.8504041,219.554789 19.8420381,215.442033 Z M24.0585101,215.433662 C24.0724535,222.19432 19.264783,227.119025 12.5440835,227.135766 C5.82059537,227.146927 0.993404176,222.236173 0.982249488,215.478305 C0.968306128,208.75392 5.77318795,203.823635 12.4966761,203.812474 C19.2201642,203.795733 24.0445667,208.706487 24.0585101,215.433662 L24.0585101,215.433662 Z" id="Fill-14"></path>
                    <path d="M9.41240488,251.625363 L9.42913691,259.022186 L19.655197,255.322379 L9.41240488,251.625363 Z M5.31584574,260.336371 L5.29632504,250.361402 L1.44795771,248.963511 L1.43959169,243.743044 L23.7629109,252.334074 L23.7740656,258.291154 L1.48421044,266.935197 L1.47305576,261.745423 L5.31584574,260.336371 L5.31584574,260.336371 Z" id="Fill-15"></path>
                    <path d="M5.71741451,294.5554 C5.72856919,298.972288 8.91044392,301.544854 12.6918831,301.536483 C16.637854,301.528113 19.6747178,299.114588 19.6635631,294.527498 L19.6579857,290.478915 L5.71183716,290.506817 L5.71741451,294.5554 Z M23.829839,285.718832 L23.846571,294.519127 C23.8633031,301.514162 19.4209486,306.374692 12.7002491,306.388643 C5.976761,306.399804 1.55392724,301.558805 1.53719521,294.56377 L1.52046318,285.763475 L23.829839,285.718832 L23.829839,285.718832 Z" id="Fill-16"></path>
                </g>
                <g id="2-Old-Street-Yard" transform="translate(529.290129, 452.682064)" fill="#FC1D42">
                    <path d="M1.71909584,16.0227908 C9.32938167,10.4172764 11.5575306,8.49203752 11.5575306,6.20686268 C11.5575306,4.59133614 10.0795344,3.78217777 8.52066679,3.78217777 C6.42916281,3.78217777 4.81173306,4.61923815 3.55683068,5.92784255 L1.30358372,3.30784355 C3.11343183,1.2179828 5.87142842,0.269314366 8.46489336,0.269314366 C12.4220189,0.269314366 15.5732182,2.49868518 15.5732182,6.20686268 C15.5732182,9.38769213 12.9490779,12.1472012 7.9629324,15.6600646 L15.7126518,15.6600646 L15.7126518,19.1478162 L1.71909584,19.1478162 L1.71909584,16.0227908" id="Fill-18"></path>
                    <path d="M36.3209377,3.75148556 C32.8936599,3.75148556 30.690609,6.37148455 30.690609,9.85923614 C30.690609,13.3190857 32.8936599,15.9697769 36.3209377,15.9697769 C39.7482156,15.9697769 41.9791532,13.3190857 41.9791532,9.85923614 C41.9791532,6.37148455 39.7482156,3.75148556 36.3209377,3.75148556 Z M36.3209377,0.238622152 C41.9512665,0.238622152 46.0478256,4.25651199 46.0478256,9.85923614 C46.0478256,15.4647505 41.9512665,19.4826403 36.3209377,19.4826403 C30.7157071,19.4826403 26.6219366,15.4647505 26.6219366,9.85923614 C26.6219366,4.25651199 30.7157071,0.238622152 36.3209377,0.238622152 L36.3209377,0.238622152 Z" id="Fill-19"></path>
                    <polyline id="Fill-20" points="49.5420316 0.548334493 53.5019458 0.548334493 53.5019458 15.6600646 61.3632121 15.6600646 61.3632121 19.1478162 49.5420316 19.1478162 49.5420316 0.548334493"></polyline>
                    <path d="M72.1553726,15.6600646 C75.833631,15.6600646 77.9809084,13.0093734 77.9809084,9.85923614 C77.9809084,6.56958884 75.9730646,4.03329588 72.1553726,4.03329588 L68.7838682,4.03329588 L68.7838682,15.6600646 L72.1553726,15.6600646 Z M64.823954,0.548334493 L72.1553726,0.548334493 C77.9809084,0.548334493 82.0216941,4.25651199 82.0216941,9.85923614 C82.0216941,15.4647505 77.9809084,19.1478162 72.1553726,19.1478162 L64.823954,19.1478162 L64.823954,0.548334493 L64.823954,0.548334493 Z" id="Fill-21"></path>
                    <path d="M3.14131855,49.7842262 C4.45199438,51.1514248 6.48493625,52.2954073 9.05051447,52.2954073 C11.2228899,52.2954073 12.2825853,51.2630328 12.2825853,50.2027564 C12.2825853,48.8076557 10.6651555,48.3361117 8.52066679,47.8338755 C5.48380301,47.1363252 1.57966224,46.302055 1.57966224,42.1446551 C1.57966224,39.0475317 4.25399867,36.5419309 8.63221367,36.5419309 C11.5854173,36.5419309 14.0394486,37.4320051 15.8771835,39.1340279 L13.6769213,42.0358372 C12.1710384,40.6407366 10.1631946,39.9962001 8.35334648,39.9962001 C6.56859641,39.9962001 5.62044794,40.7774565 5.62044794,41.893537 C5.62044794,43.1491275 7.18210425,43.5397557 9.32938167,44.0392017 C12.3941322,44.7367521 16.2982729,45.6603087 16.2982729,49.7842262 C16.2982729,53.1882717 13.8693396,55.7552569 8.85530743,55.7552569 C5.2858073,55.7552569 2.72022908,54.5526801 0.96894308,52.7976435 L3.14131855,49.7842262" id="Fill-22"></path>
                    <polyline id="Fill-23" points="23.7747025 40.3059124 18.3395808 40.3059124 18.3395808 36.8209511 33.1669497 36.8209511 33.1669497 40.3059124 27.7597148 40.3059124 27.7597148 55.4204327 23.7747025 55.4204327 23.7747025 40.3059124"></polyline>
                    <path d="M44.522422,40.2194162 L40.3673008,40.2194162 L40.3673008,45.3533865 L44.522422,45.3533865 C46.1091764,45.3533865 47.3083053,44.3489141 47.3083053,42.7864014 C47.3083053,41.2238887 46.1091764,40.2194162 44.522422,40.2194162 Z M43.264731,48.7546419 L40.3673008,48.7546419 L40.3673008,55.4204327 L36.4073866,55.4204327 L36.4073866,36.8209511 L45.1080431,36.8209511 C48.9787198,36.8209511 51.349091,39.357244 51.349091,42.8143034 C51.349091,46.1067409 49.2882624,47.8617775 47.2804186,48.3361117 L51.4606379,55.4204327 L46.9178913,55.4204327 L43.264731,48.7546419 L43.264731,48.7546419 Z" id="Fill-24"></path>
                    <polyline id="Fill-25" points="55.0357154 36.8209511 68.1926698 36.8209511 68.1926698 40.2194162 58.9956296 40.2194162 58.9956296 44.2652081 67.9974627 44.2652081 67.9974627 47.6664634 58.9956296 47.6664634 58.9956296 51.9884852 68.1926698 51.9884852 68.1926698 55.4204327 55.0357154 55.4204327 55.0357154 36.8209511"></polyline>
                    <polyline id="Fill-26" points="71.990841 36.8209511 85.1477954 36.8209511 85.1477954 40.2194162 75.9507552 40.2194162 75.9507552 44.2652081 84.9525883 44.2652081 84.9525883 47.6664634 75.9507552 47.6664634 75.9507552 51.9884852 85.1477954 51.9884852 85.1477954 55.4204327 71.990841 55.4204327 71.990841 36.8209511"></polyline>
                    <polyline id="Fill-27" points="93.2405215 40.3059124 87.8053998 40.3059124 87.8053998 36.8209511 102.635557 36.8209511 102.635557 40.3059124 97.2255337 40.3059124 97.2255337 55.4204327 93.2405215 55.4204327 93.2405215 40.3059124"></polyline>
                    <polyline id="Fill-28" points="7.43308472 84.07859 0.271775086 73.0935676 4.78663502 73.0935676 9.41304183 80.5629364 13.9808865 73.0935676 18.4985351 73.0935676 11.3902103 84.07859 11.3902103 91.6930493 7.43308472 91.6930493 7.43308472 84.07859"></polyline>
                    <path d="M23.6631556,85.0551605 L29.823332,85.0551605 L26.7585815,76.5199348 L23.6631556,85.0551605 Z M30.9109141,88.4843178 L22.6034603,88.4843178 L21.432218,91.6930493 L17.0874671,91.6930493 L24.2766635,73.0935676 L29.2377109,73.0935676 L36.4018092,91.6930493 L32.0821563,91.6930493 L30.9109141,88.4843178 L30.9109141,88.4843178 Z" id="Fill-29"></path>
                    <path d="M46.9485666,76.4920328 L42.7962341,76.4920328 L42.7962341,81.6260031 L46.9485666,81.6260031 C48.535321,81.6260031 49.7344499,80.6215306 49.7344499,79.0590179 C49.7344499,77.4965052 48.535321,76.4920328 46.9485666,76.4920328 Z M45.6936643,85.0272585 L42.7962341,85.0272585 L42.7962341,91.6930493 L38.8363199,91.6930493 L38.8363199,73.0935676 L47.5341878,73.0935676 C51.4048645,73.0935676 53.7752356,75.6298606 53.7752356,79.0869199 C53.7752356,82.3793574 51.7144071,84.1343941 49.7065632,84.6087283 L53.8867825,91.6930493 L49.3440359,91.6930493 L45.6936643,85.0272585 L45.6936643,85.0272585 Z" id="Fill-30"></path>
                    <path d="M64.7932786,88.2052977 C68.4743256,88.2052977 70.6188144,85.5546065 70.6188144,82.4044693 C70.6188144,79.114822 68.6109706,76.578529 64.7932786,76.578529 L61.4217742,76.578529 L61.4217742,88.2052977 L64.7932786,88.2052977 Z M57.46186,73.0935676 L64.7932786,73.0935676 C70.6188144,73.0935676 74.6596001,76.8017451 74.6596001,82.4044693 C74.6596001,88.0099836 70.6188144,91.6930493 64.7932786,91.6930493 L57.46186,91.6930493 L57.46186,73.0935676 L57.46186,73.0935676 Z" id="Fill-31"></path>
                </g>
                <g id="Old-Street" transform="translate(672.553989, 0.000000)">
                    <path d="M23.5851977,35.3429495 C21.2032071,35.3429495 19.6733106,37.1623933 19.6733106,39.584443 C19.6733106,41.9851787 21.2032071,43.8259365 23.5851977,43.8259365 C25.9633152,43.8259365 27.5125774,41.9851787 27.5125774,39.584443 C27.5125774,37.1623933 25.9633152,35.3429495 23.5851977,35.3429495 Z M23.5851977,32.9034611 C27.4932116,32.9034611 30.3380444,35.6917247 30.3380444,39.584443 C30.3380444,43.4771613 27.4932116,46.265425 23.5851977,46.265425 C19.6926764,46.265425 16.8478437,43.4771613 16.8478437,39.584443 C16.8478437,35.6917247 19.6926764,32.9034611 23.5851977,32.9034611 L23.5851977,32.9034611 Z" id="Fill-37" fill="#91928E"></path>
                    <polyline id="Fill-38" fill="#91928E" points="33.2506573 33.1166015 36.0005977 33.1166015 36.0005977 43.6127961 41.4578739 43.6127961 41.4578739 46.0329082 33.2506573 46.0329082 33.2506573 33.1166015"></polyline>
                    <path d="M49.4365743,43.6127961 C51.9928569,43.6127961 53.4820852,41.7720383 53.4820852,39.584443 C53.4820852,37.2999657 52.0877492,35.5367135 49.4365743,35.5367135 L47.0952517,35.5367135 L47.0952517,43.6127961 L49.4365743,43.6127961 Z M44.3453113,33.1166015 L49.4365743,33.1166015 C53.4820852,33.1166015 56.2881864,35.6917247 56.2881864,39.584443 C56.2881864,43.4771613 53.4820852,46.0329082 49.4365743,46.0329082 L44.3453113,46.0329082 L44.3453113,33.1166015 L44.3453113,33.1166015 Z" id="Fill-39" fill="#91928E"></path>
                    <path d="M1.52951358,65.5662547 C2.43970513,66.5156982 3.85147031,67.3101305 5.63312185,67.3101305 C7.14171593,67.3101305 7.87761548,66.5932038 7.87761548,65.8569007 C7.87761548,64.8900185 6.75440038,64.5606197 5.26517208,64.2099069 C3.1562389,63.7274346 0.44503003,63.1461427 0.44503003,60.260997 C0.44503003,58.1102169 2.3022081,56.3682787 5.34263519,56.3682787 C7.39347104,56.3682787 9.09765947,56.9883235 10.3738642,58.1683461 L8.84590436,60.1834914 C7.80015237,59.2146716 6.40775296,58.7690144 5.14897741,58.7690144 C3.90956765,58.7690144 3.25306779,59.3115535 3.25306779,60.0866095 C3.25306779,60.9585474 4.33561475,61.2278793 5.82677963,61.5785921 C7.95507859,62.0610644 10.6662875,62.7004855 10.6662875,65.5662547 C10.6662875,67.9282376 8.98146481,69.7108662 5.49756141,69.7108662 C3.01874188,69.7108662 1.23902691,68.8776811 0.0209195003,67.6589057 L1.52951358,65.5662547" id="Fill-40" fill="#91928E"></path>
                    <polyline id="Fill-41" fill="#91928E" points="16.3423969 58.9821548 12.5680068 58.9821548 12.5680068 56.5620427 22.8667274 56.5620427 22.8667274 58.9821548 19.1097665 58.9821548 19.1097665 69.4783494 16.3423969 69.4783494 16.3423969 58.9821548"></polyline>
                    <path d="M31.2346799,58.9240256 L28.3511156,58.9240256 L28.3511156,62.4873451 L31.2346799,62.4873451 C32.3365926,62.4873451 33.1693211,61.7897948 33.1693211,60.7066542 C33.1693211,59.6215759 32.3365926,58.9240256 31.2346799,58.9240256 Z M30.3632199,64.849328 L28.3511156,64.849328 L28.3511156,69.4783494 L25.6011752,69.4783494 L25.6011752,56.5620427 L31.6413612,56.5620427 C34.3293311,56.5620427 35.9754222,58.3233573 35.9754222,60.7260306 C35.9754222,63.0105079 34.5442913,64.2312209 33.1499553,64.5606197 L36.0528853,69.4783494 L32.8982002,69.4783494 L30.3632199,64.849328 L30.3632199,64.849328 Z" id="Fill-42" fill="#91928E"></path>
                    <polyline id="Fill-43" fill="#91928E" points="39.0197225 56.5620427 48.1564964 56.5620427 48.1564964 58.9240256 41.7696629 58.9240256 41.7696629 61.7316656 48.0209359 61.7316656 48.0209359 64.0955861 41.7696629 64.0955861 41.7696629 67.0969902 48.1564964 67.0969902 48.1564964 69.4783494 39.0197225 69.4783494 39.0197225 56.5620427"></polyline>
                    <polyline id="Fill-44" fill="#91928E" points="51.2782597 56.5620427 60.4150336 56.5620427 60.4150336 58.9240256 54.0282001 58.9240256 54.0282001 61.7316656 60.2794731 61.7316656 60.2794731 64.0955861 54.0282001 64.0955861 54.0282001 67.0969902 60.4150336 67.0969902 60.4150336 69.4783494 51.2782597 69.4783494 51.2782597 56.5620427"></polyline>
                    <polyline id="Fill-45" fill="#91928E" points="66.5210633 58.9821548 62.7447366 58.9821548 62.7447366 56.5620427 73.0434572 56.5620427 73.0434572 58.9821548 69.2864963 58.9821548 69.2864963 69.4783494 66.5210633 69.4783494 66.5210633 58.9821548"></polyline>
                    <path d="M36.9727598,0.0798433131 C43.5358218,0.0798433131 48.8556009,5.35409878 48.8556009,11.8606931 C48.8556009,18.3672875 43.5358218,23.641543 36.9727598,23.641543 C30.4058246,23.641543 25.0860455,18.3672875 25.0860455,11.8606931 C25.0860455,5.35409878 30.4058246,0.0798433131 36.9727598,0.0798433131 Z" id="Stroke-63" stroke="#FBFAF8" stroke-width="3.696"></path>
                    <polygon id="Fill-65" fill="#FC1D42" points="18.9993816 14.9609168 54.9422648 14.9609168 54.9422648 8.7604695 18.9993816 8.7604695"></polygon>
                </g>
                <g id="Featherstone-St" transform="translate(183.007115, 652.793243)" fill="#91928E">
                    <polyline id="Fill-46" points="0.745900895 0.91314823 13.9028553 0.91314823 13.9028553 4.31440358 4.7058151 4.31440358 4.7058151 8.36019543 13.7076482 8.36019543 13.7076482 11.7586606 4.7058151 11.7586606 4.7058151 19.5154201 0.745900895 19.5154201 0.745900895 0.91314823"></polyline>
                    <polyline id="Fill-47" points="35.2417733 0.91314823 48.3987276 0.91314823 48.3987276 4.31440358 39.2016875 4.31440358 39.2016875 8.36019543 48.2035206 8.36019543 48.2035206 11.7586606 39.2016875 11.7586606 39.2016875 16.0806824 48.3987276 16.0806824 48.3987276 19.5154201 35.2417733 19.5154201 35.2417733 0.91314823"></polyline>
                    <path d="M74.673595,12.8775313 L80.8337714,12.8775313 L77.7690209,4.3423056 L74.673595,12.8775313 Z M81.9213535,16.3038985 L73.6138997,16.3038985 L72.4426574,19.5154201 L68.0979065,19.5154201 L75.2871028,0.91314823 L80.2481503,0.91314823 L87.4122486,19.5154201 L83.0925957,19.5154201 L81.9213535,16.3038985 L81.9213535,16.3038985 Z" id="Fill-48"></path>
                    <polyline id="Fill-49" points="110.229163 4.39810962 104.794041 4.39810962 104.794041 0.91314823 119.62141 0.91314823 119.62141 4.39810962 114.214175 4.39810962 114.214175 19.5154201 110.229163 19.5154201 110.229163 4.39810962"></polyline>
                    <polyline id="Fill-50" points="153.478676 11.7056468 144.697148 11.7056468 144.697148 19.5154201 140.740023 19.5154201 140.740023 0.91314823 144.697148 0.91314823 144.697148 8.21789516 153.478676 8.21789516 153.478676 0.91314823 157.463689 0.91314823 157.463689 19.5154201 153.478676 19.5154201 153.478676 11.7056468"></polyline>
                    <polyline id="Fill-51" points="179.694982 0.91314823 192.851936 0.91314823 192.851936 4.31440358 183.654896 4.31440358 183.654896 8.36019543 192.656729 8.36019543 192.656729 11.7586606 183.654896 11.7586606 183.654896 16.0806824 192.851936 16.0806824 192.851936 19.5154201 179.694982 19.5154201 179.694982 0.91314823"></polyline>
                    <path d="M222.637741,4.31440358 L218.48262,4.31440358 L218.48262,9.44558373 L222.637741,9.44558373 C224.224496,9.44558373 225.423625,8.44111127 225.423625,6.88138875 C225.423625,5.31887604 224.224496,4.31440358 222.637741,4.31440358 Z M221.382839,12.8496293 L218.48262,12.8496293 L218.48262,19.5154201 L214.525495,19.5154201 L214.525495,0.91314823 L223.223363,0.91314823 C227.094039,0.91314823 229.46441,3.44944119 229.46441,6.90929077 C229.46441,10.1989381 227.403582,11.9567649 225.395738,12.4310991 L229.575957,19.5154201 L225.033211,19.5154201 L221.382839,12.8496293 L221.382839,12.8496293 Z" id="Fill-52"></path>
                    <path d="M251.921586,13.8792135 C253.229473,15.2464122 255.265204,16.3903947 257.830782,16.3903947 C260.003157,16.3903947 261.062853,15.35523 261.062853,14.3005339 C261.062853,12.9054333 259.445423,12.4310991 257.298145,11.9288629 C254.26407,11.2313125 250.35993,10.3942522 250.35993,6.23964246 C250.35993,3.14530925 253.034266,0.634128103 257.409692,0.634128103 C260.365685,0.634128103 262.819716,1.52420231 264.657451,3.22622509 L262.457189,6.12803441 C260.951306,4.73572398 258.943462,4.09118748 257.133614,4.09118748 C255.348864,4.09118748 254.400715,4.87244384 254.400715,5.98852435 C254.400715,7.24132472 255.962372,7.6347431 258.10686,8.13697933 C261.1744,8.83452965 265.075752,9.75529607 265.075752,13.8792135 C265.075752,17.2832591 262.649607,19.8474541 257.635575,19.8474541 C254.066075,19.8474541 251.500496,18.6476675 249.746422,16.8926309 L251.921586,13.8792135" id="Fill-53"></path>
                    <polyline id="Fill-54" points="290.433146 4.39810962 284.998024 4.39810962 284.998024 0.91314823 299.825393 0.91314823 299.825393 4.39810962 294.418158 4.39810962 294.418158 19.5154201 290.433146 19.5154201 290.433146 4.39810962"></polyline>
                    <path d="M329.081351,4.11908949 C325.651284,4.11908949 323.448233,6.74187869 323.448233,10.2296303 C323.448233,13.6838995 325.651284,16.3345907 329.081351,16.3345907 C332.50584,16.3345907 334.736778,13.6838995 334.736778,10.2296303 C334.736778,6.74187869 332.50584,4.11908949 329.081351,4.11908949 Z M329.081351,0.603435889 C334.708891,0.603435889 338.80545,4.62132572 338.80545,10.2296303 C338.80545,15.8295642 334.708891,19.8474541 329.081351,19.8474541 C323.47612,19.8474541 319.379561,15.8295642 319.379561,10.2296303 C319.379561,4.62132572 323.47612,0.603435889 329.081351,0.603435889 L329.081351,0.603435889 Z" id="Fill-55"></path>
                    <polyline id="Fill-56" points="364.137746 7.01810862 364.137746 19.5154201 360.177832 19.5154201 360.177832 0.91314823 364.249293 0.91314823 372.860712 12.9584471 372.860712 0.91314823 376.817838 0.91314823 376.817838 19.5154201 373.000146 19.5154201 364.137746 7.01810862"></polyline>
                    <polyline id="Fill-57" points="399.077017 0.91314823 412.233972 0.91314823 412.233972 4.31440358 403.036932 4.31440358 403.036932 8.36019543 412.038765 8.36019543 412.038765 11.7586606 403.036932 11.7586606 403.036932 16.0806824 412.233972 16.0806824 412.233972 19.5154201 399.077017 19.5154201 399.077017 0.91314823"></polyline>
                    <path d="M460.51425,13.8792135 C461.822137,15.2464122 463.857868,16.3903947 466.423446,16.3903947 C468.595821,16.3903947 469.655517,15.35523 469.655517,14.3005339 C469.655517,12.9054333 468.038087,12.4310991 465.890809,11.9288629 C462.853946,11.2313125 458.952593,10.3942522 458.952593,6.23964246 C458.952593,3.14530925 461.62693,0.634128103 466.002356,0.634128103 C468.958349,0.634128103 471.41238,1.52420231 473.250115,3.22622509 L471.049853,6.12803441 C469.54397,4.73572398 467.536126,4.09118748 465.726278,4.09118748 C463.941528,4.09118748 462.993379,4.87244384 462.993379,5.98852435 C462.993379,7.24132472 464.555035,7.6347431 466.699524,8.13697933 C469.767063,8.83452965 473.668416,9.75529607 473.668416,13.8792135 C473.668416,17.2832591 471.242271,19.8474541 466.22545,19.8474541 C462.658739,19.8474541 460.09316,18.6476675 458.339086,16.8926309 L460.51425,13.8792135" id="Fill-58"></path>
                    <polyline id="Fill-59" points="499.02581 4.39810962 493.590688 4.39810962 493.590688 0.91314823 508.418057 0.91314823 508.418057 4.39810962 503.010822 4.39810962 503.010822 19.5154201 499.02581 19.5154201 499.02581 4.39810962"></polyline>
                </g>
                <g id="Road-outline" transform="translate(0.000000, 81.112439)" stroke="#4F4F4C" stroke-width="1.5">
                    <path d="M0.9158029,599.427699 L687.409547,599.427699 L0.9158029,599.427699 Z M732.903848,640.92028 L732.903848,598.870026 L873.738408,598.870026 M687.409547,598.870026 L687.409547,640.92028 L687.409547,598.870026 Z M874.492189,560.773764 L732.533293,560.773764 L874.492189,560.773764 Z M88.2745393,560.773764 L2,560.773764 L88.2745393,560.773764 Z M734.840426,0.400590695 L732.903848,560.773764 L734.840426,0.400590695 Z M88.2745393,10.7534 L88.2745393,560.773764 L88.2745393,10.7534 Z" id="Stroke-60"></path>
                </g>
                <g id="White-Collar-Factory" transform="translate(339.614999, 93.274060)" fill="#91928E">
                    <polyline id="Fill-66" points="12.2877592 6.20707567 9.3763857 17.7138657 5.58658048 17.7138657 0.790064681 0.958707076 4.78344295 0.958707076 7.72270322 13.0653904 10.9073666 0.958707076 13.6960386 0.958707076 16.8583926 13.0653904 19.7725548 0.958707076 23.7882425 0.958707076 19.0168247 17.7138657 15.2270195 17.7138657 12.2877592 6.20707567"></polyline>
                    <polyline id="Fill-67" points="38.1889446 10.6797683 30.2802708 10.6797683 30.2802708 17.7138657 26.7163481 17.7138657 26.7163481 0.958707076 30.2802708 0.958707076 30.2802708 7.54079188 38.1889446 7.54079188 38.1889446 0.958707076 41.7807541 0.958707076 41.7807541 17.7138657 38.1889446 17.7138657 38.1889446 10.6797683"></polyline>
                    <polygon id="Fill-68" points="46.3179234 17.7138657 49.8846348 17.7138657 49.8846348 0.958707076 46.3179234 0.958707076"></polygon>
                    <polyline id="Fill-69" points="58.3175789 4.09768351 53.4206709 4.09768351 53.4206709 0.958707076 66.7784097 0.958707076 66.7784097 4.09768351 61.9065997 4.09768351 61.9065997 17.7138657 58.3175789 17.7138657 58.3175789 4.09768351"></polyline>
                    <polyline id="Fill-70" points="70.3116571 0.958707076 82.163513 0.958707076 82.163513 4.02234807 73.8755799 4.02234807 73.8755799 7.66356074 81.985038 7.66356074 81.985038 10.7299919 73.8755799 10.7299919 73.8755799 14.6223227 82.163513 14.6223227 82.163513 17.7138657 70.3116571 17.7138657 70.3116571 0.958707076"></polyline>
                    <path d="M1.61830026,45.6186687 C1.61830026,40.4707473 5.51128634,36.9550937 10.4054057,36.9550937 C14.2230976,36.9550937 16.3564317,38.9640386 17.5360399,41.048319 L14.4712894,42.5550277 C13.7713327,41.1989898 12.2626612,40.119182 10.4054057,40.119182 C7.49682079,40.119182 5.28540391,42.4545804 5.28540391,45.6186687 C5.28540391,48.7855471 7.49682079,51.1209456 10.4054057,51.1209456 C12.2626612,51.1209456 13.7713327,50.0662495 14.4712894,48.6850999 L17.5360399,50.1666967 C16.3313336,52.2509771 14.2230976,54.2850338 10.4054057,54.2850338 C5.51128634,54.2850338 1.61830026,50.7693802 1.61830026,45.6186687" id="Fill-71"></path>
                    <path d="M28.8552595,40.119182 C25.7654109,40.119182 23.7798765,42.4796922 23.7798765,45.6186687 C23.7798765,48.7353235 25.7654109,51.1209456 28.8552595,51.1209456 C31.9395307,51.1209456 33.9501632,48.7353235 33.9501632,45.6186687 C33.9501632,42.4796922 31.9395307,40.119182 28.8552595,40.119182 Z M28.8552595,36.9550937 C33.9250651,36.9550937 37.6144781,40.5711946 37.6144781,45.6186687 C37.6144781,50.668933 33.9250651,54.2850338 28.8552595,54.2850338 C23.8077632,54.2850338 20.1155615,50.668933 20.1155615,45.6186687 C20.1155615,40.5711946 23.8077632,36.9550937 28.8552595,36.9550937 L28.8552595,36.9550937 Z" id="Fill-72"></path>
                    <polyline id="Fill-73" points="41.373608 37.2313236 44.9375308 37.2313236 44.9375308 50.8447156 52.0179689 50.8447156 52.0179689 53.9864823 41.373608 53.9864823 41.373608 37.2313236"></polyline>
                    <polyline id="Fill-74" points="55.7547894 37.2313236 59.3215008 37.2313236 59.3215008 50.8447156 66.401939 50.8447156 66.401939 53.9864823 55.7547894 53.9864823 55.7547894 37.2313236"></polyline>
                    <path d="M74.282726,48.007081 L79.8293945,48.007081 L77.0686093,40.3200764 L74.282726,48.007081 Z M80.8082184,51.0958338 L73.3262115,51.0958338 L72.2720935,53.9864823 L68.356798,53.9864823 L74.8320944,37.2313236 L79.3023355,37.2313236 L85.7553225,53.9864823 L81.8651251,53.9864823 L80.8082184,51.0958338 L80.8082184,51.0958338 Z" id="Fill-75"></path>
                    <path d="M95.8642584,40.2949646 L92.1218606,40.2949646 L92.1218606,44.9183281 L95.8642584,44.9183281 C97.2976358,44.9183281 98.3740632,44.0115127 98.3740632,42.6052513 C98.3740632,41.1989898 97.2976358,40.2949646 95.8642584,40.2949646 Z M94.7348463,47.9819691 L92.1218606,47.9819691 L92.1218606,53.9864823 L88.5579378,53.9864823 L88.5579378,37.2313236 L96.3913174,37.2313236 C99.8799461,37.2313236 102.016069,39.5164985 102.016069,42.6303631 C102.016069,45.5963471 100.156025,47.1783912 98.3517538,47.605292 L102.116461,53.9864823 L98.0226905,53.9864823 L94.7348463,47.9819691 L94.7348463,47.9819691 Z" id="Fill-76"></path>
                    <polyline id="Fill-77" points="2.42143779 73.5039402 14.2732937 73.5039402 14.2732937 76.5675812 5.98814925 76.5675812 5.98814925 80.2087939 14.0976074 80.2087939 14.0976074 83.2752251 5.98814925 83.2752251 5.98814925 90.2590988 2.42143779 90.2590988 2.42143779 73.5039402"></polyline>
                    <path d="M21.0748646,84.2796975 L26.6215332,84.2796975 L23.8607479,76.592693 L21.0748646,84.2796975 Z M27.6003571,87.3684503 L20.1183502,87.3684503 L19.0642321,90.2590988 L15.1489367,90.2590988 L21.624233,73.5039402 L26.0916855,73.5039402 L32.5474612,90.2590988 L28.6544751,90.2590988 L27.6003571,87.3684503 L27.6003571,87.3684503 Z" id="Fill-78"></path>
                    <path d="M33.6936053,81.8912852 C33.6936053,76.7433639 37.5865914,73.2277103 42.4807107,73.2277103 C46.2984027,73.2277103 48.4317367,75.2366552 49.611345,77.3209355 L46.5465945,78.8276442 C45.8438491,77.4716064 44.3379663,76.3917985 42.4807107,76.3917985 C39.5693372,76.3917985 37.360709,78.727197 37.360709,81.8912852 C37.360709,85.0581637 39.5693372,87.3935621 42.4807107,87.3935621 C44.3379663,87.3935621 45.8438491,86.3388661 46.5465945,84.9577164 L49.611345,86.4393133 C48.4066387,88.5235936 46.2984027,90.5576504 42.4807107,90.5576504 C37.5865914,90.5576504 33.6936053,87.0419968 33.6936053,81.8912852" id="Fill-79"></path>
                    <polyline id="Fill-80" points="56.8618921 76.6429166 51.9649841 76.6429166 51.9649841 73.5039402 65.3227229 73.5039402 65.3227229 76.6429166 60.450913 76.6429166 60.450913 90.2590988 56.8618921 90.2590988 56.8618921 76.6429166"></polyline>
                    <path d="M76.1873889,76.3917985 C73.1003291,76.3917985 71.1147946,78.7523088 71.1147946,81.8912852 C71.1147946,85.00794 73.1003291,87.3935621 76.1873889,87.3935621 C79.2744488,87.3935621 81.2822926,85.00794 81.2822926,81.8912852 C81.2822926,78.7523088 79.2744488,76.3917985 76.1873889,76.3917985 Z M76.1873889,73.2277103 C81.2599833,73.2277103 84.9493963,76.8438111 84.9493963,81.8912852 C84.9493963,86.9415495 81.2599833,90.5576504 76.1873889,90.5576504 C71.1426813,90.5576504 67.4504796,86.9415495 67.4504796,81.8912852 C67.4504796,76.8438111 71.1426813,73.2277103 76.1873889,73.2277103 L76.1873889,73.2277103 Z" id="Fill-81"></path>
                    <path d="M96.0148467,76.5675812 L92.2752376,76.5675812 L92.2752376,81.1909447 L96.0148467,81.1909447 C97.4454354,81.1909447 98.5246515,80.2841293 98.5246515,78.8778678 C98.5246515,77.4716064 97.4454354,76.5675812 96.0148467,76.5675812 Z M94.8826459,84.2545857 L92.2752376,84.2545857 L92.2752376,90.2590988 L88.7085261,90.2590988 L88.7085261,73.5039402 L96.5419057,73.5039402 C100.030534,73.5039402 102.166657,75.789115 102.166657,78.9029797 C102.166657,81.8689636 100.309402,83.4510077 98.4995534,83.8779085 L102.267049,90.2590988 L98.1732788,90.2590988 L94.8826459,84.2545857 L94.8826459,84.2545857 Z" id="Fill-82"></path>
                    <polyline id="Fill-83" points="110.320734 83.4007841 103.867747 73.5039402 107.933631 73.5039402 112.102695 80.2339057 116.221564 73.5039402 120.287448 73.5039402 113.884657 83.4007841 113.884657 90.2590988 110.320734 90.2590988 110.320734 83.4007841"></polyline>
                </g>
                <g id="Thicker-buildings" transform="translate(127.728873, 82.788824)" stroke-width="3" stroke="#4F4F4C">
                    <polygon id="Path-6" points="339.094947 559.077039 556.490316 559.077039 556.490316 179.652652 510.869544 179.652652 510.869544 154.974511 416.87968 154.974511 416.87968 178.655759 338.222071 178.655759"></polygon>
                    <polygon id="Path-4" points="0.146110295 560.205131 0.146110295 201.773883 122.074398 201.773883 141.44296 210.743515 141.44296 388.894824 304.15217 388.894824 304.15217 560.496108"></polygon>
                    <path d="M0.603777368,51.108297 L195.218223,151.704741 L478.646061,94.581183 L554.04478,40.12963 L554.747758,0.553337668 M1.21573594,51.5248895 L0.729654923,13.0026732" id="Stroke-84"></path>
                </g>
                <g id="Arrow" transform="translate(446.242018, 469.387792)" stroke="#FC1D42" stroke-width="2">
                    <path d="M13.2873432,7.35150059 L1.67638497,7.35150059" id="Stroke-33" stroke-dasharray="2.949869835376739,1.991219973564148"></path>
                    <polyline id="Stroke-34" points="13.8798256 0.356233475 21.4022683 7.35266317 13.8798256 14.3467677"></polyline>
                    <path d="M2.79397495,5.51870872 L2.79397495,174.293318" id="Stroke-35" stroke-dasharray="2.807804918289185,1.850309997797012"></path>
                </g>
                <path d="M501.755194,467.053663 C502.905521,465.912393 503.480685,464.546357 503.480685,462.953617 C503.480685,461.360877 502.905521,459.996779 501.755194,458.853572 C500.604867,457.710364 499.193101,457.140698 497.519898,457.140698 C495.846695,457.140698 494.432993,457.710364 493.284603,458.853572 C492.134276,459.996779 491.559112,461.360877 491.559112,462.953617 C491.559112,464.546357 492.134276,465.912393 493.284603,467.053663 C494.432993,468.194933 495.846695,468.766537 497.519898,468.766537 C499.193101,468.766537 500.60293,468.194933 501.755194,467.053663 Z M509.75326,451.55642 C513.031886,454.739962 514.670231,458.580364 514.670231,463.077626 C514.670231,466.675823 513.275895,471.002573 510.485286,476.052062 C507.696614,481.105427 504.909879,485.255851 502.11927,488.511086 L497.936263,493.28543 C497.299128,492.636321 496.689106,491.960085 496.108133,491.260597 C495.37417,490.394472 494.049551,488.716476 492.134276,486.224671 C490.323575,483.887877 488.631006,481.46389 487.062378,478.960459 C485.596389,476.606227 484.256277,473.941972 483.036233,470.967695 C481.816189,467.991481 481.204231,465.362104 481.204231,463.077626 C481.204231,458.580364 482.842575,454.738025 486.119265,451.55642 C489.397891,448.372878 493.334954,446.782076 497.936263,446.782076 C502.537571,446.782076 506.47657,448.372878 509.75326,451.55642 L509.75326,451.55642 Z" id="Fill-62" fill="#FC1D42"></path>
                <circle id="Oval" fill="#212121" cx="497.488472" cy="462.862731" r="5.98405988"></circle>
            </g>
        </g>
    </g>
</svg>