<svg xmlns="http://www.w3.org/2000/svg" xmlns:xlink="http://www.w3.org/1999/xlink" width="758" height="499" viewBox="0 0 758 499">
    <defs>
        <path id="a" d="M0 0h824v499H0z"/>
        <path id="b" d="M-12-95h824v499H-12z"/>
        <linearGradient id="d" x1="100%" x2="0%" y1="50%" y2="50%">
            <stop offset="0%" stop-color="#464646"/>
            <stop offset="100%" stop-color="#212121"/>
        </linearGradient>
        <linearGradient id="e" x1="50%" x2="50%" y1="100%" y2="0%">
            <stop offset="0%" stop-color="#464646"/>
            <stop offset="100%" stop-color="#212121"/>
        </linearGradient>
        <linearGradient id="f" x1="0%" y1="50%" y2="50%">
            <stop offset="0%" stop-color="#464646"/>
            <stop offset="100%" stop-color="#212121"/>
        </linearGradient>
        <linearGradient id="g" x1="50%" x2="50%" y1="0%" y2="100%">
            <stop offset="0%" stop-color="#464646"/>
            <stop offset="100%" stop-color="#212121"/>
        </linearGradient>
    </defs>
    <g fill="none" fill-rule="evenodd" transform="translate(-54 95)">
        <mask id="c" fill="#fff">
            <use xlink:href="#b"/>
        </mask>
        <g mask="url(#c)">
            <path stroke="#565656" d="M586.598 34.105s-23.728 5.391-31.277 13.478c-7.55 8.088-38.289 56.073-38.289 56.073s2.157 22.644 4.854 27.496c2.697 4.853 52.308 42.054 52.308 42.054l17.796 4.314h11.325l15.1-5.932 32.357-65.776s6.471-19.948 5.93-22.104c-.538-2.158-8.088-14.557-8.088-14.557l-62.016-35.046zM496.54 124.143l-10.246 7.549h12.943zM554.781 19.009l14.56-4.314L554.781-.4zM586.884 198.546h21.824l-17.796 28.035v-18.87zM566.442 218.462c1.134 27.745 2.9 135.36 2.9 135.36l-55.757 5.854-1.668.172-5.386-61.563-4.981.435 5.393 61.64c-21.873 2.297-55.701 5.861-55.701 5.861L422.66 153.797l16.178-2.157s46.916 0 53.926 2.157c7.012 2.156 26.426 8.625 26.426 8.625l39.905 28.576s5.932 11.86 7.011 21.565c.061.547.125 1.481.192 2.756a19.403 19.403 0 0 1-2.743.06c-1.99-.112-3.836-.549-5.468-.87-1.902-.376-3.527-1.36-4.873-2.953v5.078c.212.37 1.74.964 4.587 1.778 2.847.814 5.696 1.026 8.549.635l.092-.585z"/>
            <path stroke="url(#d)" d="M181.59 411.684L74.816 426.781l35.592 168.754 285.623-4.314-29.391-210.807zM397.029 610.776l-284.465 2.697 35.592 108.762H543.44l-15.099-124.398z" transform="translate(41 -225)"/>
            <path stroke="url(#e)" d="M304.005 368.013l93.024-11.322 28.85-11.322L455 319.49l32.897-51.758 4.313-38.82 3.776-25.878S460.933 72.02 451.764 57.464c0 0-23.726-55.533-26.423-56.612L304.005 34.82l-40.445-6.47 40.445 339.664z" transform="translate(41 -225)"/>
            <path stroke="url(#d)" d="M292.99 369.626l-227.032 37.2L.935 60.699 218.8 5.166l32.896 20.488z" transform="translate(41 -225)"/>
            <path stroke="url(#e)" d="M490.458 70.537l-2.023 18.601 29.525 107.156 38.836 42.458 58.938 33.158 198.286-84.916-46.917-157.297-172.701 33.562z" transform="translate(41 -225)"/>
            <path stroke="url(#f)" d="M599.795 408.584l-4.45 24.667-40.849 54.723 2.427 88.016 314.664-18.6-15.774-334.812-216.382 93.812z" transform="translate(41 -225)"/>
            <path stroke="url(#g)" d="M859.723 575.99c-10.516-.404-305.228 15.232-305.228 15.232l13.213 128.317h292.015V575.99z" transform="translate(41 -225)"/>
            <path stroke="#565656" d="M672.612 63.489v5.66l202.226-88.153-4.045-4.04z"/>
            <path stroke="#464646" d="M516.727 178c24.823 14.399 37.043 21.61 36.66 21.637-.382.026-.382 12.574 0 37.644-16.19 12.795-24.211 19.023-24.063 18.683.148-.34-5.076-8.215-15.672-23.626h-7.244L504 210.955h2.408l2.835-26.762 7.484-6.193z"/>
            <path stroke="#565656" d="M507 298.252L551.21 295l2.79 34.542c-29.599 2.156-44.424 3.274-44.477 3.354-.052.08-.894-11.469-2.523-34.644z"/>
            <path fill="#FC1D42" d="M523.786 297.305c1.583 1.536 2.374 3.39 2.374 5.56 0 1.737-.673 3.825-2.02 6.263-1.347 2.438-2.693 4.442-4.04 6.012l-2.02 2.304c-.236-.233-.53-.559-.884-.976-.353-.418-.993-1.228-1.919-2.43a43.19 43.19 0 0 1-2.449-3.507c-.707-1.136-1.355-2.422-1.944-3.858-.59-1.436-.884-2.705-.884-3.807 0-2.171.791-4.025 2.373-5.561 1.583-1.537 3.485-2.305 5.707-2.305s4.124.768 5.706 2.305zm-3.862 7.48c.555-.552.833-1.211.833-1.98 0-.768-.278-1.427-.833-1.978-.556-.551-1.237-.827-2.046-.827-.808 0-1.49.276-2.045.827-.555.55-.833 1.21-.833 1.979 0 .768.278 1.427.833 1.978.556.552 1.237.827 2.045.827.809 0 1.49-.275 2.046-.827z"/>
            <text fill="#F8F8F8" font-family="ProximaNova-Bold, Proxima Nova" font-size="12" font-weight="bold" transform="rotate(-4 4016.683 -6854.748)">
                <tspan x="1.652" y="13.316">2 Old Street </tspan> <tspan x="1.652" y="27.316">Yard</tspan>
            </text>
            <text font-family="ProximaNova-Bold, Proxima Nova" font-size="14" font-weight="bold" letter-spacing="9.333" transform="rotate(-9 -1152.196 14.106)">
                <tspan x="169.327" y="392.583" fill="#999">OLD STREET</tspan>
            </text>
            <text font-family="ProximaNova-Bold, Proxima Nova" font-size="12" font-weight="bold" letter-spacing="8" transform="rotate(-1 -12548.618 -1859.579)">
                <tspan x="208.441" y="605.989" fill="#999">FEATHERSTONE ST</tspan>
            </text>
            <text font-family="ProximaNova-Bold, Proxima Nova" font-size="12" font-weight="bold" letter-spacing="8" transform="rotate(82 538.59 399.376)">
                <tspan x="318.674" y="492.293" fill="#999">MALLOW ST</tspan>
            </text>
            <text font-family="ProximaNova-Bold, Proxima Nova" font-size="14" font-weight="bold" letter-spacing="9.333" transform="rotate(89 675.858 432.497)">
                <tspan x="461.877" y="529.636" fill="#999">CITY ROAD</tspan>
            </text>
            <text font-family="ProximaNova-Bold, Proxima Nova" font-size="15" font-weight="bold" transform="translate(41 -225)">
                <tspan x="534" y="337" fill="#CCC">OLD STREET</tspan> <tspan x="534" y="355" fill="#CCC">STATION</tspan>
            </text>
            <g transform="translate(535 97)">
                <ellipse cx="14.547" cy="9.5" stroke="#F8F8F8" stroke-width="4" rx="9.59" ry="9.5"/>
                <path fill="#FC1D42" d="M0 7.045h29.094v5.124H0z"/>
            </g>
        </g>
    </g>
</svg>
