<svg id="Layer_1" xmlns="http://www.w3.org/2000/svg" viewBox="0 0 756 400"><style>.st0,.st1,.st2,.st3,.st4,.st5,.st6{fill:none;stroke:#464646;stroke-miterlimit:10}.st1,.st2,.st3,.st4,.st5,.st6{stroke:url(#SVGID_1_)}.st2,.st3,.st4,.st5,.st6{stroke:url(#SVGID_2_)}.st3,.st4,.st5,.st6{stroke:url(#SVGID_3_)}.st4,.st5,.st6{stroke:url(#SVGID_4_)}.st5,.st6{stroke:url(#SVGID_5_)}.st6{stroke:url(#SVGID_6_)}.st7{fill:#fc1d42}.st8{enable-background:new}.st9{fill:#999}.st10{fill:#ccc}.st11{fill:none;stroke:#f8f8f8;stroke-width:4}</style><path class="st0" d="M530.9 60.9s-23.1 5.3-30.5 13.1-37.3 54.7-37.3 54.7 2.1 22.1 4.7 26.8 51 41 51 41l17.3 4.2h11l14.7-5.8 31.5-64.1s6.3-19.4 5.8-21.5-7.9-14.2-7.9-14.2l-60.3-34.2zM443.1 148.7l-10 7.3h12.6zM499.8 46.2L514 42l-14.2-14.7zM531.1 221.2h21.3l-17.3 27.3v-18.4zM371.1 177.6l15.8-2.1s45.7 0 52.6 2.1 25.8 8.4 25.8 8.4l38.9 27.9s5.8 11.6 6.8 21c1.1 9.5 3.2 137.7 3.2 137.7l-115.1 12.1-28-207.1z"/><linearGradient id="SVGID_1_" gradientUnits="userSpaceOnUse" x1="71.4" y1="117.986" x2="386.673" y2="117.986" gradientTransform="matrix(1 0 0 -1 0 402)"><stop offset="0" stop-color="#212121"/><stop offset="1" stop-color="#464646"/></linearGradient><path class="st1" d="M357.4 179.2l-181.3 30.4L72 224.4l34.7 164.5 279.4-4.2z"/><linearGradient id="SVGID_2_" gradientUnits="userSpaceOnUse" x1="369.267" y1="234.343" x2="369.267" y2="593.228" gradientTransform="matrix(1 0 0 -1 0 402)"><stop offset="0" stop-color="#464646"/><stop offset="1" stop-color="#212121"/></linearGradient><path class="st2" d="M295.4 167.1l90.7-11 28.1-11 28.4-25.2 32.1-50.5 4.2-37.8 3.7-25.2s-34.2-127.7-43.1-141.9c0 0-23.1-54.1-25.8-55.2l-118.3 33.1-39.4-6.3 39.4 331z"/><linearGradient id="SVGID_3_" gradientUnits="userSpaceOnUse" x1="299.374" y1="474.591" x2="1.688" y2="302.722" gradientTransform="matrix(1 0 0 -1 0 402)"><stop offset="0" stop-color="#464646"/><stop offset="1" stop-color="#212121"/></linearGradient><path class="st3" d="M284.7 168.6L63.4 204.9 0-132.5l212.3-54.2 32.1 20z"/><linearGradient id="SVGID_4_" gradientUnits="userSpaceOnUse" x1="474.592" y1="446.66" x2="793.107" y2="446.66" gradientTransform="matrix(1 0 0 -1 0 402)"><stop offset="0" stop-color="#464646"/><stop offset="1" stop-color="#212121"/></linearGradient><path class="st4" d="M477.1-122.9l-2 18.1L503.9-.3l37.9 41.4 57.4 32.3L792.5-9.4l-45.8-153.3L578.4-130z"/><linearGradient id="SVGID_5_" gradientUnits="userSpaceOnUse" x1="538.995" y1="204.559" x2="849.123" y2="204.559" gradientTransform="matrix(1 0 0 -1 0 402)"><stop offset="0" stop-color="#464646"/><stop offset="1" stop-color="#212121"/></linearGradient><path class="st5" d="M622.3 116.7l-38.6 89.9-4.4 24.1-39.8 53.3 2.4 85.8 306.7-18.1-15.4-326.4z"/><linearGradient id="SVGID_6_" gradientUnits="userSpaceOnUse" x1="614.2" y1="351.765" x2="812.681" y2="351.765" gradientTransform="matrix(1 0 0 -1 0 402)"><stop offset="0" stop-color="#464646"/><stop offset="1" stop-color="#212121"/></linearGradient><path class="st6" d="M614.7 89.5v5.6l197.1-86-4-3.9z"/><g id="Symbols"><g id="Footer" transform="translate(-684)"><g transform="translate(653 -224)" id="Map"><path id="Page-1-Copy-9" class="st7" d="M388.1 496c3.5 0 6.4 1.2 8.9 3.6s3.7 5.3 3.7 8.7c0 2.7-1 6-3.2 9.8-2.1 3.8-4.2 6.9-6.3 9.4l-3.1 3.6c-.4-.4-.8-.9-1.4-1.5-.6-.7-1.5-1.9-3-3.8s-2.7-3.7-3.8-5.5c-1.1-1.8-2.1-3.8-3-6s-1.4-4.2-1.4-5.9c0-3.4 1.2-6.3 3.7-8.7 2.5-2.5 5.5-3.7 8.9-3.7zm0 16.6c1.3 0 2.3-.4 3.2-1.3.9-.9 1.3-1.9 1.3-3.1s-.4-2.2-1.3-3.1-1.9-1.3-3.2-1.3-2.3.4-3.2 1.3c-.9.9-1.3 1.9-1.3 3.1s.4 2.2 1.3 3.1c.9.9 2 1.3 3.2 1.3z"/><g class="st8"><g class="st8"><path class="st9" d="M223.9 414.7c2.8-.4 5.1 1.2 5.6 4s-1.3 5.1-4.1 5.5c-2.8.4-5.1-1.2-5.6-4s1.3-5.1 4.1-5.5zm.2 1.7c-1.7.3-2.6 1.7-2.3 3.5.3 1.7 1.6 2.9 3.3 2.6 1.7-.3 2.6-1.8 2.3-3.5-.3-1.7-1.6-2.8-3.3-2.6zM239 412.4l2-.3 1.2 7.5 3.9-.6.3 1.7-5.9.9-1.5-9.2zM255.1 409.9l3.6-.6c2.9-.5 5.2 1.1 5.6 3.8s-1.3 4.9-4.2 5.4l-3.6.6-1.4-9.2zm4.8 6.9c1.8-.3 2.7-1.8 2.4-3.3-.3-1.6-1.5-2.7-3.4-2.4l-1.7.3.9 5.8 1.8-.4zM287.8 411.3c.8.6 1.9 1 3.1.8 1.1-.2 1.5-.8 1.4-1.3-.1-.7-.9-.8-2.1-.9-1.6-.1-3.6-.2-3.9-2.3-.2-1.5.9-3 3.1-3.3 1.5-.2 2.8 0 3.8.7l-.9 1.6c-.9-.6-1.9-.7-2.8-.6-.9.1-1.3.6-1.2 1.2.1.6.9.7 2 .8 1.6.1 3.6.3 3.9 2.3.3 1.7-.7 3.2-3.2 3.5-1.8.3-3.1-.1-4.1-.8l.9-1.7zM305.8 403.6l-2.7.4-.3-1.7 7.4-1.2.3 1.7-2.7.4 1.2 7.5-2 .3-1.2-7.4zM324.6 405l-1.4.2.5 3.3-2 .3-1.5-9.2 4.3-.7c1.9-.3 3.3.8 3.6 2.5.3 1.6-.6 2.7-1.6 3.1l2.6 3.2-2.1.3-2.4-3zm0-4.4l-2.1.3.4 2.5 2.1-.3c.8-.1 1.3-.7 1.2-1.5-.2-.7-.8-1.1-1.6-1zM338.1 396.8l6.5-1 .3 1.7-4.6.7.3 2 4.5-.7.3 1.7-4.5.7.3 2.1 4.6-.7.3 1.7-6.5 1-1.5-9.2zM355 394.1l6.5-1 .3 1.7-4.6.7.3 2 4.5-.7.3 1.7-4.5.7.3 2.1 4.6-.7.3 1.7-6.5 1-1.5-9.2zM374.3 392.8l-2.7.4-.3-1.7 7.4-1.2.3 1.7-2.7.4 1.2 7.5-2 .3-1.2-7.4z"/></g></g><g class="st8"><g class="st8"><path class="st10" d="M550.7 354.7c2.8 0 4.9 2 4.9 4.8s-2.1 4.8-4.9 4.8c-2.8 0-4.9-2-4.9-4.8s2.1-4.8 4.9-4.8zm0 1.8c-1.7 0-2.8 1.3-2.8 3.1 0 1.7 1.1 3.1 2.8 3.1 1.7 0 2.8-1.3 2.8-3.1s-1.1-3.1-2.8-3.1zM557 354.8h2v7.6h4v1.8h-6v-9.4zM564.3 354.8h3.7c2.9 0 5 1.9 5 4.7 0 2.8-2 4.7-5 4.7h-3.7v-9.4zm3.7 7.6c1.8 0 2.9-1.3 2.9-2.9 0-1.7-1-2.9-2.9-2.9h-1.7v5.8h1.7zM578.4 361.4c.7.7 1.7 1.3 3 1.3 1.1 0 1.6-.5 1.6-1.1 0-.7-.8-.9-1.9-1.2-1.5-.3-3.5-.8-3.5-2.9 0-1.6 1.3-2.8 3.5-2.8 1.5 0 2.7.4 3.6 1.3l-1.1 1.5c-.8-.7-1.8-1-2.7-1-.9 0-1.4.4-1.4 1s.8.8 1.9 1.1c1.5.3 3.5.8 3.5 2.9 0 1.7-1.2 3-3.7 3-1.8 0-3.1-.6-4-1.5l1.2-1.6zM588.4 356.6h-2.7v-1.8h7.5v1.8h-2.7v7.6h-2v-7.6zM597.8 360.8h-1.5v3.3h-2v-9.3h4.4c1.9 0 3.1 1.3 3.1 3s-1 2.5-2 2.8l2.1 3.6h-2.3l-1.8-3.4zm.6-4.3h-2.1v2.6h2.1c.8 0 1.4-.5 1.4-1.3 0-.7-.6-1.3-1.4-1.3zM603.4 354.8h6.6v1.7h-4.6v2h4.5v1.7h-4.5v2.2h4.6v1.7h-6.6v-9.3zM611.5 354.8h6.6v1.7h-4.6v2h4.5v1.7h-4.5v2.2h4.6v1.7h-6.6v-9.3zM621.9 356.6h-2.7v-1.8h7.5v1.8H624v7.6h-2v-7.6z"/></g></g><g id="Tueb-logo" transform="translate(494 322)"><ellipse id="Oval-2" class="st11" cx="25.9" cy="36.7" rx="9.6" ry="9.5"/><path id="Rectangle-22" class="st7" d="M11.3 34.2h29.1v5.1H11.3z"/></g></g></g></g></svg>