<svg id="Layer_1" data-name="Layer 1" xmlns="http://www.w3.org/2000/svg" xmlns:xlink="http://www.w3.org/1999/xlink" width="27.02" height="19.03" viewBox="0 0 27.02 19.03"><defs><mask id="mask" x="0" y="0.03" width="27.02" height="19.01" maskUnits="userSpaceOnUse"><g id="mask-2"><polygon id="path-1" points="27.02 9.53 27.02 19.03 0 19.03 0 9.53 0 0.03 27.02 0.03 27.02 9.53" style="fill:#fff"/></g></mask></defs><title>youtube-s_test</title><g id="Symbols"><g id="Footer"><g id="Youtube"><polygon id="Fill-1" points="10.72 5.44 17.12 9.72 18.02 9.25 10.72 5.44"/><g id="Group-5"><g style="mask:url(#mask)"><path id="Fill-3" d="M10.72,13V5.44L18,9.25Zm16-8.91a5.85,5.85,0,0,0-1.07-2.68A3.86,3.86,0,0,0,23,.3C19.19,0,13.52,0,13.52,0h0S7.83,0,4.05.3A3.87,3.87,0,0,0,1.34,1.44,5.84,5.84,0,0,0,.27,4.13,40.87,40.87,0,0,0,0,8.5v2.05a40.87,40.87,0,0,0,.27,4.37,5.84,5.84,0,0,0,1.07,2.68,4.58,4.58,0,0,0,3,1.16C6.49,19,13.51,19,13.51,19s5.68,0,9.46-.28a3.86,3.86,0,0,0,2.71-1.14,5.85,5.85,0,0,0,1.07-2.68A40.92,40.92,0,0,0,27,10.55V8.5a40.92,40.92,0,0,0-.27-4.37h0Z" style="fill:#fff"/></g></g></g></g></g></svg>