<svg id="Layer_1" data-name="Layer 1" xmlns="http://www.w3.org/2000/svg" viewBox="0 0 401 100"><defs><style>.cls-1{fill:#fc1d42}.cls-2{fill:#fff}.cls-3{fill:#212121}</style></defs><path class="cls-1" d="M99.17 18.76h301.47v75.91H99.17z"/><path class="cls-2" d="M127.12 61.5l5.3 16.86h8.49l-6.35-18.81.2-.12c4.26-2.66 4.85-7 4.85-11.27 0-9.29-3.45-13.08-11.9-13.08h-12.22v43.28h8.16V61.29h3.41zm-3.48-19.13h4c3.81 0 3.81 3.62 3.81 5.78s0 5.84-3.81 5.84h-4zm42.08 0v-7.3H146.1v43.29h19.62v-7.3h-11.46V59.99h9.86V52.7h-9.86V42.37h11.46zm30.63 14.28c0-8.33-.22-14-3.19-17.43a11.37 11.37 0 0 0-9.39-4.15h-12.1v43.29h12.09a11.37 11.37 0 0 0 9.39-4.15c2.97-3.38 3.2-9.41 3.2-17.56zM187.11 69a3.78 3.78 0 0 1-3.53 2.07h-3.75v-28.7h3.75a3.78 3.78 0 0 1 3.53 2.07c1.08 2.09 1.08 7.24 1.08 12.21s0 10.24-1.08 12.35zm46.42-11.65a7.41 7.41 0 0 0-2-1.49l-.5-.27.51-.26a7.24 7.24 0 0 0 2-1.42c1.62-1.62 2.32-3.77 2.32-7.19 0-4.62-.71-6.87-2.81-8.91-1.91-1.85-4.85-2.75-9-2.75h-12.4v43.3h12.4c4.17 0 7.08-.92 8.91-2.81 2.12-2.18 2.87-4.74 2.87-9.78.02-4.44-.59-6.65-2.3-8.42zM222.9 71.06h-3.07V59.13h3.07c3.45 0 4.79 1.67 4.79 6 0 3.74-.78 5.93-4.79 5.93zm.1-18.73h-3.19v-10H223c3.89 0 4.67 1.91 4.67 5s-.77 5-4.67 5zm36.31 19.19l1.42 6.84h8.5L258.1 35.07h-8.17l-11.12 43.29h8.5l1.42-6.84zM254 46.2l3.75 18h-7.51zm44.33 10.45c0-8.33-.22-14-3.19-17.43a11.37 11.37 0 0 0-9.39-4.15h-12.09v43.29h12.09a11.37 11.37 0 0 0 9.39-4.15c2.97-3.38 3.19-9.41 3.19-17.56zM289.1 69a3.78 3.78 0 0 1-3.53 2.07h-3.75v-28.7h3.75a3.78 3.78 0 0 1 3.53 2.07c1.08 2.09 1.08 7.24 1.08 12.21s0 10.24-1.08 12.35zm14.74-12.28c0 8.65.22 14.17 3.2 17.81a11.29 11.29 0 0 0 9.38 4.33c7.57 0 12.09-4.93 12.09-13.2V54.79h-11.79v6.49h3.64v4.86c0 3.44-1.43 5.41-3.93 5.41a3.33 3.33 0 0 1-3.22-1.89c-1-1.94-1.2-6.58-1.2-13s.2-11 1.2-13a3.33 3.33 0 0 1 3.22-1.89c3.53 0 3.85 3.52 3.92 5.18h8.15c-.24-3.93-1.5-7.13-3.65-9.29a11.64 11.64 0 0 0-8.42-3.18 11.28 11.28 0 0 0-9.43 4.43c-2.94 3.64-3.16 9.15-3.16 17.81zm50.37-14.35v-7.3h-19.62v43.29h19.62v-7.3h-11.46V59.99h9.86V52.7h-9.86V42.37h11.46zM371.8 61.5l5.3 16.86h8.49l-6.35-18.81.2-.12c4.26-2.66 4.85-7 4.85-11.27 0-9.29-3.45-13.08-11.9-13.08h-12.22v43.28h8.16V61.29h3.41zm-3.48-19.13h4c3.81 0 3.81 3.62 3.81 5.78s0 5.84-3.81 5.84h-4z"/><path class="cls-3" d="M81.87 60.44c-2.54-1-7.47-4.93-9.86-8.84A56.23 56.23 0 0 1 68.9 45c-.49-1.22-1-2.42-1.49-3.61-1-2.37-1.94-4.72-2.81-6.63 7.7-4.16 15.91-9.35 15.91-13.26 0-9.74-24.23-18.66-39-18.35-.73 0-1.47.06-2.21.12a5.05 5.05 0 0 0-6-3.14 5.56 5.56 0 0 0-4.61 5.54A33.73 33.73 0 0 0 17 12.48a32 32 0 0 0-3.93 4.67C7 14.92.05 19.81 0 26.28c0 4.46 1.74 7 5.08 9.1v.1c-9.39 31.33 4.1 53.25 10.21 58.7 3.86 3.44 6.68 5.82 12.48 5.82 4.9 0 6.33-1.14 5.86-3.86a53.34 53.34 0 0 1-.63-7.05c2.08.15 4.52.32 7.13.41-.3 2.72-.65 5.18-1 6.85-.47 2.62.27 3.59 6.58 3.59 5.78 0 7.31-.92 11.2-4.36 3.6-3.19 6-7.71 7.6-12.88 5.67-6.06 8.4-12.12 8.82-19.2 3.27.76 6.23.83 8.73-.93 1.08-.73 1.03-1.64-.19-2.13z"/><path class="cls-2" d="M69.6 24.27a3.07 3.07 0 0 1-.37-.54c-.93-1.75 0-4.09 2-5.54a.88.88 0 0 0 .12-1.42c-7.69-5.83-19.38-9.18-28.9-9-6.33.12-12.46 1.48-17.71 4.8l-.12.08c-1 .71-.38 1.5.44 1.32 12.75-2.8 37.69.93 36.89 6.45-.48 3.31-33 .34-48.35 12.5C11 35 9 39.22 7.54 46.47A67.49 67.49 0 0 0 6.62 59c.11 4.09 1.26 3.59 2.6 1.28 3.31-5.66 8.09-11.72 14.13-15.36 18.77-11.31 32.79-9.3 46.22-19.11a1.08 1.08 0 0 0 .03-1.54z"/></svg>