<?xml version="1.0" encoding="UTF-8" standalone="no"?>
<svg width="258px" height="40px" viewBox="0 0 258 40" version="1.1" xmlns="http://www.w3.org/2000/svg" xmlns:xlink="http://www.w3.org/1999/xlink">
    <!-- Generator: Sketch 39.1 (31720) - http://www.bohemiancoding.com/sketch -->
    <title>Group</title>
    <desc>Created with Sketch.</desc>
    <defs></defs>
    <g id="Symbols" stroke="none" stroke-width="1" fill="none" fill-rule="evenodd">
        <g id="Red-Badger-logo">
            <g id="Group">
                <g id="Badger">
                    <path d="M32.592885,24.2251241 C28.22154,22.2068237 27.6104288,17.4897007 25.8365497,13.963976 C28.9008772,12.4604294 32.0919103,10.511926 32.2205653,8.96281742 C32.507115,5.48847118 23.4330409,1.80570294 17.2946394,1.72911997 C16.8492203,1.72330354 16.3891813,1.74753866 15.9223197,1.78825365 C15.5782651,1.0263016 14.8121832,0.493129049 13.9164717,0.493129049 C12.7039961,0.493129049 11.7195906,1.47028893 11.7195906,2.67816712 C11.7195906,2.6965858 11.7244639,2.71403509 11.7254386,2.73245378 C9.1162768,3.67471509 6.75272904,5.23545657 5.58898635,7.24503239 C5.28879142,7.14712252 4.97300195,7.08217241 4.64356725,7.0589067 C2.43499025,6.90380196 0.516861598,8.55954509 0.360916179,10.756216 C0.248830409,12.3276209 1.06949318,13.7497376 2.35409357,14.4903627 C-0.696588694,24.1058874 2.07729045,33.2192604 6.39990253,37.6300515 C7.93499025,39.1937012 9.08996101,39.8945808 11.3462963,39.9226935 C13.255653,39.9469286 13.8151072,39.5126354 13.6445419,38.4588925 C13.5412281,37.8142384 13.4593567,36.9960609 13.4076998,36.1119639 C13.3940546,35.8783374 13.4876218,35.5981794 13.8511696,35.6311392 C14.4340156,35.6825176 15.0373294,35.7174162 15.6513645,35.7309878 C16.0607212,35.7406819 16.2030214,35.8124178 16.1640351,36.2408947 C16.0811891,37.1288693 15.9778752,37.9199035 15.8687135,38.4870052 C15.6923002,39.4030926 16.1153021,39.9304488 18.1260234,39.9575921 C20.6679337,39.988613 21.7897661,39.3914598 23.0772904,38.0129664 C24.0938596,36.9262638 24.9369396,35.5642502 25.5977583,33.9928453 C25.8160819,33.472275 26.3891813,32.5823616 26.6630604,32.2566416 C28.2917154,30.3217099 29.089961,28.4265239 29.3453216,26.6748097 C29.4749513,25.7848962 29.8648148,25.690864 30.4427875,25.7529058 C31.1845029,25.8333664 31.9447368,25.7306095 32.629922,25.3350924 C33.3579922,24.9163096 33.4203704,24.608039 32.592885,24.2251241" id="Fill-1" fill="#212121"></path>
                    <path d="M19.3240741,14.3422377 C15.6486355,15.085771 13.3815789,16.0260935 10.0648148,17.9232184 C7.3162768,19.4936539 4.74610136,22.4135007 3.62231969,24.845737 C3.35526316,25.4235022 2.88645224,25.5582494 2.7714425,24.6760912 C2.45175439,22.2341609 2.86306043,19.1824751 3.65545809,16.2509954 C3.90497076,15.325214 4.28216374,14.7804086 5.10867446,14.2239703 C12.3737817,9.34107911 26.0628655,10.0768572 25.2451267,8.44341041 C23.961501,5.88224334 14.6963938,4.75094813 9.68469786,6.16143188 C9.14181287,6.31459782 9.041423,5.98500024 9.52680312,5.66315789 C13.6924951,2.91101811 21.3669591,2.37105972 28.5024366,6.99027285 C28.8981481,7.24619568 28.8913255,7.45170946 28.5229045,7.71344872 C27.7285575,8.2737646 27.3796296,9.17724973 27.7402534,9.85098596 C27.7763158,9.91981369 27.8182261,9.98282499 27.8659844,10.0409893 C28.1330409,10.3676786 28.1291423,10.5237528 27.8445419,10.7060009 C25.1096491,12.452868 21.6076998,13.8808011 19.3240741,14.3422377" id="Fill-4" fill="#F8F8F8"></path>
                </g>
                <path d="M52.53,21.873 L55.221,21.873 C57.756,21.873 58.458,22.926 58.458,25.851 L58.458,26.436 C58.458,30.999 60.057,33.573 64.854,33.573 C68.949,33.573 70.548,30.843 71.25,27.333 L68.715,26.631 C68.208,28.659 67.74,29.244 67.194,29.244 C66.414,29.244 66.063,28.854 65.985,27.06 L65.946,26.085 C65.829,22.887 64.035,20.625 58.77,20.352 L58.77,20.118 C65.244,19.494 67.311,17.037 67.311,13.761 C67.311,10.524 64.503,7.326 56.781,7.326 L42,7.326 L42,11.07 L45.159,11.07 L45.159,29.244 L42,29.244 L42,32.988 L55.923,32.988 L55.923,29.244 L52.53,29.244 L52.53,21.873 Z M52.53,18.324 L52.53,10.875 L55.611,10.875 C58.809,10.875 59.55,12.006 59.55,14.58 C59.55,17.466 58.185,18.324 55.611,18.324 L52.53,18.324 Z M90.321,24.72 C90.672,18.285 87.591,14.112 81.078,14.112 C75.384,14.112 71.133,18.285 71.133,23.94 C71.133,29.712 75.111,33.417 81.429,33.417 C87.045,33.417 89.502,30.687 90.087,26.865 L86.577,26.865 C85.875,29.088 84.588,29.985 82.443,29.985 C79.713,29.985 78.114,28.893 77.88,24.72 L90.321,24.72 Z M81,16.998 C82.833,16.998 83.808,18.129 83.964,22.029 L77.88,22.029 C78.075,18.207 79.206,16.998 81,16.998 L81,16.998 Z M99.525,33.417 C102.762,33.417 104.712,31.584 105.726,29.088 L105.726,32.988 L114.423,32.988 L114.423,29.439 L111.849,29.439 L111.849,6 L102.489,6 L102.489,9.549 L105.258,9.549 L105.258,17.232 C104.127,15.36 102.333,14.112 99.72,14.112 C97.809,14.112 96.171,14.814 94.962,16.023 C93.324,17.661 92.349,20.352 92.349,23.784 C92.349,27.021 93.168,29.829 94.845,31.506 C96.015,32.676 97.497,33.417 99.525,33.417 L99.525,33.417 Z M102.411,29.634 C100.149,29.634 99.369,27.723 99.369,23.979 C99.369,20.001 100.188,17.934 102.411,17.934 C104.751,17.934 105.726,20.43 105.726,23.784 C105.726,27.021 104.634,29.634 102.411,29.634 L102.411,29.634 Z M122.925,32.988 L137.082,32.988 C145.233,32.988 148.119,29.946 148.119,26.007 C148.119,22.458 145.74,20.391 140.28,19.728 L140.28,19.455 C145.428,18.714 147.339,16.335 147.339,13.527 C147.339,10.602 145.428,7.326 136.77,7.326 L122.925,7.326 L122.925,11.07 L126.084,11.07 L126.084,29.244 L122.925,29.244 L122.925,32.988 Z M133.455,17.856 L133.455,11.07 L135.951,11.07 C139.149,11.07 139.968,12.006 139.968,14.268 C139.968,16.53 138.993,17.856 135.912,17.856 L133.455,17.856 Z M133.455,29.244 L133.455,21.6 L135.951,21.6 C139.5,21.6 140.67,22.926 140.67,25.305 C140.67,28.269 139.578,29.244 136.029,29.244 L133.455,29.244 Z M155.763,33.417 C158.61,33.417 160.677,32.403 161.964,29.244 L162.159,29.244 C162.588,32.169 164.421,33.417 166.878,33.417 C169.881,33.417 171.363,31.896 172.026,28.503 L169.881,27.957 C169.569,29.517 169.14,29.907 168.75,29.907 C168.282,29.907 167.892,29.751 167.892,28.893 L167.892,20.898 C167.892,17.076 166.098,14.112 159.975,14.112 C155.295,14.112 150.771,15.672 150.771,19.221 C150.771,20.82 151.785,22.185 153.969,22.185 C155.646,22.185 156.972,21.132 156.972,19.689 C156.972,18.753 156.66,18.129 156.114,17.661 C156.738,17.388 157.518,17.271 158.181,17.271 C160.326,17.271 161.418,18.168 161.418,20.508 L161.418,22.029 C161.418,22.38 161.34,22.419 159.273,22.692 C154.203,23.355 152.37,24.252 151.278,25.344 C150.498,26.124 149.991,27.255 149.991,28.464 C149.991,31.545 152.526,33.417 155.763,33.417 L155.763,33.417 Z M158.844,29.751 C157.245,29.751 156.621,28.698 156.621,27.606 C156.621,26.124 157.323,25.071 159.663,24.642 C160.638,24.447 161.067,24.408 161.418,24.33 L161.418,25.578 C161.418,28.074 160.56,29.751 158.844,29.751 L158.844,29.751 Z M179.592,33.417 C182.829,33.417 184.779,31.584 185.793,29.088 L185.793,32.988 L194.49,32.988 L194.49,29.439 L191.916,29.439 L191.916,6 L182.556,6 L182.556,9.549 L185.325,9.549 L185.325,17.232 C184.194,15.36 182.4,14.112 179.787,14.112 C177.876,14.112 176.238,14.814 175.029,16.023 C173.391,17.661 172.416,20.352 172.416,23.784 C172.416,27.021 173.235,29.829 174.912,31.506 C176.082,32.676 177.564,33.417 179.592,33.417 L179.592,33.417 Z M182.478,29.634 C180.216,29.634 179.436,27.723 179.436,23.979 C179.436,20.001 180.255,17.934 182.478,17.934 C184.818,17.934 185.793,20.43 185.793,23.784 C185.793,27.021 184.701,29.634 182.478,29.634 L182.478,29.634 Z M213.522,20.001 C213.522,17.739 212.43,16.062 210.363,15.087 C210.831,13.683 211.533,13.02 212.352,12.864 C212.352,13.02 212.313,13.215 212.313,13.371 C212.313,14.658 213.249,15.672 214.731,15.672 C216.486,15.672 217.5,14.502 217.5,13.059 C217.5,11.577 216.486,10.056 213.834,10.056 C211.221,10.056 209.232,11.733 208.413,14.463 C207.399,14.229 206.268,14.112 204.981,14.112 C199.482,14.112 196.752,16.725 196.752,19.884 C196.752,22.614 198.507,24.213 201.393,24.759 C198.312,25.032 196.284,26.748 196.284,28.815 C196.284,30.414 197.532,31.896 199.794,32.247 L199.794,32.442 C196.83,32.871 195.231,34.041 195.231,35.913 C195.231,38.409 197.727,39.891 204.123,39.891 C212.781,39.891 216.174,37.2 216.174,33.3 C216.174,30.258 214.107,28.23 208.998,28.23 L203.85,28.23 C201.705,28.23 200.964,27.801 200.964,27.06 C200.964,26.358 201.705,25.851 202.836,25.851 C203.499,25.851 204.63,25.929 205.371,25.929 C210.831,25.929 213.522,23.784 213.522,20.001 L213.522,20.001 Z M204.903,37.005 C200.613,37.005 199.248,36.186 199.248,35.094 C199.248,34.197 200.184,33.378 202.251,33.378 L207.087,33.378 C209.466,33.378 210.324,33.924 210.324,34.743 C210.324,36.069 209.037,37.005 204.903,37.005 L204.903,37.005 Z M205.215,23.901 C203.616,23.901 202.914,22.692 202.914,20.157 C202.914,17.583 203.499,16.335 205.059,16.335 C206.619,16.335 207.321,17.622 207.321,20.157 C207.321,22.731 206.736,23.901 205.215,23.901 L205.215,23.901 Z M236.571,24.72 C236.922,18.285 233.841,14.112 227.328,14.112 C221.634,14.112 217.383,18.285 217.383,23.94 C217.383,29.712 221.361,33.417 227.679,33.417 C233.295,33.417 235.752,30.687 236.337,26.865 L232.827,26.865 C232.125,29.088 230.838,29.985 228.693,29.985 C225.963,29.985 224.364,28.893 224.13,24.72 L236.571,24.72 Z M227.25,16.998 C229.083,16.998 230.058,18.129 230.214,22.029 L224.13,22.029 C224.325,18.207 225.456,16.998 227.25,16.998 L227.25,16.998 Z M238.716,32.988 L251.274,32.988 L251.274,29.439 L247.881,29.439 L247.881,21.678 C248.583,19.494 249.909,18.675 250.65,18.519 C250.65,18.558 250.611,18.636 250.611,18.675 C250.611,20.586 252.015,21.639 253.887,21.639 C255.759,21.639 257.241,20.118 257.241,17.934 C257.241,15.945 255.681,14.112 253.302,14.112 C250.611,14.112 248.583,15.945 247.413,19.494 L247.413,14.541 L238.716,14.541 L238.716,18.09 L241.29,18.09 L241.29,29.439 L238.716,29.439 L238.716,32.988 Z" id="Red-Badger" fill="#212121"></path>
                <rect id="Combined-Shape" fill="#FC1D42" x="42" y="36" width="150" height="3.70000005"></rect>
                <rect id="Combined-Shape" fill="#FC1D42" x="218" y="36" width="33" height="3.70000005"></rect>
            </g>
        </g>
    </g>
</svg>