<?xml version="1.0" encoding="UTF-8" standalone="no"?>
<svg width="98px" height="80px" viewBox="0 0 98 80" version="1.1" xmlns="http://www.w3.org/2000/svg" xmlns:xlink="http://www.w3.org/1999/xlink">
    <!-- Generator: Sketch 40.1 (33804) - http://www.bohemiancoding.com/sketch -->
    <title>BBC logo</title>
    <desc>Created with Sketch.</desc>
    <defs></defs>
    <g id="Symbols" stroke="none" stroke-width="1" fill="none" fill-rule="evenodd">
        <g id="BBC-logo">
            <g>
                <path d="M68.2276538,55.8772308 L97.8101923,55.8772308 L97.8101923,28 L68.2276538,28 L68.2276538,55.8772308 Z M34.1136923,55.8772308 L63.6962308,55.8772308 L63.6962308,28 L34.1136923,28 L34.1136923,55.8772308 Z M0,55.8772308 L29.5825385,55.8772308 L29.5825385,28 L0,28 L0,55.8772308 Z" id="Fill-1-Copy" fill="#F8F8F8"></path>
                <path d="M53.1057692,46.0896538 C53.1057692,49.1185 49.3365385,48.9389231 49.3365385,48.9389231 L45.5673077,48.9389231 L45.5673077,43.4646538 L49.3365385,43.4646538 C53.2180385,43.4423077 53.1057692,46.0896538 53.1057692,46.0896538 L53.1057692,46.0896538 Z M45.5673077,35.1187692 L48.4391923,35.1187692 C51.4228077,35.2757308 51.3108077,37.4966154 51.3108077,37.4966154 C51.3108077,40.2562308 48.0127308,40.3014615 48.0127308,40.3014615 L45.5673077,40.3014615 L45.5673077,35.1187692 Z M52.4103462,41.3783846 C52.4103462,41.3783846 54.9903846,40.2788462 54.9680385,37.362 C54.9680385,37.362 55.3603077,32.5834231 49.028,32 L42,32 L42,52.0350769 L50.0545769,52.0350769 C50.0545769,52.0350769 56.7853462,52.0576923 56.7853462,46.3812308 C56.7853462,46.3812308 56.9423077,42.5226154 52.4103462,41.3783846 L52.4103462,41.3783846 Z" id="Fill-2-Copy" fill="#212121"></path>
                <path d="M19.1057692,46.0896538 C19.1057692,49.1185 15.3365385,48.9389231 15.3365385,48.9389231 L11.5673077,48.9389231 L11.5673077,43.4646538 L15.3365385,43.4646538 C19.2180385,43.4423077 19.1057692,46.0896538 19.1057692,46.0896538 L19.1057692,46.0896538 Z M11.5673077,35.1187692 L14.4391923,35.1187692 C17.4230769,35.2757308 17.3108077,37.4966154 17.3108077,37.4966154 C17.3108077,40.2562308 14.0127308,40.3014615 14.0127308,40.3014615 L11.5673077,40.3014615 L11.5673077,35.1187692 Z M18.4103462,41.3783846 C18.4103462,41.3783846 20.9906538,40.2788462 20.9680385,37.362 C20.9680385,37.362 21.3603077,32.5834231 15.028,32 L8,32 L8,52.0350769 L16.0545769,52.0350769 C16.0545769,52.0350769 22.7853462,52.0576923 22.7853462,46.3812308 C22.7853462,46.3812308 22.9425769,42.5226154 18.4103462,41.3783846 L18.4103462,41.3783846 Z" id="Fill-4-Copy" fill="#212121"></path>
                <path d="M92.0938933,33.6849665 L92.0938933,37.3868896 C92.0938933,37.3868896 88.4816241,35.166005 84.4881241,35.1210434 C84.4881241,35.1210434 77.0395856,34.9753896 76.7030471,42.2613127 C76.7030471,42.2613127 76.4338164,48.9638127 84.3984702,49.3453127 C84.3984702,49.3453127 87.7415087,49.7491588 92.2734702,46.8549281 L92.2734702,50.6914665 C92.2734702,50.6914665 86.1934317,54.3037357 79.1484702,51.521505 C79.1484702,51.521505 73.2253933,49.3568896 73.0008548,42.2613127 C73.0008548,42.2613127 72.7539702,34.9640819 80.6515856,32.5407357 C80.6515856,32.5407357 82.7607394,31.7330434 86.5523164,32.0919281 C86.5523164,32.0919281 88.8181625,32.3164665 92.0938933,33.6849665" id="Fill-6-Copy" fill="#212121"></path>
                <rect id="Rectangle-Copy-10" fill="#D8D8D8" opacity="0" x="0" y="0" width="98" height="80"></rect>
            </g>
        </g>
    </g>
</svg>