<?xml version="1.0" encoding="UTF-8" standalone="no"?>
<svg width="55px" height="80px" viewBox="0 0 55 80" version="1.1" xmlns="http://www.w3.org/2000/svg" xmlns:xlink="http://www.w3.org/1999/xlink">
    <!-- Generator: Sketch 40.1 (33804) - http://www.bohemiancoding.com/sketch -->
    <title>BMW logo</title>
    <desc>Created with Sketch.</desc>
    <defs></defs>
    <g id="Symbols" stroke="none" stroke-width="1" fill="none" fill-rule="evenodd">
        <g id="BMW-logo">
            <g>
                <g id="Group-29-Copy" transform="translate(0.000000, 11.000000)">
                    <path d="M27.4726102,54.9452204 C34.8107565,54.9452204 41.7096743,52.0875351 46.8986323,46.8985772 C52.0875902,41.7096192 54.9451653,34.8107014 54.9451653,27.4726653 C54.9451653,20.134519 52.0875902,13.2356012 46.8986323,8.04664329 C41.7096743,2.85768537 34.8107565,0 27.4726102,0 C12.3242435,0 5.51102203e-05,12.3241884 5.51102203e-05,27.4726653 C5.51102203e-05,34.8107014 2.85774048,41.7096192 8.04658818,46.8985772 C13.2355461,52.0875351 20.1344639,54.9452204 27.4726102,54.9452204" id="Fill-1" fill="#212121"></path>
                    <path d="M0.950552104,27.4726102 C0.950552104,20.3884118 3.70936974,13.7281212 8.71877856,8.71882265 C13.7281874,3.70930361 20.3883677,0.950596192 27.4725661,0.950596192 C34.5567645,0.950596192 41.2170551,3.70930361 46.2264639,8.71882265 C51.2358727,13.7281212 53.9946904,20.3884118 53.9946904,27.4726102 C53.9946904,42.096989 42.0969449,53.9946242 27.4725661,53.9946242 C20.3883677,53.9946242 13.7281874,51.2359168 8.71877856,46.2263978 C3.70936974,41.2170992 0.950552104,34.5568086 0.950552104,27.4726102" id="Fill-3" fill="#F8F8F8"></path>
                    <path d="M27.4726102,2.04357515 C13.4287625,2.04357515 2.04354208,13.4287956 2.04354208,27.4726433 C2.04354208,41.516491 13.4287625,52.9017114 27.4726102,52.9017114 C41.5164579,52.9017114 52.9016784,41.516491 52.9016784,27.4726433 C52.9016784,13.4287956 41.5164579,2.04357515 27.4726102,2.04357515" id="Fill-5" fill="#212121"></path>
                    <path d="M27.4726102,43.7158076 C18.5018788,43.7158076 11.2294238,36.4433527 11.2294238,27.4726212 C11.2294238,18.5018898 18.5018788,11.2294349 27.4726102,11.2294349 C36.4433417,11.2294349 43.7157966,18.5018898 43.7157966,27.4726212 C43.7157966,36.4433527 36.4433417,43.7158076 27.4726102,43.7158076" id="Fill-7" fill="#F8F8F8"></path>
                    <path d="M12.2743577,27.4726102 L27.4726543,27.4726102 L27.4726543,12.2743136 C19.0789269,12.2743136 12.2743577,19.078993 12.2743577,27.4726102" id="Fill-9" fill="#212121" opacity="0.645114272"></path>
                    <path d="M27.4726102,27.4726102 L27.4726102,42.6709068 C35.8662275,42.6709068 42.6709068,35.8662275 42.6709068,27.4726102 L27.4726102,27.4726102 Z" id="Fill-11" fill="#212121" opacity="0.645114272"></path>
                    <path d="M15.5357585,11.9746904 C14.9973317,11.4514739 14.1650571,11.2936383 13.3837044,11.7780571 C13.5329429,11.3912936 13.471991,10.9965942 13.3927425,10.7787986 C13.0561293,10.1648707 12.9386343,10.0881573 12.6612094,9.85537174 C11.7631333,9.10179459 10.817993,9.7451513 10.142011,10.5507525 L6.87595892,14.4429669 L12.0101373,18.7511533 L15.4544158,14.6465441 C16.2413898,13.7085681 16.3631834,12.7788587 15.5357585,11.9746904" id="Fill-13" fill="#F8F8F8"></path>
                    <polygon id="Fill-15" fill="#F8F8F8" points="28.3233246 10.1252685 30.086521 5.45181162 30.086521 10.1252685 31.4265812 10.1252685 31.4265812 3.43191182 29.4132946 3.43191182 27.581982 8.22418637 27.6009399 8.22418637 25.769517 3.43191182 23.7562305 3.43191182 23.7562305 10.1252685 25.0962906 10.1252685 25.0962906 5.45181162 26.859487 10.1252685"></polygon>
                    <polygon id="Fill-17" fill="#F8F8F8" points="46.3399469 12.9098447 43.817001 16.4817585 47.7283938 14.6247645 48.7640251 15.9037625 42.6077725 18.887981 41.3922615 17.374985 43.8136944 13.8343737 43.7993657 13.8166283 39.8326423 15.448993 38.6054479 13.945476 42.8044058 8.54434369 43.8401473 9.82323146 41.210508 13.262991 45.2288146 11.5378206"></polygon>
                    <path d="M10.8556994,11.5140571 C11.0829739,11.2432455 11.5966012,11.2542675 11.9269319,11.5313617 C12.2901082,11.8361212 12.29099,12.2681854 12.0470721,12.5588367 L10.1076333,14.8702695 L8.89399599,13.8519429 L10.8556994,11.5140571 Z" id="Fill-19" fill="#212121"></path>
                    <path d="M14.3065912,14.2408337 L12.2616713,16.6778076 L10.979477,15.6018357 L13.0409299,13.145022 C13.2737154,12.8675972 13.7926333,12.7868056 14.1428036,13.0805431 C14.5389359,13.4129679 14.5781743,13.9171162 14.3065912,14.2408337" id="Fill-21" fill="#212121"></path>
                </g>
                <rect id="Rectangle-Copy-9" fill="#D8D8D8" opacity="0" x="0" y="0" width="55" height="80"></rect>
            </g>
        </g>
    </g>
</svg>