<?xml version="1.0" encoding="UTF-8" standalone="no"?>
<svg width="317px" height="150px" viewBox="0 0 317 150" version="1.1" xmlns="http://www.w3.org/2000/svg" xmlns:xlink="http://www.w3.org/1999/xlink">
    <!-- Generator: sketchtool 40.1 (33804) - http://www.bohemiancoding.com/sketch -->
    <title>FE8A5F74-954A-40A4-BA5B-3F83D640FBA3</title>
    <desc>Created with sketchtool.</desc>
    <defs></defs>
    <g id="Symbols" stroke="none" stroke-width="1" fill="none" fill-rule="evenodd">
        <g id="Camden-fact" transform="translate(-136.000000, -60.000000)" fill="#F8F8F8">
            <g id="10weeks">
                <g transform="translate(136.000000, 60.000000)">
                    <path d="M316.765625,100.546875 C316.218748,98.7499875 315.046888,97.8515625 313.25,97.8515625 L309.5,97.8515625 L309.5,101.601562 L309.5,103.710938 C309.5,105.273442 308.95313,106.601557 307.859375,107.695312 C306.76562,108.789067 305.437505,109.335938 303.875,109.335938 C302.312495,109.335938 300.98438,108.789067 299.890625,107.695312 C298.79687,106.601557 298.25,105.273442 298.25,103.710938 L298.25,101.601562 L298.25,97.8515625 L275.75,97.8515625 L275.75,101.601562 L275.75,103.710938 C275.75,105.273442 275.20313,106.601557 274.109375,107.695312 C273.01562,108.789067 271.687505,109.335938 270.125,109.335938 C268.562495,109.335938 267.23438,108.789067 266.140625,107.695312 C265.04687,106.601557 264.5,105.273442 264.5,103.710938 L264.5,101.601562 L264.5,97.8515625 L260.75,97.8515625 C258.953116,97.8515625 257.781252,98.7499875 257.234375,100.546875 L257,100.546875 L257,101.601562 L257,113.320312 L257,146.25 C257,147.26563 257.37109,148.144528 258.113281,148.886719 C258.855472,149.62891 259.73437,150 260.75,150 L313.25,150 C314.265627,150 315.14453,149.62891 315.886715,148.886719 C316.628908,148.144528 317,147.26563 317,146.25 L317,113.320312 L317,101.601562 L317,100.546875 L316.765625,100.546875 Z M313.25,146.25 L260.75,146.25 L260.75,116.25 L313.25,116.25 L313.25,146.25 Z M270.06641,105.585938 C270.57422,105.585938 271.023433,105.41016 271.414062,105.05859 C271.804692,104.707027 272,104.257815 272,103.710938 L272,91.875 C272,91.3281225 271.804692,90.87891 271.414062,90.52734 C271.023433,90.1757775 270.57422,90 270.06641,90 C269.558592,90 269.12891,90.1757775 268.77734,90.52734 C268.425777,90.87891 268.25,91.3281225 268.25,91.875 L268.25,103.710938 C268.25,104.257815 268.425777,104.707027 268.77734,105.05859 C269.12891,105.41016 269.558592,105.585938 270.06641,105.585938 L270.06641,105.585938 Z M303.875,105.585938 C304.421877,105.585938 304.87109,105.41016 305.22266,105.05859 C305.574223,104.707027 305.75,104.257815 305.75,103.710938 L305.75,91.875 C305.75,91.3281225 305.574223,90.87891 305.22266,90.52734 C304.87109,90.1757775 304.421877,90 303.875,90 C303.328123,90 302.87891,90.1757775 302.52734,90.52734 C302.175777,90.87891 302,91.3281225 302,91.875 L302,103.710938 C302,104.257815 302.175777,104.707027 302.52734,105.05859 C302.87891,105.41016 303.328123,105.585938 303.875,105.585938 L303.875,105.585938 Z" id="Calendar"></path>
                    <path d="M1.12612613,146.396396 L99.7747748,146.396396 L99.7747748,125.900901 L71.1711712,125.900901 L71.1711712,1.57657658 L47.2972973,1.57657658 C39.1891892,13.963964 21.8468468,20.2702703 0,19.3693694 L0,36.9369369 C5.40540541,38.5135135 12.6126126,39.6396396 19.3693694,39.6396396 C24.0990991,39.6396396 28.1531532,39.1891892 30.8558559,38.5135135 L30.8558559,125.900901 L1.12612613,125.900901 L1.12612613,146.396396 Z M174.099099,150 C209.90991,150 236.486486,122.972973 236.486486,74.3243243 C236.486486,26.3513514 210.36036,0 174.099099,0 C138.513514,0 111.711712,27.4774775 111.711712,75.6756757 C111.711712,123.648649 137.837838,150 174.099099,150 L174.099099,150 Z M174.774775,131.306306 C162.387387,131.306306 154.504505,118.468468 154.504505,75.2252252 C154.504505,31.981982 161.261261,18.6936937 173.423423,18.6936937 C185.810811,18.6936937 193.693694,31.5315315 193.693694,74.7747748 C193.693694,118.018018 186.936937,131.306306 174.774775,131.306306 L174.774775,131.306306 Z" id="10"></path>
                </g>
            </g>
        </g>
    </g>
</svg>