<?xml version="1.0" encoding="UTF-8" standalone="no"?>
<svg width="123px" height="80px" viewBox="0 0 123 80" version="1.1" xmlns="http://www.w3.org/2000/svg" xmlns:xlink="http://www.w3.org/1999/xlink">
    <!-- Generator: Sketch 40.1 (33804) - http://www.bohemiancoding.com/sketch -->
    <title>Camden Market logo</title>
    <desc>Created with Sketch.</desc>
    <defs>
        <polygon id="path-1" points="17.5476604 0.0288222194 0.000259803684 0.0288222194 0.000259803684 18.6788495 17.5476604 18.6788495 17.5476604 0.0288222194"></polygon>
        <polygon id="path-3" points="0.0569489676 18.1759147 21.1670375 18.1759147 21.1670375 0.174231615 0.0569489676 0.174231615 0.0569489676 18.1759147"></polygon>
    </defs>
    <g id="Symbols" stroke="none" stroke-width="1" fill="none" fill-rule="evenodd">
        <g id="Camden-Market-logo">
            <g>
                <rect id="Rectangle-Copy-20" fill="#D8D8D8" opacity="0" x="0" y="0" width="123" height="80"></rect>
                <g id="Camden-market-logo-Copy-2" transform="translate(0.000000, 18.000000)">
                    <g id="Group-3" transform="translate(0.000000, 0.052692)">
                        <mask id="mask-2" fill="white">
                            <use xlink:href="#path-1"></use>
                        </mask>
                        <g id="Clip-2"></g>
                        <path d="M9.32851108,18.6788495 C12.6061944,18.6788495 15.6833092,16.923031 17.3595626,14.0955973 L17.5476604,13.7777739 L17.2247245,13.6001667 C16.8293033,13.3820526 16.3195684,13.1088907 15.8139905,12.8372867 C15.299839,12.5610088 14.7898443,12.2875872 14.4094917,12.0770033 L14.1112371,11.9128984 L13.9319726,12.2024189 C12.9403019,13.8068558 11.2191025,14.7655191 9.32851108,14.7655191 C6.34258734,14.7655191 3.91316309,12.3371822 3.91316309,9.35213508 C3.91316309,6.36890554 6.34310695,3.94134762 9.3292905,3.94134762 C11.0393183,3.94134762 12.6555571,4.76213173 13.6752865,6.1414437 L13.6752865,7.9040133 L17.406587,7.9040133 L17.406587,0.274693927 L13.6752865,0.274693927 L13.6752865,1.26685339 C12.3770475,0.454638054 10.8868136,0.0287962534 9.32513364,0.0287962534 C4.18335892,0.0287962534 0,4.21139364 0,9.35213508 C0,14.4952135 4.18465794,18.6788495 9.32851108,18.6788495" id="Fill-1" fill="#F8F8F8" mask="url(#mask-2)"></path>
                    </g>
                    <polygon id="Fill-4" fill="#F8F8F8" points="49.2775623 14.4708646 47.8278578 14.4708646 47.8278578 7.04200245 53.0031472 14.3350626 58.1922061 7.02927913 58.1922061 14.4708646 56.7250947 14.4708646 56.7250947 18.3860126 63.556113 18.3860126 63.556113 14.4708646 62.1077075 14.4708646 62.1077075 4.29090863 63.556113 4.29090863 63.556113 0.38225215 58.1649268 0.38225215 53.0057452 7.61169569 47.8530587 0.38225215 42.4457647 0.38225215 42.4457647 4.29324556 43.9123564 4.29324556 43.9123564 14.4708646 42.4457647 14.4708646 42.4457647 18.3860126 49.2775623 18.3860126"></polygon>
                    <path d="M72.6742351,14.4708646 L72.6742351,4.29194726 L74.3998511,4.29324556 C77.2067701,4.29324556 79.4904445,6.57617307 79.4904445,9.3825744 C79.4904445,12.1858598 77.20703,14.4685277 74.4008904,14.4708646 L72.6742351,14.4708646 Z M83.3703528,9.3825744 C83.3703528,4.42177708 79.3314447,0.383810108 74.3676355,0.38225215 L67.2968184,0.377837937 L67.2968184,4.29090863 L68.759773,4.29090863 L68.759773,14.4708646 L67.2968184,14.4708646 L67.2968184,18.3815983 L74.3663365,18.3815983 C79.3309251,18.3815983 83.3703528,14.34467 83.3703528,9.3825744 L83.3703528,9.3825744 Z" id="Fill-6" fill="#F8F8F8"></path>
                    <polygon id="Fill-8" fill="#F8F8F8" points="100.841995 15.1369435 97.8412621 12.6268138 96.2985478 14.4706569 91.4843855 14.4706569 91.4843855 11.3830441 96.0566706 11.3830441 96.0566706 7.47205074 91.4843855 7.47205074 91.4843855 4.29096056 96.2985478 4.29096056 97.8412621 6.13480362 100.841995 3.622337 98.128605 0.377630209 86.1030718 0.377630209 86.1030718 4.29096056 87.571742 4.29096056 87.571742 14.4706569 86.1030718 14.4706569 86.1030718 18.3858048 98.128605 18.3819099"></polygon>
                    <path d="M31.3353121,9.14129866 L27.9908592,9.14129866 L29.6663332,4.80965664 L31.3353121,9.14129866 Z M27.2561344,14.4710723 L25.9488023,14.4710723 L26.7269143,12.5727007 L32.5951001,12.5727007 L33.3682759,14.4710723 L32.0552281,14.4710723 L32.0552281,18.3818061 L39.1611186,18.3818061 L39.1611186,14.4710723 L37.5373456,14.4710723 L33.5901482,4.29111635 L34.3734563,4.29111635 L34.3734563,0.377526345 L24.9438816,0.377526345 L24.9438816,4.29111635 L25.7435574,4.29111635 L21.7794727,14.4710723 L20.1518027,14.4710723 L20.1518027,18.3818061 L27.2561344,18.3818061 L27.2561344,14.4710723 Z" id="Fill-10" fill="#F8F8F8"></path>
                    <polygon id="Fill-12" fill="#F8F8F8" points="110.794061 14.4708646 109.345135 14.4708646 109.345135 6.77637065 116.914256 18.3701733 120.665561 18.3740682 120.665561 4.29090863 122.114227 4.29090863 122.114227 0.377837937 115.283728 0.377837937 115.283728 4.29090863 116.752658 4.29090863 116.752658 10.639327 109.981914 0.38225215 103.963302 0.377318617 103.963302 4.29090863 105.429894 4.29090863 105.429894 14.4708646 103.963302 14.4708646 103.963302 18.3815983 110.794061 18.3815983"></polygon>
                    <polygon id="Fill-14" fill="#F8F8F8" points="98.7328823 45.9897012 93.9189799 45.9897012 93.9189799 42.8981936 98.4910051 42.8981936 98.4910051 38.9910951 93.9189799 38.9910951 93.9189799 35.8100049 98.7331421 35.8100049 100.274557 37.65229 103.27555 35.1395638 100.5619 31.8971939 88.5374064 31.8971939 88.5374064 35.8050714 90.0052972 35.809226 90.0052972 45.9897012 88.5374064 45.9897012 88.5374064 49.901214 100.5619 49.8965401 103.27555 46.6541702 100.274298 44.1458582"></polygon>
                    <path d="M36.0055431,40.6639523 L32.6621295,40.6639523 L34.3373436,36.3343876 L36.0055431,40.6639523 Z M38.2603793,35.8166263 L39.0436874,35.8166263 L39.0436874,31.9027766 L29.6161911,31.9027766 L29.6161911,35.8166263 L30.4137884,35.8166263 L26.4510028,45.993726 L24.8230729,45.993726 L24.8230729,49.9070563 L31.9263654,49.9070563 L31.9263654,45.993726 L30.6195529,45.993726 L31.3976649,44.095614 L37.265591,44.095614 L38.0392863,45.993726 L36.7272777,45.993726 L36.7272777,49.9070563 L43.8323889,49.9070563 L43.8323889,45.993726 L42.2073168,45.993726 L38.2603793,35.8166263 Z" id="Fill-16" fill="#F8F8F8"></path>
                    <g id="Group-20" transform="translate(0.000000, 31.731168)">
                        <mask id="mask-4" fill="white">
                            <use xlink:href="#path-3"></use>
                        </mask>
                        <g id="Clip-19"></g>
                        <polygon id="Fill-18" fill="#F8F8F8" mask="url(#mask-4)" points="10.6161501 7.40549277 5.46320383 0.174231615 0.0569489676 0.174231615 0.0569489676 4.08678298 1.52224175 4.08678298 1.52224175 14.2625844 0.0569489676 14.2625844 0.0569489676 18.1761744 6.88744763 18.1761744 6.88744763 14.2625844 5.43878229 14.2625844 5.43878229 6.8321643 10.6138119 14.1273017 15.8028709 6.82281655 15.8028709 14.2625844 14.3375781 14.2625844 14.3375781 18.1761744 21.1670375 18.1761744 21.1670375 14.2625844 19.7188918 14.2625844 19.7188918 4.08522503 21.1670375 4.08522503 21.1670375 0.174231615 15.7753317 0.174231615"></polygon>
                    </g>
                    <path d="M52.7727792,35.8098751 L56.2071241,35.8098751 C57.4869171,35.8098751 58.5279504,36.8526682 58.5279504,38.1346078 C58.5279504,39.5058703 57.3744221,40.3266544 56.2601241,40.3289914 L52.7727792,40.3289914 L52.7727792,35.8098751 Z M59.1366705,43.3129999 C61.1865215,42.3470661 62.4424126,40.3975415 62.4424126,38.1346078 C62.4424126,34.6954159 59.6497828,31.8973237 56.2169967,31.8973237 L47.3457401,31.8973237 L47.3457401,35.8098751 L48.8583171,35.8098751 L48.8583171,45.9898311 L47.3457401,45.9898311 L47.3457401,49.9010841 L54.0403614,49.9010841 L54.0403614,45.9898311 L52.7727792,45.9898311 L52.7727792,43.973574 L54.7039,43.973574 C54.7397529,43.973574 54.8699146,43.9725354 54.9969586,43.9678615 L58.4172741,49.9010841 L63.3608186,49.9010841 L63.3608186,45.9898311 L60.6822426,45.9898311 L59.1366705,43.3129999 Z" id="Fill-21" fill="#F8F8F8"></path>
                    <polygon id="Fill-23" fill="#F8F8F8" points="119.490729 31.8845225 107.892053 31.8845225 105.177105 35.1315662 108.179136 37.6396186 109.720552 35.7978529 111.737668 35.7978529 111.737668 45.9793668 109.916703 45.9793668 109.916703 49.8908795 117.476991 49.8908795 117.476991 45.9793668 115.653169 45.9793668 115.653169 35.7978529 117.66327 35.7978529 119.203126 37.6396186 122.206717 35.1315662"></polygon>
                    <polygon id="Fill-25" fill="#F8F8F8" points="77.8331308 40.0987771 82.4482835 35.8097193 84.457865 35.8097193 84.457865 31.8989856 77.324695 31.8989856 77.324695 35.8097193 77.4099106 35.8097193 72.7978756 40.1873211 72.7978756 35.8097193 74.7934277 35.8097193 74.7934277 31.8989856 67.4163021 31.8989856 67.4163021 35.8097193 68.8823743 35.8097193 68.8823743 45.9896753 67.4163021 45.9896753 67.4163021 49.9009283 74.5208937 49.9009283 74.5208937 45.9896753 72.8111256 45.9896753 72.8111256 44.8728792 75.1070108 42.6748604 78.2064687 45.9896753 77.0056561 45.9896753 77.0056561 49.9009283 84.5646443 49.9009283 84.5646443 45.9896753 83.3100523 45.9896753"></polygon>
                </g>
            </g>
        </g>
    </g>
</svg>