<?xml version="1.0" encoding="UTF-8" standalone="no"?>
<svg width="270px" height="80px" viewBox="0 0 270 80" version="1.1" xmlns="http://www.w3.org/2000/svg" xmlns:xlink="http://www.w3.org/1999/xlink">
    <!-- Generator: Sketch 40.1 (33804) - http://www.bohemiancoding.com/sketch -->
    <title>Ft logo</title>
    <desc>Created with Sketch.</desc>
    <defs>
        <polygon id="path-1" points="0.0259764706 0.138108235 0.0259764706 21.3007059 16.3136565 21.3007059 16.3136565 0.138108235 0.0259764706 0.138108235"></polygon>
    </defs>
    <g id="Symbols" stroke="none" stroke-width="1" fill="none" fill-rule="evenodd">
        <g id="Ft-logo">
            <g>
                <g id="Group-10-Copy-3" transform="translate(1.000000, 33.000000)">
                    <g id="Group-3" transform="translate(0.000000, 0.432941)">
                        <mask id="mask-2" fill="white">
                            <use xlink:href="#path-1"></use>
                        </mask>
                        <g id="Clip-2"></g>
                        <path d="M6.44216471,18.4952471 C6.44216471,20.0192 6.85778824,20.3655529 9.66324706,20.3655529 L9.66324706,21.3007059 L0,21.3007059 L0,20.3655529 C1.90494118,20.3655529 2.56301176,20.1923765 2.56301176,18.5298824 L2.56301176,3.08210824 C2.56301176,1.41961412 1.90494118,1.24643765 0,1.24643765 L0,0.311284706 L13.2657506,0.311284706 C15.0321506,0.311284706 15.6555859,0.242447059 16.2097506,0.138108235 L16.3136565,6.06074353 L15.5170447,6.06074353 C15.0667859,1.73133176 13.9930918,1.35034353 9.97496471,1.35034353 L6.44216471,1.35034353 L6.44216471,9.94032941 L9.31689412,9.94032941 C12.0535153,9.94032941 12.2266918,9.49007059 12.4345035,7.34224941 L13.1960471,7.34224941 L13.1960471,13.6112376 L12.4345035,13.6112376 C12.2266918,11.4638494 12.0535153,11.0482259 9.31689412,11.0482259 L6.44216471,11.0482259 L6.44216471,18.4952471" id="Fill-1" fill="#F8F8F8" mask="url(#mask-2)"></path>
                    </g>
                    <path d="M18.2523671,21.7336471 L18.2523671,20.7984941 C20.1573082,20.7984941 20.8153788,20.6253176 20.8153788,18.9628235 L20.8153788,3.51504941 C20.8153788,1.85255529 20.1573082,1.67937882 18.2523671,1.67937882 L18.2523671,0.744225882 L27.2579765,0.744225882 L27.2579765,1.67937882 C25.3530353,1.67937882 24.6949647,1.85255529 24.6949647,3.51504941 L24.6949647,18.9628235 C24.6949647,20.6253176 25.3530353,20.7984941 27.2579765,20.7984941 L27.2579765,21.7336471 L18.2523671,21.7336471" id="Fill-4" fill="#F8F8F8"></path>
                    <path d="M47.6928,22.08 L33.3537882,4.27702588 L33.3537882,18.8584847 C33.3537882,20.5560471 34.5309553,20.7984941 36.5051671,20.7984941 L36.5051671,21.7336471 L28.8854024,21.7336471 L28.8854024,20.7984941 C30.8596141,20.7984941 31.9679435,20.5560471 31.9679435,18.8584847 L31.9679435,2.68380235 C31.0327906,1.74864941 30.37472,1.67937882 28.8854024,1.67937882 L28.8854024,0.744225882 L35.6392847,0.744225882 L46.6537412,14.9100612 L46.6537412,3.61895529 C46.6537412,1.92182588 45.4761412,1.67937882 43.5019294,1.67937882 L43.5019294,0.744225882 L51.1216941,0.744225882 L51.1216941,1.67937882 C49.1474824,1.67937882 48.0391529,1.92182588 48.0391529,3.61895529 L48.0391529,22.08 L47.6928,22.08" id="Fill-5" fill="#F8F8F8"></path>
                    <path d="M57.6673318,12.2431435 L63.3821553,12.2431435 L60.40352,4.72728471 L57.6673318,12.2431435 L57.6673318,12.2431435 Z M57.9786165,21.7336471 L50.3934871,21.7336471 L50.3934871,20.7984941 C52.4023341,20.7984941 53.3028518,20.5214118 53.92672,18.8242824 L60.7845082,0.571049412 L62.6894494,0.571049412 L70.0667671,18.9628235 C70.7248376,20.5906824 71.0365553,20.7984941 72.5263059,20.7984941 L72.5263059,21.7336471 L63.7285082,21.7336471 L63.7285082,20.7984941 C66.4300612,20.7984941 66.6725082,20.5906824 66.0144376,18.9628235 L63.8324141,13.3865412 L57.2517082,13.3865412 L55.3116988,18.7896471 C54.6882635,20.4521412 55.6584847,20.7984941 57.9786165,20.7984941 L57.9786165,21.7336471 L57.9786165,21.7336471 Z" id="Fill-6" fill="#F8F8F8"></path>
                    <path d="M92.2675576,22.08 L77.9285459,4.27702588 L77.9285459,18.8584847 C77.9285459,20.5560471 79.1061459,20.7984941 81.0803576,20.7984941 L81.0803576,21.7336471 L73.6333365,21.7336471 L73.6333365,20.7984941 C75.4690071,20.7984941 76.5427012,20.5560471 76.5427012,18.8584847 L76.5427012,2.71843765 C75.5036424,1.74864941 74.7074635,1.67937882 73.0099012,1.67937882 L73.0099012,0.744225882 L80.2144753,0.744225882 L91.2284988,14.9100612 L91.2284988,3.61895529 C91.2284988,1.92182588 90.0508988,1.67937882 88.0766871,1.67937882 L88.0766871,0.744225882 L95.6968847,0.744225882 L95.6968847,1.67937882 C93.7226729,1.67937882 92.6139106,1.92182588 92.6139106,3.61895529 L92.6139106,22.08 L92.2675576,22.08" id="Fill-7" fill="#F8F8F8"></path>
                    <path d="M113.533628,0.709590588 L114.053158,0.709590588 L114.364875,6.97857882 L113.568264,7.01321412 C113.048734,3.41114353 111.143793,1.54127059 107.645628,1.54127059 C103.766475,1.54127059 100.787407,4.86582588 100.787407,9.99184941 C100.787407,16.5383529 104.90944,20.2443294 109.238852,20.2443294 C111.109158,20.2443294 112.806287,19.7248 114.434146,17.9584 L115.022946,18.5818353 C113.672169,20.4867765 111.039887,22.08 107.472452,22.08 C102.173252,22.08 96.8043482,18.0969412 96.8043482,11.4118965 C96.8043482,4.96973176 101.687925,0.397872941 107.610993,0.397872941 C110.416452,0.397872941 111.905769,1.61010824 112.667746,1.61010824 C113.083369,1.61010824 113.325816,1.29839059 113.533628,0.709590588" id="Fill-8" fill="#F8F8F8"></path>
                    <path d="M116.753845,21.7336471 L116.753845,20.7984941 C118.658786,20.7984941 119.316856,20.6253176 119.316856,18.9628235 L119.316856,3.51504941 C119.316856,1.85255529 118.658786,1.67937882 116.753845,1.67937882 L116.753845,0.744225882 L125.759454,0.744225882 L125.759454,1.67937882 C123.854513,1.67937882 123.196442,1.85255529 123.196442,3.51504941 L123.196442,18.9628235 C123.196442,20.6253176 123.854513,20.7984941 125.759454,20.7984941 L125.759454,21.7336471 L116.753845,21.7336471" id="Fill-9" fill="#F8F8F8"></path>
                    <path d="M133.967586,12.2431435 L139.682409,12.2431435 L136.703774,4.72728471 L133.967586,12.2431435 L133.967586,12.2431435 Z M134.279304,21.7336471 L127.213704,21.7336471 L127.213704,20.7984941 C128.772292,20.7984941 129.603539,20.5214118 130.226974,18.8242824 L137.084762,0.571049412 L138.990136,0.571049412 L146.367887,18.9628235 C147.025525,20.5906824 147.336809,20.7984941 148.82656,20.7984941 L148.82656,21.7336471 L140.029195,21.7336471 L140.029195,20.7984941 C142.730748,20.7984941 142.972762,20.5906824 142.314692,18.9628235 L140.133101,13.3865412 L133.551962,13.3865412 L131.612386,18.7896471 C130.988951,20.4521412 131.958739,20.7984941 134.279304,20.7984941 L134.279304,21.7336471 L134.279304,21.7336471 Z" id="Fill-10" fill="#F8F8F8"></path>
                    <path d="M150.280376,21.7336471 L150.280376,20.7984941 C152.185318,20.7984941 152.843388,20.6253176 152.843388,18.9628235 L152.843388,3.51504941 C152.843388,1.85255529 152.185318,1.67937882 150.280376,1.67937882 L150.280376,0.744225882 L159.250918,0.744225882 L159.250918,1.67937882 C157.345976,1.67937882 156.722974,1.85255529 156.722974,3.51504941 L156.722974,19.1013647 C156.722974,20.4867765 157.415247,20.6599529 158.558645,20.6599529 L159.632339,20.6599529 C163.684668,20.6599529 165.001242,20.0711529 166.108706,15.4300235 L166.871548,15.5339294 L166.213045,21.7336471 L150.280376,21.7336471" id="Fill-11" fill="#F8F8F8"></path>
                    <path d="M193.92128,0.571049412 L194.025186,6.84047059 L193.227708,6.84047059 C192.777882,2.33744941 191.703755,1.78328471 187.686494,1.78328471 L186.404555,1.78328471 L186.404555,18.9281882 C186.404555,20.5560471 187.027991,20.7984941 189.625638,20.7984941 L189.625638,21.7336471 L179.269685,21.7336471 L179.269685,20.7984941 C181.867332,20.7984941 182.524969,20.5560471 182.524969,18.9281882 L182.524969,1.78328471 L181.243896,1.78328471 C177.225769,1.78328471 176.152941,2.33744941 175.701816,6.84047059 L174.905638,6.84047059 L175.009544,0.571049412 C175.563275,0.675388235 176.187576,0.744225882 177.953976,0.744225882 L190.976847,0.744225882 C192.743247,0.744225882 193.366249,0.675388235 193.92128,0.571049412" id="Fill-12" fill="#F8F8F8"></path>
                    <path d="M195.963896,21.7336471 L195.963896,20.7984941 C197.869271,20.7984941 198.526908,20.6253176 198.526908,18.9628235 L198.526908,3.51504941 C198.526908,1.85255529 197.869271,1.67937882 195.963896,1.67937882 L195.963896,0.744225882 L204.969506,0.744225882 L204.969506,1.67937882 C203.064565,1.67937882 202.405628,1.85255529 202.405628,3.51504941 L202.405628,18.9628235 C202.405628,20.6253176 203.064565,20.7984941 204.969506,20.7984941 L204.969506,21.7336471 L195.963896,21.7336471" id="Fill-13" fill="#F8F8F8"></path>
                    <path d="M232.054739,0.744225882 L232.054739,1.67937882 C230.149365,1.67937882 229.318118,1.78328471 229.491727,3.44577882 L231.119153,19.0320941 C231.292762,20.6253176 231.915765,20.7984941 233.786504,20.7984941 L233.786504,21.7336471 L224.815529,21.7336471 L224.815529,20.7984941 C226.685835,20.7984941 227.343906,20.6253176 227.204932,19.0320941 L225.508235,2.64916706 L218.892894,22.08 L218.615812,22.08 L212.207849,2.64916706 L210.614626,18.9974588 C210.441449,20.6599529 211.584414,20.7984941 213.489788,20.7984941 L213.489788,21.7336471 L206.493459,21.7336471 L206.493459,20.7984941 C208.397534,20.7984941 209.056471,20.4867765 209.195012,18.9974588 L210.788235,3.44577882 C210.961412,1.78328471 210.129299,1.67937882 208.225224,1.67937882 L208.225224,0.744225882 L215.602108,0.744225882 L220.035426,15.0836706 L224.815529,0.744225882 L232.054739,0.744225882" id="Fill-14" fill="#F8F8F8"></path>
                    <path d="M248.817355,14.0441788 L248.054946,14.0441788 C247.847567,11.8967906 247.674391,11.4811671 244.937769,11.4811671 L241.750889,11.4811671 L241.750889,19.1013647 C241.750889,20.4867765 242.444461,20.6599529 243.58656,20.6599529 L245.318325,20.6599529 C249.37152,20.6599529 250.687228,20.0711529 251.795558,15.4300235 L252.557534,15.5339294 L251.830193,21.7336471 L235.309158,21.7336471 L235.309158,20.7984941 C237.214532,20.7984941 237.872169,20.6253176 237.872169,18.9628235 L237.872169,3.51504941 C237.872169,1.85255529 237.214532,1.67937882 235.309158,1.67937882 L235.309158,0.744225882 L251.172555,0.744225882 L251.241826,5.97458824 L250.445214,5.97458824 C249.959887,2.26817882 249.024734,1.81792 244.868499,1.81792 L241.750889,1.81792 L241.750889,10.3732706 L244.937769,10.3732706 C247.674391,10.3732706 247.847567,9.92301176 248.054946,7.77519059 L248.817355,7.77519059 L248.817355,14.0441788" id="Fill-15" fill="#F8F8F8"></path>
                    <path d="M265.511134,17.4042353 C265.511134,15.4992941 264.298466,14.5290729 262.219915,13.3865412 L258.89536,11.6547765 C256.401619,10.304 254.912301,8.84888471 254.912301,6.21660235 C254.912301,2.92624941 257.717327,0.397872941 261.388668,0.397872941 C263.917045,0.397872941 265.198984,1.61010824 265.926325,1.61010824 C266.411652,1.61010824 266.619031,1.29839059 266.826842,0.709590588 L267.416075,0.709590588 L267.72736,6.59759059 L266.965384,6.63222588 C266.549327,3.79213176 264.506711,1.57547294 261.631548,1.57547294 C259.483727,1.57547294 258.029478,2.85741176 258.029478,4.69264941 C258.029478,6.70149647 259.552998,7.49810824 261.216358,8.43326118 L264.090654,9.95764706 C266.792207,11.4118965 268.697148,12.9016471 268.697148,15.7071059 C268.697148,19.4130824 265.511134,22.08 261.493007,22.08 C258.687115,22.08 257.302136,20.7292235 256.54016,20.7292235 C256.054833,20.7292235 255.813252,21.1448471 255.605007,21.8029176 L255.015774,21.8029176 L254.600584,15.5339294 L255.36256,15.4300235 C255.950927,19.3091765 258.65248,20.9370353 261.354033,20.9370353 C263.606193,20.9370353 265.511134,19.9326118 265.511134,17.4042353" id="Fill-16" fill="#F8F8F8"></path>
                </g>
                <rect id="Rectangle-Copy-12" fill="#D8D8D8" opacity="0" x="0" y="0" width="270" height="80"></rect>
            </g>
        </g>
    </g>
</svg>