<?xml version="1.0" encoding="UTF-8" standalone="no"?>
<svg width="288px" height="35px" viewBox="0 0 288 35" version="1.1" xmlns="http://www.w3.org/2000/svg" xmlns:xlink="http://www.w3.org/1999/xlink">
    <!-- Generator: sketchtool 40.1 (33804) - http://www.bohemiancoding.com/sketch -->
    <title>64FC6FA0-FB8A-44A6-B007-49EA86E1BA2C</title>
    <desc>Created with sketchtool.</desc>
    <defs></defs>
    <g id="Symbols" stroke="none" stroke-width="1" fill="none" fill-rule="evenodd">
        <g id="F&amp;M-fact" transform="translate(-149.000000, -430.000000)">
            <g id="F&amp;M-logo">
                <g transform="translate(149.000000, 396.000000)">
                    <g>
                        <rect id="Rectangle-Copy-17" fill="#D8D8D8" opacity="0" x="0" y="0" width="288" height="80"></rect>
                        <g id="F&amp;M-logo-Copy" transform="translate(0.000000, 34.000000)" fill="#F8F8F8">
                            <path d="M164.974642,34.3403806 C164.200463,34.3403806 164.059418,33.4162761 164.059418,30.8090373 C164.059418,28.3271716 164.264716,27.6094104 164.974642,27.6094104 C165.760313,27.6094104 165.888821,28.6029925 165.888821,30.9819478 C165.888821,33.3509776 165.760313,34.3403806 164.974642,34.3403806 M164.974642,27.0556791 C163.508821,27.0556791 162.406582,28.7435149 162.406582,30.9819478 C162.406582,33.2496343 163.486358,34.8946343 164.974642,34.8946343 C166.438373,34.8946343 167.541657,33.2130672 167.541657,30.9819478 C167.541657,28.7435149 166.438373,27.0556791 164.974642,27.0556791" id="Fill-1"></path>
                            <path d="M133.956336,27.2417015 L133.954246,27.2417015 L130.968799,27.2417015 L130.861187,29.9513284 L131.318276,29.9513284 C131.454097,28.5084925 132.174993,27.7473731 132.76947,27.7473731 C133.118948,27.7473731 133.203052,28.0059552 133.203052,28.6714776 L133.203052,33.5202836 C133.203052,33.9684925 133.100664,34.0990896 132.745963,34.0990896 L132.08253,34.0990896 L132.08253,34.6455075 L133.954246,34.6455075 L133.956336,34.6455075 L135.828052,34.6455075 L135.828052,34.0990896 L135.165142,34.0990896 C134.81044,34.0990896 134.70753,33.9684925 134.70753,33.5202836 L134.70753,28.6714776 C134.70753,28.0059552 134.791634,27.7473731 135.141112,27.7473731 C135.73559,27.7473731 136.456485,28.5084925 136.592306,29.9513284 L137.049396,29.9513284 L136.941784,27.2417015 L133.956336,27.2417015 Z" id="Fill-3"></path>
                            <path d="M125.084672,29.9755672 L124.886687,29.8914627 C123.957358,29.4954925 123.489299,29.2975075 123.489299,28.6116119 C123.489299,28.0646716 123.91191,27.6854179 124.513701,27.6854179 C125.354746,27.6854179 126.119522,28.5013881 126.517582,29.8935522 L126.986687,29.8935522 L126.986687,27.2048209 L126.525418,27.2048209 C126.466388,27.3307164 126.335791,27.7172836 126.227657,27.7172836 C126.110642,27.7172836 125.404373,27.0721343 124.366388,27.0721343 C123.163851,27.0721343 122.222507,28.0166119 122.222507,29.2243731 C122.222507,30.3945224 122.925642,30.9111642 124.219597,31.4596716 C125.426313,31.9710896 126.109075,32.3022836 126.109075,33.1422836 C126.109075,33.7487761 125.683851,34.1692985 125.074746,34.1692985 C124.03206,34.1692985 123.112657,33.1887761 122.804448,31.6341493 L122.291985,31.6341493 L122.241836,34.6488507 L122.742806,34.6488507 C122.834746,34.4534776 122.952806,34.0564627 123.105343,34.0564627 C123.285567,34.0564627 123.91609,34.8149701 125.084672,34.8149701 C126.425642,34.8149701 127.364896,33.8297463 127.364896,32.4161642 C127.364896,31.0187761 126.497209,30.5768358 125.084672,29.9755672" id="Fill-5"></path>
                            <path d="M115.479366,34.073597 C114.6775,34.073597 114.6775,33.9393433 114.6775,33.4352388 L114.6775,31.0813582 L114.871828,31.0813582 C115.923396,31.0813582 116.378918,31.4224776 116.39041,32.4521045 L116.988022,32.4521045 L116.988022,29.1082985 L116.388843,29.1082985 C116.378918,30.1217313 115.919216,30.4790448 114.871828,30.4790448 L114.6775,30.4790448 L114.6775,28.3414328 C114.6775,27.843597 114.6775,27.8143433 115.41459,27.8143433 C116.991157,27.8143433 117.656157,28.2515821 117.836903,29.6040448 L118.430858,29.6040448 L118.257948,27.2433731 L112.242127,27.2433731 L112.242127,27.7527015 L112.790634,27.7527015 C113.061231,27.7527015 113.144813,27.8185224 113.144813,28.2296418 L113.144813,33.6290448 C113.144813,34.041209 113.066978,34.1033731 112.790634,34.1033731 L112.242127,34.1033731 L112.242127,34.6456119 L118.283545,34.6456119 L118.486754,32.1303134 L117.904813,32.1303134 C117.689067,33.4148657 116.817201,34.073597 115.479366,34.073597" id="Fill-7"></path>
                            <path d="M150.782403,33.4461045 L150.782403,27.2009552 L150.277254,27.2009552 C149.984716,28.2175224 149.099791,28.7111791 148.164194,28.7926716 L148.164194,29.3693881 L148.512104,29.3693881 C149.155164,29.3693881 149.269045,29.4884925 149.269045,30.1712537 L149.269045,33.4461045 C149.269045,34.0003582 149.181806,34.0839403 148.604045,34.0839403 L148.135463,34.0839403 L148.135463,34.6455075 L151.86009,34.6455075 L151.86009,34.0839403 L151.446358,34.0839403 C150.869119,34.0839403 150.782403,34.0003582 150.782403,33.4461045" id="Fill-9"></path>
                            <path d="M154.869672,29.7587761 L155.48609,29.7587761 C155.610418,28.9281791 155.87109,28.6638507 156.363179,28.6638507 L158.323179,28.6638507 C158.228627,29.4756418 157.822209,30.027806 157.155642,30.6818358 C156.150045,31.6665373 155.639672,32.6334776 155.639672,33.5581045 C155.639672,34.2706418 156.026761,34.7481045 156.60609,34.7481045 C157.175493,34.7481045 157.529672,34.367806 157.529672,33.754 C157.529672,33.5701194 157.428328,33.1569104 157.428328,32.9040746 C157.428328,32.1304179 157.720343,31.6200448 158.189448,30.8014627 C158.693552,29.9186269 159.176239,28.9281791 159.135493,27.2011642 L155.07497,27.2011642 C155.053552,28.0505672 154.869672,29.7587761 154.869672,29.7587761" id="Fill-11"></path>
                            <path d="M170.724985,29.7587761 L171.339836,29.7587761 C171.463642,28.9281791 171.723791,28.6638507 172.216403,28.6638507 L174.175358,28.6638507 C174.083418,29.4756418 173.675433,30.027806 173.010433,30.6818358 C172.003269,31.6665373 171.493418,32.6334776 171.493418,33.5581045 C171.493418,34.2706418 171.882075,34.7481045 172.458269,34.7481045 C173.028716,34.7481045 173.382896,34.367806 173.382896,33.754 C173.382896,33.5701194 173.282075,33.1569104 173.282075,32.9040746 C173.282075,32.1304179 173.573567,31.6200448 174.043194,30.8014627 C174.548866,29.9186269 175.029463,28.9281791 174.988716,27.2011642 L170.928716,27.2011642 C170.908866,28.0505672 170.724985,29.7587761 170.724985,29.7587761" id="Fill-13"></path>
                            <path d="M115.494201,0.47469403 L115.494201,1.35805224 C118.204351,1.35805224 118.260246,2.72879851 118.260246,5.77954478 L118.260246,12.5987985 C118.260246,16.4085746 117.687709,18.1094701 114.298978,18.1094701 C110.931664,18.1094701 110.363306,16.4085746 110.363306,12.5987985 L110.363306,3.80909701 C110.363306,1.91126119 110.456813,1.36536567 112.530172,1.36536567 L113.030097,1.36536567 L113.030097,0.47469403 L104.34644,0.47469403 L104.34644,1.36536567 L104.721515,1.36536567 C106.771366,1.36536567 106.863306,1.91126119 106.863306,3.80909701 L106.863306,13.4194701 C106.863306,18.4051418 108.632112,20.259097 113.39159,20.259097 C117.640694,20.259097 119.618978,18.2505149 119.618978,13.940291 L119.618978,5.72469403 C119.618978,2.4535 119.826888,1.35805224 122.060619,1.35805224 L122.060619,0.47469403 L121.985396,0.47469403 L115.494201,0.47469403 Z" id="Fill-15"></path>
                            <path d="M27.6365746,19.1212313 C24.7906045,19.1212313 23.5750075,16.4225746 23.5750075,10.1022015 C23.5750075,3.7625 24.7906045,1.05600746 27.6365746,1.05600746 C30.5018731,1.05600746 31.7237388,3.7625 31.7237388,10.1022015 C31.7237388,16.4225746 30.5018731,19.1212313 27.6365746,19.1212313 M27.6365746,0.00026119403 C23.1717239,0.00026119403 19.3865,4.0033209 19.3865,10.1288433 C19.3865,15.8437687 22.8948582,20.2589925 27.6365746,20.2589925 C32.3542612,20.2589925 35.9117239,15.9054104 35.9117239,10.1288433 C35.9117239,4.35384328 32.3542612,0.00026119403 27.6365746,0.00026119403" id="Fill-17"></path>
                            <path d="M48.3474328,8.87652239 L45.9052687,8.87652239 L45.9052687,2.92652239 C45.9052687,1.74383582 45.9726567,1.5218209 48.0982537,1.5218209 C51.079,1.5218209 52.0360149,2.37540299 52.0360149,5.03383582 C52.0360149,7.65570149 50.8637761,8.87652239 48.3474328,8.87652239 L48.3474328,8.87652239 Z M57.0692239,16.0739851 C57.0692239,17.5768955 56.8325821,18.1619701 56.2219104,18.1619701 C55.4247463,18.1619701 55.3777313,17.4081642 55.3537015,15.8441343 C55.3427313,15.2198806 55.3333284,14.511 55.2502687,13.7373433 C54.9775821,11.0574925 53.8189254,9.87741791 50.8998209,9.42868657 C54.6516119,9.00450746 56.198403,7.66510448 56.198403,4.89697015 C56.198403,1.83316418 53.9928806,0.466074627 49.0448209,0.466074627 L39.8220597,0.466074627 L39.8220597,1.35726866 L41.0695224,1.35726866 C41.9962388,1.35726866 42.2652687,1.69786567 42.2652687,2.87219403 L42.2652687,17.3345075 C42.2652687,18.5088358 41.9962388,18.8468209 41.0695224,18.8468209 L39.8220597,18.8468209 L39.8220597,19.8195075 L48.3479552,19.8195075 L48.3479552,18.8468209 L47.1255672,18.8468209 C46.1904925,18.8468209 45.9052687,18.4936866 45.9052687,17.3345075 L45.9052687,10.0383134 C46.0165373,10.0357015 46.8262388,10.0383134 46.8262388,10.0383134 C50.3868358,10.0383134 51.3626567,10.8046567 51.3626567,13.6908507 L51.3370597,15.4998806 C51.3370597,18.7026418 52.479,20.2588358 54.8271343,20.2588358 C57.1381791,20.2588358 58.1667612,19.061 58.1667612,16.3764478 L58.1667612,15.7788358 L57.0692239,15.7788358 L57.0692239,16.0739851 Z" id="Fill-19"></path>
                            <path d="M62.2236269,0.46680597 L61.9436269,7.5488209 L63.0317612,7.5488209 C63.767806,3.6199403 65.5909403,1.49591045 66.9329552,1.49591045 C67.8460896,1.49591045 68.2023582,2.17240299 68.2023582,3.91247761 L68.2023582,17.3075522 C68.2023582,18.4818806 67.9338507,18.8224776 67.0066119,18.8224776 L65.1369851,18.8224776 L65.1369851,19.8202388 L74.9333284,19.8202388 L74.9333284,18.8224776 L73.0631791,18.8224776 C72.1359403,18.8224776 71.8679552,18.4818806 71.8679552,17.3075522 L71.8679552,3.91247761 C71.8679552,2.17240299 72.2237015,1.49591045 73.1378806,1.49591045 C74.477806,1.49591045 76.3401194,3.67270149 77.0385522,7.5488209 L78.1266866,7.5488209 L77.8456418,0.46680597 L62.2236269,0.46680597 Z" id="Fill-21"></path>
                            <path d="M93.7898134,1.35037313 C96.5360075,1.30597015 96.5798881,2.94731343 96.5798881,5.94007463 L96.5798881,14.5908209 C96.3087687,14.1264179 88.3010821,0.467014925 88.3010821,0.467014925 L82.4905597,0.467014925 L82.4905597,1.35820896 L83.7124254,1.35820896 C84.6396642,1.35820896 84.908694,1.69776119 84.908694,2.87208955 L84.908694,14.4858209 C84.908694,17.5856716 84.7127985,18.8477612 82.7407836,18.8477612 L82.4665299,18.8477612 L82.4665299,19.8199254 L89.006306,19.8199254 L89.006306,18.8482836 C86.3818284,18.8482836 86.2397388,17.6577612 86.2397388,14.2941045 L86.2397388,4.10597015 C86.511903,4.56671642 95.541903,19.8199254 95.541903,19.8199254 L97.8879478,19.8199254 L97.8879478,5.71962687 C97.8879478,2.63962687 98.0044403,1.35037313 100.330112,1.35037313 L100.330112,0.467014925 L93.7898134,0.467014925 L93.7898134,1.35037313 Z" id="Fill-23"></path>
                            <path d="M0,0.468320896 L0,1.35951493 L1.24641791,1.35951493 C2.1741791,1.35951493 2.44268657,1.69906716 2.44268657,2.87339552 L2.44268657,17.3372761 C2.44268657,18.5110821 2.1741791,18.8490672 1.24641791,18.8490672 L0,18.8490672 L0,19.8217537 L8.52589552,19.8217537 L8.52589552,18.8490672 L7.30350746,18.8490672 C6.37731343,18.8490672 6.10932836,18.5110821 6.10932836,17.3372761 L6.10932836,9.65973881 L6.63014925,9.65973881 C9.5858209,9.65973881 10.8332836,10.7066045 10.9461194,13.3316045 L12.0896269,13.3316045 L12.0896269,4.85115672 L10.9461194,4.85115672 C10.8108209,7.55347015 9.6119403,8.5225 6.63014925,8.5225 L6.10932836,8.5225 L6.10932836,3.17429104 C6.10932836,1.84011194 6.10932836,1.52354478 8.30126866,1.52354478 C12.450597,1.52354478 14.3092537,2.87914179 14.8170149,6.3175 L15.9605224,6.3175 L15.5232836,0.468320896 L0,0.468320896 Z" id="Fill-25"></path>
                            <path d="M214.49541,13.6162537 C214.557575,13.4276716 217.219664,5.39491045 217.358097,4.97334328 C217.490784,5.39752239 219.974739,13.4287164 220.032724,13.6162537 L214.49541,13.6162537 Z M224.413993,15.530806 C224.412425,15.530806 219.363545,0.357 219.363545,0.357 L219.311306,0.357 L217.576978,0.357 L212.88959,14.3528209 C211.905933,17.306403 211.306231,18.8484925 209.449142,18.8484925 L209.273619,18.8484925 L209.273619,19.8201343 L215.264888,19.8201343 L215.264888,18.8484925 L214.889291,18.8484925 C213.582276,18.8484925 213.320037,18.4279701 213.320037,17.7462537 C213.320037,17.0796866 213.919216,15.3333433 214.025261,15.0272239 L220.470485,15.0272239 C220.501306,15.1233433 221.325634,17.6966269 221.325634,17.9656567 C221.325634,18.6102836 220.926007,18.8484925 219.854067,18.8484925 L219.230336,18.8484925 L219.230336,19.8201343 L227.508619,19.8201343 L227.508619,18.8484925 L227.007649,18.8484925 C225.539216,18.8484925 225.17041,17.8914776 224.413993,15.530806 L224.413993,15.530806 Z" id="Fill-27"></path>
                            <path d="M238.571649,7.75876866 L238.024709,7.52787313 C235.497396,6.46533582 234.107321,5.88026119 234.107321,3.88421642 C234.107321,2.2836194 235.346425,1.16570896 237.122545,1.16570896 C239.51456,1.16570896 241.622918,3.35973881 242.723067,7.08227612 L243.578739,7.08227612 L243.578739,0.356529851 L242.729336,0.356529851 C242.467619,0.890932836 242.217918,1.72623134 241.757172,1.72623134 C241.285978,1.72623134 239.540679,0.00026119403 236.726052,0.00026119403 C233.605306,0.00026119403 231.163142,2.4283209 231.163142,5.52712687 C231.163142,8.52824627 233.011873,9.87026119 236.41941,11.2953358 C239.779933,12.7073507 241.68247,13.6241418 241.68247,16.0187687 C241.68247,17.7818284 240.433963,19.0115299 238.645306,19.0115299 C235.696948,19.0115299 233.22344,16.390709 232.297246,12.2173507 L231.339187,12.2173507 L231.213291,19.8196642 L232.162993,19.8196642 C232.452396,19.1316791 232.728739,18.2316045 233.30859,18.2316045 C233.889485,18.2316045 235.55956,20.2589925 238.667769,20.2589925 C242.159933,20.2589925 244.601052,17.7165299 244.601052,14.0744403 C244.601052,10.4736194 242.422694,9.37973881 238.571649,7.75876866" id="Fill-29"></path>
                            <path d="M195.786343,14.3085224 C195.643731,13.8378507 191.612463,0.465761194 191.612463,0.465761194 L184.741493,0.465761194 L184.741493,1.35695522 L185.960746,1.35695522 C186.88903,1.35695522 187.158582,1.69755224 187.158582,2.8718806 L187.158582,14.4856119 C187.158582,17.5854627 186.961642,18.8475522 184.990149,18.8475522 L184.716418,18.8475522 L184.716418,19.8197164 L191.256194,19.8197164 L191.256194,18.8475522 C188.631194,18.8475522 188.491194,17.6565075 188.491194,14.2938955 L188.491194,2.08829851 C188.771716,3.00404478 193.96791,19.9837463 193.96791,19.9837463 L195.499552,19.9837463 C195.499552,19.9837463 200.347836,3.24591045 200.625746,2.28053731 L200.625746,17.3347164 C200.625746,18.5085224 200.357761,18.8475522 199.431567,18.8475522 L198.208134,18.8475522 L198.208134,19.8197164 L206.53709,19.8197164 L206.53709,18.8475522 L205.313657,18.8475522 C204.385896,18.8475522 204.115821,18.5085224 204.115821,17.3347164 L204.115821,2.8718806 C204.115821,1.69755224 204.385896,1.35695522 205.313657,1.35695522 L206.53709,1.35695522 L206.53709,0.465761194 L199.813433,0.465761194 C199.813433,0.465761194 195.923209,13.8362836 195.786343,14.3085224" id="Fill-31"></path>
                            <path d="M137.164112,14.3085224 C137.0215,13.8378507 132.990231,0.465761194 132.990231,0.465761194 L126.119261,0.465761194 L126.119261,1.35695522 L127.33956,1.35695522 C128.267321,1.35695522 128.537396,1.69755224 128.537396,2.8718806 L128.537396,14.4856119 C128.537396,17.5854627 128.33941,18.8475522 126.36844,18.8475522 L126.094187,18.8475522 L126.094187,19.8197164 L132.634485,19.8197164 L132.634485,18.8475522 C130.008963,18.8475522 129.868963,17.6565075 129.868963,14.2938955 L129.868963,2.08829851 C130.149485,3.00404478 135.346201,19.9837463 135.346201,19.9837463 L136.877321,19.9837463 C136.877321,19.9837463 141.726127,3.24591045 142.003515,2.28053731 L142.003515,17.3347164 C142.003515,18.5085224 141.73553,18.8475522 140.809858,18.8475522 L139.586425,18.8475522 L139.586425,19.8197164 L147.915381,19.8197164 L147.915381,18.8475522 L146.691948,18.8475522 C145.763664,18.8475522 145.494112,18.5085224 145.494112,17.3347164 L145.494112,2.8718806 C145.494112,1.69755224 145.763664,1.35695522 146.691948,1.35695522 L147.915381,1.35695522 L147.915381,0.465761194 L141.191724,0.465761194 C141.191724,0.465761194 137.300978,13.8362836 137.164112,14.3085224" id="Fill-33"></path>
                            <path d="M257.31744,19.1212313 C254.468336,19.1212313 253.255873,16.4225746 253.255873,10.1022015 C253.255873,3.7625 254.468336,1.05600746 257.31744,1.05600746 C260.180649,1.05600746 261.402515,3.7625 261.402515,10.1022015 C261.402515,16.4225746 260.180649,19.1212313 257.31744,19.1212313 M257.31744,0.00026119403 C252.848933,0.00026119403 249.065799,4.0033209 249.065799,10.1288433 C249.065799,15.8437687 252.575724,20.2589925 257.31744,20.2589925 C262.032515,20.2589925 265.59259,15.9048881 265.59259,10.1288433 C265.59259,4.35436567 262.032515,0.00026119403 257.31744,0.00026119403" id="Fill-35"></path>
                            <path d="M280.688716,0.467798507 L280.688716,1.3516791 C283.437,1.30727612 283.48297,2.94809701 283.48297,5.94190299 L283.48297,14.5916045 C283.209761,14.1277239 275.202075,0.467798507 275.202075,0.467798507 L269.39103,0.467798507 L269.39103,1.35899254 L270.613418,1.35899254 C271.541179,1.35899254 271.808119,1.69958955 271.808119,2.87339552 L271.808119,14.4876493 C271.808119,17.5869776 271.611179,18.8495896 269.641776,18.8495896 L269.367,18.8495896 L269.367,19.8217537 L275.907821,19.8217537 L275.907821,18.8501119 C273.284388,18.8501119 273.140731,17.6585448 273.140731,14.2959328 L273.140731,4.10779851 C273.41394,4.56854478 282.442373,19.8217537 282.442373,19.8217537 L284.78894,19.8217537 L284.78894,5.72145522 C284.78894,2.64041045 284.903866,1.3516791 287.232672,1.3516791 L287.232672,0.467798507 L280.688716,0.467798507 Z" id="Fill-37"></path>
                            <path d="M162.55656,17.7280224 C161.207754,17.211903 160.266933,15.690709 160.266933,14.0289925 C160.266933,12.5522015 160.784097,11.4985448 162.164769,10.4448881 C162.605664,11.4985448 163.130142,12.5913806 163.722007,13.6507836 C164.274694,14.6386194 165.06141,15.8960075 166.018425,17.0431716 C164.809097,17.8894403 163.61753,18.1323507 162.55656,17.7280224 L162.55656,17.7280224 Z M165.036858,1.45720149 C166.026784,1.45720149 166.664097,2.34630597 166.664097,3.72070896 C166.664097,5.46026119 165.703425,6.69884328 164.475813,7.60466418 C163.808201,6.06414179 163.388201,4.66936567 163.388201,3.72070896 C163.388201,2.36563433 164.051634,1.45720149 165.036858,1.45720149 L165.036858,1.45720149 Z M175.378575,14.0117537 L174.261187,14.0117537 L174.261187,14.0289925 C174.261187,16.0527239 173.45253,17.466306 172.294918,17.466306 C171.519694,17.466306 170.491112,16.6895149 169.410813,15.4922015 C170.443052,14.0133209 171.231336,12.4445896 171.779843,11.189291 C172.622978,9.25123134 173.259246,8.38720149 174.751709,8.38720149 L174.751709,7.54615672 L169.258799,7.54615672 L169.258799,8.38720149 C170.097754,8.38720149 170.705291,8.83697761 170.705291,9.59287313 C170.705291,10.9113806 169.717978,12.8316791 168.532157,14.4437687 C167.247082,12.801903 165.963575,10.7144403 164.999769,8.73876866 C167.456037,7.31473881 168.522231,5.84317164 168.522231,3.9066791 C168.522231,1.6755597 166.97544,0.117798507 164.758425,0.117798507 C162.286485,0.117798507 160.55947,2.00779851 160.55947,4.71533582 C160.55947,5.6086194 160.948649,7.23742537 161.640291,9.11802239 C161.63559,9.12063433 161.629843,9.12220149 161.624097,9.12481343 C158.607306,10.3461567 157.079321,12.3542164 157.079321,15.0910075 C157.079321,18.2169776 159.029396,20.2360075 162.044619,20.2360075 C163.984246,20.2360075 165.653799,19.3933955 167.057978,18.1668284 C168.271485,19.3338433 169.677231,20.1973507 171.198425,20.1973507 C172.196187,20.1973507 173.095216,19.8081716 173.802007,19.0726493 C174.872381,17.956306 175.463201,16.0715299 175.378575,14.0274254 L175.378575,14.0117537 Z" id="Fill-39"></path>
                        </g>
                    </g>
                </g>
            </g>
        </g>
    </g>
</svg>