<svg width="173" height="150" viewBox="0 0 173 150" xmlns="http://www.w3.org/2000/svg"><g fill="#F8F8F8" fill-rule="evenodd"><path d="M172.766 100.547c-.547-1.797-1.72-2.695-3.516-2.695h-3.75v5.859c0 1.562-.547 2.89-1.64 3.984-1.094 1.094-2.422 1.64-3.985 1.64-1.563 0-2.89-.546-3.984-1.64-1.094-1.093-1.641-2.422-1.641-3.984V97.85h-22.5V103.712c0 1.562-.547 2.89-1.64 3.984-1.094 1.094-2.422 1.64-3.985 1.64-1.563 0-2.89-.546-3.984-1.64-1.094-1.093-1.641-2.422-1.641-3.984V97.85h-3.75c-1.797 0-2.969.899-3.516 2.696H113v45.703c0 1.016.371 1.895 1.113 2.637S115.734 150 116.75 150h52.5c1.016 0 1.895-.371 2.637-1.113S173 147.266 173 146.25V100.547h-.234zm-3.516 45.703h-52.5v-30h52.5v30zm-43.184-40.664c.508 0 .957-.176 1.348-.527.39-.352.586-.801.586-1.348V91.875c0-.547-.195-.996-.586-1.348a1.955 1.955 0 0 0-1.348-.527c-.507 0-.937.176-1.289.527-.351.352-.527.801-.527 1.348v11.836c0 .547.176.996.527 1.348.352.351.782.527 1.29.527zm33.809 0c.547 0 .996-.176 1.348-.527.351-.352.527-.801.527-1.348V91.875c0-.547-.176-.996-.527-1.348-.352-.351-.801-.527-1.348-.527s-.996.176-1.348.527c-.351.352-.527.801-.527 1.348v11.836c0 .547.176.996.527 1.348.352.351.801.527 1.348.527zM69.595 127.477c8.108-50.675 23.648-71.621 36.26-85.585 6.532-7.207 13.29-14.64 13.29-25C119.144 7.658 112.161 0 101.35 0 90.315 0 84.234 6.081 84.234 15.766c0 2.928 1.352 6.531 2.478 7.883-.45.225-1.126.45-2.027.45C72.072 24.1 65.99 0 47.297 0 37.613 0 30.18 6.532 25.901 21.171h-1.802L21.622 1.577H0v59.459h20.27c3.604-18.243 7.883-22.973 15.316-22.973 9.459 0 20.495 7.658 32.657 7.658 7.207 0 14.865-2.027 23.424-8.334l1.351 1.352-9.91 10.36c-44.37 46.171-57.883 60.36-57.883 81.532 0 11.036 8.334 19.369 22.973 19.369 13.739 0 19.37-10.135 21.397-22.523z"/></g></svg>