<?xml version="1.0" encoding="UTF-8" standalone="no"?>
<svg width="177px" height="29px" viewBox="0 0 177 29" version="1.1" xmlns="http://www.w3.org/2000/svg" xmlns:xlink="http://www.w3.org/1999/xlink">
    <!-- Generator: sketchtool 40.1 (33804) - http://www.bohemiancoding.com/sketch -->
    <title>3125E03A-B5AA-4D2D-A5B0-8E6C13FCB3B8</title>
    <desc>Created with sketchtool.</desc>
    <defs></defs>
    <g id="Page-1" stroke="none" stroke-width="1" fill="none" fill-rule="evenodd">
        <g id="Home_L_statement_v3_Proxima-Nova" transform="translate(-140.000000, -2125.000000)">
            <g id="Selfridges-logo" transform="translate(140.000000, 2097.000000)">
                <g>
                    <g id="Group-28-Copy" transform="translate(0.000000, 29.000000)">
                        <path d="M8.936,6.903 C8.748,4.745 7.811,4.156 6.875,4.156 C5.563,4.156 4.814,5.137 4.814,6.707 C4.814,11.023 13.058,13.182 13.058,20.244 C13.058,24.365 10.435,26.721 6.687,26.721 C2.752,26.721 0.691,23.385 0.504,19.657 L4.439,19.069 C4.439,21.62 5.563,22.993 6.875,22.993 C8.187,22.993 9.123,22.013 9.123,20.638 C9.123,15.536 0.879,14.163 0.879,6.708 C0.879,2.587 3.127,0.233 7.249,0.233 C10.622,0.233 12.496,2.784 12.87,6.512 L8.936,6.903 L8.936,6.903 L8.936,6.903 Z" id="Shape" fill="#F8F8F8"></path>
                        <polygon id="Shape" fill="#F8F8F8" points="14.557 26.328 14.557 0.625 25.423 0.625 25.423 4.549 18.678 4.549 18.678 11.22 23.925 11.22 23.925 14.947 18.678 14.947 18.678 22.6 25.985 22.6 25.985 26.328"></polygon>
                        <polygon id="Shape" fill="#F8F8F8" points="27.297 26.328 27.297 0.625 31.419 0.625 31.419 22.6 37.79 22.6 37.79 26.328"></polygon>
                        <polygon id="Shape" fill="#F8F8F8" points="38.727 26.328 38.727 0.625 50.156 0.625 50.156 4.549 42.849 4.549 42.849 11.22 48.282 11.22 48.282 14.947 42.849 14.947 42.849 26.328"></polygon>
                        <path d="M55.776,4.353 L57.275,4.353 C59.524,4.353 60.273,5.138 60.273,8.277 C60.273,11.22 59.523,12.201 57.275,12.201 L55.776,12.201 L55.776,4.353 L55.776,4.353 L55.776,4.353 Z M55.776,15.93 C56.526,15.93 57.463,15.733 57.837,15.733 L60.835,26.329 L64.957,26.329 L61.397,14.753 C62.896,13.968 64.395,12.398 64.395,8.278 C64.395,2.784 61.959,0.626 57.463,0.626 L51.655,0.626 L51.655,26.329 L55.777,26.329 L55.777,15.93 L55.776,15.93 L55.776,15.93 Z" id="Shape" fill="#F8F8F8"></path>
                        <polygon id="Shape" fill="#F8F8F8" points="67.019 0.625 71.141 0.625 71.141 26.328 67.019 26.328"></polygon>
                        <path d="M78.073,4.353 L79.572,4.353 C81.821,4.353 82.57,5.138 82.57,7.885 L82.57,19.069 C82.57,21.815 81.82,22.798 79.572,22.798 L78.073,22.798 L78.073,4.353 L78.073,4.353 L78.073,4.353 Z M74.138,26.328 L80.134,26.328 C84.444,26.328 86.505,23.973 86.505,18.676 L86.505,8.473 C86.505,3.176 84.444,0.625 80.134,0.625 L74.138,0.625 L74.138,26.328 L74.138,26.328 L74.138,26.328 Z" id="Shape" fill="#F8F8F8"></path>
                        <path d="M94.561,13.378 L101.307,13.378 L101.307,26.328 L99.245,26.328 L98.496,24.562 C97.371,26.13 96.247,26.72 94.374,26.72 C91.188,26.72 88.94,24.169 88.94,20.243 L88.94,6.902 C88.94,3.174 90.814,0.231 94.936,0.231 C99.058,0.231 101.12,3.567 101.12,7.294 L101.12,9.06 L97.185,9.06 C97.185,5.136 96.435,4.155 94.748,4.155 C93.811,4.155 93.062,4.744 93.062,6.902 L93.062,20.243 C93.062,21.813 93.436,22.991 94.935,22.991 C96.622,22.991 97.184,21.813 97.184,19.262 L97.184,16.908 L94.56,16.908 L94.56,13.378 L94.561,13.378 L94.561,13.378 Z" id="Shape" fill="#F8F8F8"></path>
                        <polygon id="Shape" fill="#F8F8F8" points="103.742 26.328 103.742 0.625 114.609 0.625 114.609 4.549 107.864 4.549 107.864 11.22 113.11 11.22 113.11 14.947 107.864 14.947 107.864 22.6 115.171 22.6 115.171 26.328"></polygon>
                        <path d="M124.165,6.903 C123.977,4.745 123.04,4.156 122.103,4.156 C120.791,4.156 120.042,5.137 120.042,6.707 C120.042,11.023 128.286,13.182 128.286,20.244 C128.286,24.365 125.662,26.721 121.915,26.721 C117.98,26.721 115.92,23.385 115.732,19.657 L119.667,19.069 C119.667,21.62 120.791,22.993 122.103,22.993 C123.415,22.993 124.351,22.013 124.351,20.638 C124.351,15.536 116.108,14.163 116.108,6.708 C116.108,2.587 118.356,0.233 122.478,0.233 C125.85,0.233 127.724,2.784 128.099,6.512 L124.165,6.903 L124.165,6.903 L124.165,6.903 Z" id="Shape" fill="#F8F8F8"></path>
                        <path d="M135.406,5.333 C135.406,3.763 135.969,2.782 137.093,2.782 C138.03,2.782 138.592,3.567 138.592,5.529 C138.592,7.491 137.468,9.061 136.53,10.434 C135.969,8.865 135.406,7.1 135.406,5.333 L135.406,5.333 L135.406,5.333 Z M142.339,13.967 C142.151,15.535 141.59,17.106 141.027,18.676 C139.903,17.106 138.779,15.34 138.029,13.378 C139.903,11.22 142.151,8.865 142.151,5.53 C142.151,2.391 140.278,0.232 137.28,0.232 C133.719,0.232 132.034,2.783 132.034,6.315 C132.034,8.669 133.158,11.417 133.907,13.378 C132.22,15.34 130.722,18.088 130.722,20.637 C130.722,24.366 132.97,26.721 136.53,26.721 C138.592,26.721 139.903,26.131 141.215,24.758 C142.527,26.131 144.026,26.721 145.712,26.721 L145.712,22.797 C144.962,22.6 144.213,22.207 143.463,21.619 C144.401,19.461 145.337,17.303 145.712,14.947 L142.339,13.967 L142.339,13.967 L142.339,13.967 Z M134.47,20.244 C134.47,18.871 134.845,18.088 135.594,16.91 C136.344,18.871 137.656,20.637 138.78,22.207 C138.217,22.797 137.842,22.992 136.906,22.992 C135.594,22.992 134.47,21.619 134.47,20.244 L134.47,20.244 L134.47,20.244 Z M157.328,9.258 L157.328,7.296 C157.328,5.138 156.391,4.157 155.267,4.157 C153.768,4.157 153.205,5.138 153.205,6.904 L153.205,20.05 C153.205,22.013 153.768,22.993 155.267,22.993 C156.765,22.993 157.328,22.013 157.328,20.245 L157.328,17.106 L161.45,17.106 L161.45,20.245 C161.45,23.778 159.389,26.722 155.267,26.722 C151.145,26.722 149.083,23.779 149.083,20.245 L149.083,6.904 C149.083,3.176 151.145,0.233 155.267,0.233 C159.389,0.233 161.45,3.569 161.45,7.296 L161.45,9.258 L157.328,9.258 L157.328,9.258 L157.328,9.258 Z M172.692,13.574 C172.692,15.732 171.942,16.713 170.63,16.713 C169.318,16.713 168.569,15.733 168.569,13.574 L168.569,6.511 C168.569,4.157 169.318,3.372 170.63,3.372 C171.942,3.372 172.692,4.157 172.692,6.511 L172.692,13.574 L172.692,13.574 L172.692,13.574 Z M164.822,12.79 C164.822,17.106 166.321,19.854 170.631,19.854 C174.753,19.854 176.252,17.106 176.252,12.79 L176.252,7.1 C176.252,2.979 174.753,0.037 170.631,0.037 C166.321,0.037 164.822,2.98 164.822,7.1 L164.822,12.79 L164.822,12.79 L164.822,12.79 Z" id="Shape" stroke="#F8F8F8" stroke-width="1.3619"></path>
                    </g>
                    <rect id="Rectangle-Copy-7" fill="#D8D8D8" opacity="0" x="0" y="0" width="178" height="80"></rect>
                </g>
            </g>
        </g>
    </g>
</svg>