<?xml version="1.0" encoding="UTF-8" standalone="no"?>
<svg width="67px" height="80px" viewBox="0 0 67 80" version="1.1" xmlns="http://www.w3.org/2000/svg" xmlns:xlink="http://www.w3.org/1999/xlink">
    <!-- Generator: Sketch 40.1 (33804) - http://www.bohemiancoding.com/sketch -->
    <title>Sky logo</title>
    <desc>Created with Sketch.</desc>
    <defs></defs>
    <g id="Symbols" stroke="none" stroke-width="1" fill="none" fill-rule="evenodd">
        <g id="Sky-logo">
            <g>
                <rect id="Rectangle-Copy-18" fill="#D8D8D8" opacity="0" x="0" y="0" width="67" height="80"></rect>
                <g id="Group-30-Copy" transform="translate(0.000000, 24.000000)" fill="#F8F8F8">
                    <path d="M28.9825,0.897083333 C28.9825,0.264166667 28.5645833,0 28.0395833,0 L24.7441667,0 C23.4325,0 22.5,0.65375 22.5,2.25833333 L22.5,30.5341667 C22.5,31.1629167 22.9166667,31.4295833 23.4425,31.4295833 L26.7354167,31.4295833 C28.05125,31.4295833 28.9825,30.7741667 28.9825,29.16875 L28.9825,0.897083333" id="Fill-2"></path>
                    <path d="M66.6470833,11.1783333 C66.7745833,10.9041667 66.9104167,10.6445833 66.9104167,10.3791667 C66.9104167,9.845 66.5229167,9.58333333 65.9883333,9.58333333 L61.9829167,9.58333333 C61.1820833,9.58333333 60.8195833,9.86666667 60.5283333,10.5183333 L54.88125,23.0533333 L47.00375,10.6445833 C46.5179167,9.87666667 46.0029167,9.58333333 44.8354167,9.58333333 L40.0754167,9.58333333 C39.0845833,9.58333333 38.5575,9.845 37.96625,10.47625 L29.5833333,19.4833333 L37.10375,30.44375 C37.53875,31.075 37.9016667,31.3720833 38.5575,31.3720833 L43.0379167,31.3720833 C43.7070833,31.3720833 44.0991667,31.1054167 44.0991667,30.54125 C44.0991667,30.1945833 43.93125,29.9704167 43.7070833,29.6504167 L37.10375,19.8729167 L42.1158333,14.4725 L52.0170833,29.11125 L47.64,38.36375 C47.52,38.6358333 47.3820833,38.8991667 47.3820833,39.1608333 C47.3820833,39.695 47.7716667,39.9541667 48.3066667,39.9541667 L52.2791667,39.9541667 C53.0875,39.9541667 53.4354167,39.6745833 53.735,39.0241667 L66.6470833,11.1783333" id="Fill-3"></path>
                    <path d="M8.06458333,17.1166667 C6.75041667,16.8229167 6.34333333,16.4533333 6.34333333,15.7829167 C6.34333333,15.2695833 6.75041667,14.8608333 7.93833333,14.8608333 L17.55,14.8608333 C19.15125,14.8608333 19.7979167,13.92625 19.7979167,12.6154167 L19.7979167,10.5279167 C19.7979167,10.0020833 19.5370833,9.58333333 18.91,9.58333333 L7.64833333,9.58333333 C2.63291667,9.58333333 0,12.4879167 0,16.1916667 C0,19.4833333 2.02666667,21.4883333 6.0725,22.3904167 L12.5325,23.835 C13.8458333,24.13 14.2558333,24.5004167 14.2558333,25.1695833 C14.2558333,25.6841667 13.8458333,26.0933333 12.6604167,26.0933333 L2.64291667,26.0933333 C1.0375,26.0933333 0.39,27.0241667 0.39,28.3345833 L0.39,30.4258333 C0.39,30.9508333 0.651666667,31.3720833 1.28166667,31.3720833 L12.2708333,31.3720833 C18.20375,31.3720833 20.5983333,28.46375 20.5983333,25.0241667 C20.5983333,21.4670833 18.5454167,19.4658333 14.525,18.56375 L8.06458333,17.1166667" id="Fill-4"></path>
                </g>
            </g>
        </g>
    </g>
</svg>