<?xml version="1.0" encoding="UTF-8" standalone="no"?>
<svg width="112px" height="80px" viewBox="0 0 112 80" version="1.1" xmlns="http://www.w3.org/2000/svg" xmlns:xlink="http://www.w3.org/1999/xlink">
    <!-- Generator: Sketch 40.1 (33804) - http://www.bohemiancoding.com/sketch -->
    <title>Tesco logo</title>
    <desc>Created with Sketch.</desc>
    <defs>
        <polygon id="path-1" points="22.4011373 5.63966976 22.4011373 0.150773873 0.484563163 0.150773873 0.484563163 5.63966976"></polygon>
        <polygon id="path-3" points="20.3571048 0.280116048 0.204415782 0.280116048 0.204415782 21.5305216 20.3571048 21.5305216 20.3571048 0.280116048"></polygon>
        <polygon id="path-5" points="18.924753 0.280116048 0.183297414 0.280116048 0.183297414 21.6089164 18.924753 21.6089164 18.924753 0.280116048"></polygon>
    </defs>
    <g id="Symbols" stroke="none" stroke-width="1" fill="none" fill-rule="evenodd">
        <g id="Tesco-logo">
            <g>
                <rect id="Rectangle-Copy-19" fill="#D8D8D8" opacity="0" x="0" y="0" width="112" height="80"></rect>
                <g id="Tesco-logo-Copy-2" transform="translate(0.000000, 31.000000)">
                    <path d="M8.44916479,26.8171323 L21.8577623,26.8171323 C22.0150534,26.8171323 22.0150534,26.8954645 21.8577623,26.9737968 C20.3681966,27.6800401 18.1723876,29.8752225 18.1723876,29.8752225 C16.6828219,31.3654148 15.5065852,32.3060282 12.9191151,32.3060282 L0.0588431698,32.3060282 C-0.0194890584,32.3060282 -0.0194890584,32.1493637 0.0588431698,32.1493637 C1.47007659,31.3654148 3.58755338,29.1696058 3.58755338,29.1696058 C4.44983455,28.1500335 6.25335577,26.8171323 8.44916479,26.8171323" id="Fill-1" fill="#F8F8F8"></path>
                    <g id="Group-5" transform="translate(87.732095, 26.666358)">
                        <mask id="mask-2" fill="white">
                            <use xlink:href="#path-1"></use>
                        </mask>
                        <g id="Clip-4"></g>
                        <path d="M8.85530172,0.150773873 L22.3428581,0.150773873 C22.4211903,0.150773873 22.4211903,0.229106101 22.3428581,0.307438329 C20.7743336,1.0136817 18.6574834,3.20886406 18.6574834,3.20886406 C17.0889589,4.69905637 15.9127221,5.63966976 13.4035842,5.63966976 L0.543312334,5.63966976 C0.464980106,5.63966976 0.464980106,5.48300531 0.543312334,5.48300531 C1.95454576,4.69905637 4.07202255,2.50324735 4.07202255,2.50324735 C4.93430371,1.48367507 6.65949271,0.150773873 8.85530172,0.150773873" id="Fill-3" fill="#F8F8F8" mask="url(#mask-2)"></path>
                    </g>
                    <path d="M30.4835819,26.8171323 L43.892806,26.8171323 C44.0494705,26.8171323 44.0494705,26.8954645 43.892806,26.9737968 C42.4026137,27.6800401 40.2074314,29.8752225 40.2074314,29.8752225 C38.7172391,31.3654148 37.5410023,32.3060282 34.9535322,32.3060282 L22.1715925,32.3060282 C22.0149281,32.3060282 22.0149281,32.1493637 22.0932603,32.1493637 C23.5051204,31.3654148 25.6219705,29.1696058 25.6219705,29.1696058 C26.4842517,28.1500335 28.2877729,26.8171323 30.4835819,26.8171323" id="Fill-6" fill="#F8F8F8"></path>
                    <path d="M52.518187,26.8171323 L65.9274111,26.8171323 C66.0840756,26.8171323 66.0840756,26.8954645 65.9274111,26.9737968 C64.4372188,27.6800401 62.2414098,29.8752225 62.2414098,29.8752225 C60.7518442,31.3654148 59.5756074,32.3060282 57.0664695,32.3060282 L44.2061976,32.3060282 C44.1278654,32.3060282 44.1278654,32.1493637 44.1278654,32.1493637 C45.617431,31.3654148 47.6565756,29.1696058 47.6565756,29.1696058 C48.5188568,28.1500335 50.322378,26.8171323 52.518187,26.8171323" id="Fill-8" fill="#F8F8F8"></path>
                    <path d="M74.5527921,26.8171323 L88.0403485,26.8171323 C88.1186807,26.8171323 88.1186807,26.8954645 87.9620162,26.9737968 C86.4718239,27.6800401 84.2760149,29.8752225 84.2760149,29.8752225 C82.7864493,31.3654148 81.6102125,32.3060282 79.1010746,32.3060282 L66.2408027,32.3060282 C66.1624705,32.3060282 66.1624705,32.1493637 66.2408027,32.1493637 C67.6520361,31.3654148 69.7695129,29.1696058 69.7695129,29.1696058 C70.5534619,28.1500335 72.3569831,26.8171323 74.5527921,26.8171323" id="Fill-10" fill="#F8F8F8"></path>
                    <g id="Group-14" transform="translate(63.919098, 0.346730)">
                        <mask id="mask-4" fill="white">
                            <use xlink:href="#path-3"></use>
                        </mask>
                        <g id="Clip-13"></g>
                        <path d="M14.3192566,0.27992805 C5.85060279,0.27992805 0.204415782,4.67091943 0.204415782,11.3366787 C0.204415782,17.4528591 5.37998276,21.5305216 13.0646877,21.5305216 C15.5738256,21.5305216 17.7696346,21.216566 20.3571048,20.5109493 L20.3571048,15.4143412 C18.5535836,17.4528591 16.3577745,18.236808 14.0053011,18.236808 C9.45764523,18.236808 6.32059615,15.2570501 6.32059615,10.8660587 C6.32059615,6.55277288 9.53597745,3.41635046 14.0836333,3.41635046 C16.5150656,3.41635046 18.4752513,4.35759052 20.0437759,6.00444728 L20.0437759,0.828880305 C18.3969191,0.514924735 16.3577745,0.27992805 14.3192566,0.27992805" id="Fill-12" fill="#F8F8F8" mask="url(#mask-4)"></path>
                    </g>
                    <path d="M15.0359025,4.2336376 C18.1723249,4.2336376 21.9366585,4.86092208 23.5045564,6.19382328 L23.5045564,1.33221187 L1.23501724,1.33221187 L1.23501724,6.19382328 C2.80354178,4.86092208 6.17496088,4.31196983 9.78200332,4.31196983 L9.78200332,17.6428617 C9.78200332,19.6030474 9.62533886,20.1519997 8.84138992,21.1715719 L15.9771426,21.1715719 C15.192567,20.1519997 15.0359025,19.6030474 15.0359025,17.6428617 L15.0359025,4.2336376 Z" id="Fill-15" fill="#F8F8F8"></path>
                    <path d="M37.7762497,9.01704211 C36.5216807,9.48766214 34.1692072,9.56599436 32.9929705,9.56599436 L31.111117,9.56599436 L31.111117,4.31209516 L33.620255,4.31209516 C35.8943962,4.31209516 39.7364353,4.78271519 41.2266277,6.11561638 L41.2266277,1.3323372 L24.9949367,1.3323372 C25.7788856,2.27357725 25.9355501,2.90086174 25.9355501,4.78271519 L25.9355501,17.6423604 C25.9355501,19.6031727 25.7788856,20.152125 25.0732689,21.1716973 L42.3245322,21.1716973 L42.3245322,16.3094592 C39.9720587,18.1129804 35.4237762,18.1129804 33.620255,18.1129804 L31.111117,18.1129804 L31.111117,12.5457523 L32.9146383,12.5457523 C34.1692072,12.5457523 36.4433485,12.7024168 37.7762497,13.1730368 L37.7762497,9.01704211 Z" id="Fill-17" fill="#F8F8F8"></path>
                    <g id="Group-21" transform="translate(43.866048, 0.346730)">
                        <mask id="mask-6" fill="white">
                            <use xlink:href="#path-5"></use>
                        </mask>
                        <g id="Clip-20"></g>
                        <path d="M17.9835129,1.61289191 C15.3960428,0.750610743 12.023997,0.279990716 9.43652686,0.279990716 C4.73157991,0.279990716 0.183297414,1.76955637 0.183297414,6.78845889 C0.183297414,15.4137772 14.2981383,10.8661214 14.2981383,16.1983528 C14.2981383,17.9235418 11.7890003,18.6291585 9.74985577,18.6291585 C6.14281333,18.6291585 3.6336754,18.001874 0.497252984,15.9627294 L0.497252984,20.3543475 C2.84972646,21.1382964 6.0644811,21.6089164 9.51485908,21.6089164 C14.3764705,21.6089164 18.924753,20.1970564 18.924753,15.1004483 C18.924753,6.00450995 4.88824436,10.0815458 4.88824436,5.69055438 C4.88824436,3.88703316 7.16238561,3.25974867 9.12257129,3.25974867 C12.4162848,3.25974867 16.0233273,4.27932095 17.9835129,6.23950663 L17.9835129,1.61289191 Z" id="Fill-19" fill="#F8F8F8" mask="url(#mask-6)"></path>
                    </g>
                    <path d="M97.5283239,18.6621207 C93.4506615,18.6621207 90.8631913,15.3684072 90.8631913,11.2913714 C90.8631913,7.21370889 93.4506615,3.91999536 97.5283239,3.91999536 C101.527654,3.91999536 104.193457,7.21370889 104.193457,11.2913714 C104.193457,15.3684072 101.527654,18.6621207 97.5283239,18.6621207 M98.0772762,0.940237401 C90.4709035,0.940237401 85.0603399,5.33122878 85.0603399,11.526368 C85.0603399,17.6425484 89.9219513,21.6418786 97.0577039,21.6418786 C104.742409,21.6418786 110.07464,17.4075517 110.07464,11.1340802 C110.07464,5.01789987 105.213029,0.940237401 98.0772762,0.940237401" id="Fill-22" fill="#F8F8F8"></path>
                </g>
            </g>
        </g>
    </g>
</svg>