<?xml version="1.0" encoding="UTF-8"?>
<svg width="139px" height="196px" viewBox="0 0 139 196" version="1.1" xmlns="http://www.w3.org/2000/svg" xmlns:xlink="http://www.w3.org/1999/xlink">
    <!-- Generator: Sketch 40.1 (33804) - http://www.bohemiancoding.com/sketch -->
    <title>triangle end</title>
    <desc>Created with Sketch.</desc>
    <defs></defs>
    <g id="Cheese-&amp;-Lean" stroke="none" stroke-width="1" fill="none" fill-rule="evenodd">
        <g id="triangle-end">
            <g id="tri-end">
                <g id="Group-3" transform="translate(0.382239, 0.798926)">
                    <path d="M124.600176,1.10114481 C114.90506,1.15246786 0.526547793,2.10940818 0,2.1980043 C0.234116554,2.80275397 74.5775801,162.136146 74.6756757,162.284235 L74.9677553,161.351671 C77.0466314,164.057456 87.9516569,177.494101 88.2695767,177.084981 C88.4897447,176.801653 137.934942,16.5543358 137.858727,16.4314904 C137.609841,16.0299643 126.423395,2.81505831 126.007309,2.35657495 C125.262069,1.53561756 126.40662,0.450089344 124.600176,1.10114481 Z" id="Combined-Shape" fill="#212121"></path>
                    <path d="M74.6756757,176.754852 C74.8397554,176.92404 79.8125595,158.92936 86.5428052,137.079156 C100.847576,90.6377348 123.091622,19.7438697 123.97732,19.3755962 C126.649897,18.2643368 125.188813,19.4851348 126.007309,20.3867914 C126.423395,20.8452747 137.609841,34.0601807 137.858727,34.4617068 C137.884647,34.5034852 88.307637,195.066218 88.2695767,195.115197 C88.1057507,195.326019 85.1306224,192.860234 82.0005939,189.08077 C78.1842549,184.472596 74.1376395,178.398105 74.6756757,178.952856" id="Path" fill="#212121"></path>
                    <path d="M74.6756757,176.754852 C75.245903,177.342834 79.5035654,181.38791 83.0839841,185.544392 C85.784275,188.67914 88.0993551,192.308462 88.1568944,192.139202 C88.2127622,191.974775 97.6682481,162.67643 107.563636,129.441305 C111.15129,117.391638 113.928217,104.824488 117.562732,92.9406914 C127.100001,61.756628 136.169124,35.278011 136.096106,35.2026983 C135.787962,34.8847399 121.304742,20.4868557 123.97732,19.3755962 C126.649897,18.2643368 125.188813,19.4851348 126.007309,20.3867914 C126.423395,20.8452747 138.617761,35.2026983 138.617761,35.2026983 C138.617761,35.2026983 129.910888,58.9396744 121.014448,88.7326997 C117.728417,99.737195 115.180594,111.473366 111.627401,122.98279 C100.148078,160.166355 90.9213928,195.115197 88.2695767,195.115197 C85.6177606,195.115197 73.696361,177.943117 74.6756757,178.952856" id="Path" fill="#F8F8F8"></path>
                </g>
                <g id="Group-6" transform="translate(0.382239, 19.829142)">
                    <path d="M125.158997,0.0990021521 C123.4965,0.0990021521 100.100157,2.28639042 73.9776624,2.50687194 C39.5151091,2.79774601 0.307779592,1.14621778 0,1.1980043 C0.104795511,1.46870302 17.0584847,33.5430112 33.5555117,68.9080385 C53.9133757,112.549624 74.6214898,161.202434 74.6756757,161.284235 L102.617761,78.1708578" id="Path" fill="#FFFFFF"></path>
                    <path d="M34.0689451,33.7314331 C34.2110342,34.233648 34.2498965,34.7402101 34.2323589,35.2503101 C34.2156905,35.7389372 34.0923192,36.1960962 33.8464798,36.618514 C33.741103,36.7996218 33.6534978,36.9930023 33.5271223,37.159663 C33.3570984,37.3839076 33.1741108,37.6037237 32.9646227,37.7945389 C32.8303274,37.9168637 32.638185,37.983734 32.4718217,38.0751116 C32.4521393,38.0859659 32.4283924,38.0916795 32.4110645,38.1048721 C32.2936907,38.1934595 32.1909604,38.3070939 32.058508,38.3684564 C31.6423885,38.5609559 31.1974213,38.7065412 30.7984199,38.9233711 C30.4841558,39.0940847 30.1396946,39.1349276 29.8005517,39.2102067 C29.7034799,39.2317367 29.596905,39.2237311 29.49437,39.2244345 C29.2403239,39.2262402 28.9823129,39.2557828 28.7330099,39.2171303 C28.466543,39.1757571 28.1899952,39.1036471 27.9497173,38.9841786 C27.2782522,38.6505263 26.612661,38.3020049 25.9651364,37.9262296 C25.6125802,37.7217258 25.3006355,37.4517037 24.9733643,37.2075045 C24.8518316,37.1168846 24.7487885,36.9938646 24.5708636,37.0856075 C24.5448479,37.0989738 24.3783156,36.9756695 24.3561897,36.9794029 C24.1148972,37.0198044 23.9351788,36.0797158 23.8392145,35.7584683 C23.7751652,35.5439652 23.7056285,35.3305708 23.6355231,35.1173272 C23.5940184,34.991326 23.54036,34.867869 23.5058292,34.7407323 C23.4955995,34.7031721 23.3976421,34.6075896 23.5487161,34.6152024 C23.5483202,34.5951832 23.5562614,34.5632595 23.5462231,34.5568492 C23.3293331,34.417819 23.4230814,34.1830756 23.3243965,34.0051491 C23.2630412,33.8943719 23.2607583,33.7578552 23.228355,33.6335955 C23.1432029,33.3073136 23.2978402,33.0615773 23.495027,32.8299737 C23.51296,32.8090054 23.5460725,32.7948792 23.553974,32.7714443 C23.6816638,32.3906619 23.9459011,32.087398 24.2114574,31.7980549 C24.6905158,31.2764627 25.1988069,30.7711735 25.8895218,30.479152 C26.2204912,30.339294 26.5670585,30.2164817 26.9225483,30.1377417 C27.3699242,30.0386557 27.8295486,29.957233 28.2914618,29.9339883 C28.7457827,29.9110786 29.209753,29.9584696 29.6685285,29.9977415 C29.9735313,30.0239572 30.2860112,30.058815 30.5784486,30.146144 C30.9525741,30.2580116 31.3158495,30.4141633 31.6720388,30.5753943 C31.8936869,30.6757564 32.1000224,30.812771 32.3007894,30.9496548 C32.3994065,31.0168906 32.469532,31.1213838 32.5529872,31.2086955 C32.8203724,31.488776 33.104867,31.7567784 33.3497649,32.0525366 C33.5388923,32.2809558 33.6785361,32.5442544 33.7936478,32.7206818" id="Fill-5" fill="#FC1D42"></path>
                    <path d="M86.0316422,23.4432943 C86.0345352,23.4255631 86.0544832,23.4065965 86.050041,23.3923548 C85.9060021,22.9284464 86.3197337,22.5881707 86.346461,22.1653292 C86.3895137,21.4852294 86.8496771,21.0115145 87.2965451,20.5573341 C87.706102,20.1413843 88.1975879,19.8082508 88.7646836,19.5477127 C89.4851145,19.2169528 90.2368194,19.0349863 91.0191831,19.0296193 C91.5886633,19.0256904 92.1693397,19.1552302 92.7306299,19.2824023 C93.2318064,19.3961022 93.7224371,19.5672039 94.1993343,19.753834 C94.4494934,19.8517167 94.6664907,20.029877 94.8880288,20.1847456 C95.6234166,20.6989537 96.1991533,21.3498189 96.7464102,22.0290875 C97.3775488,22.8129271 97.7913862,23.6910289 98.1648902,24.5951074 C98.3776563,25.1108194 98.3965266,25.6173805 98.2166745,26.1240239 C98.0070492,26.7151098 97.7724315,27.2991534 97.5246163,27.8769913 C97.2511439,28.5152922 96.8638077,29.1003513 96.4221597,29.643588 C95.7170034,30.5116288 94.8508946,31.2086666 93.6813244,31.4640071 C93.0883602,31.5934403 92.4871633,31.6772505 91.8511214,31.6156154 C91.085744,31.5413703 90.4114876,31.2809481 89.7625424,30.9399691 C89.5262113,30.8159054 89.3534086,30.5818171 89.1579822,30.3920756 C88.8158671,30.0600061 88.4747577,29.7267709 88.1404542,29.3876679 C87.9212743,29.1653797 87.6930612,28.9461698 87.5074009,28.7005538 C86.9962585,28.0250194 86.5033705,27.3374181 86.0064613,26.6522125 C85.8402719,26.4232353 85.9070792,25.2370047 85.9725702,25.155422 C86.0523755,25.0560941 85.9406937,24.468566 85.9154465,24.2938623" id="Fill-7" fill="#FC1D42"></path>
                    <path d="M77.7677815,91.6534581 C76.9043047,91.5893451 76.1562168,91.2581461 75.4534141,90.8388015 C74.7927239,90.4448159 74.2016332,89.9314245 73.8951652,89.1928797 C73.7612854,88.8705948 73.8491729,88.5566392 73.9167663,88.2469865 C73.9592716,88.0523437 73.787543,86.6647108 73.7647826,86.3348987 C73.7467642,86.0740454 73.7211896,85.8042794 73.7685567,85.5524339 C73.8199943,85.2787999 73.9094908,84.99521 74.0580172,84.7623259 C74.3439083,84.3141556 74.6445488,83.8637822 75.010853,83.4782593 C75.4440396,83.0225783 75.9331282,82.6104539 76.4362094,82.2249873 C76.8246169,81.9275853 77.3009983,81.744602 77.8069308,81.7366619 C78.5893088,81.7242911 79.3152431,81.8875809 79.9849894,82.3685677 C80.546666,82.7721745 80.9411246,83.2893571 81.3043419,83.829147 C81.5243224,84.1563042 81.589401,84.5760999 81.7505868,84.9436835 C82.0269828,85.5740241 82.0463735,86.2418307 82.1167972,86.9016645 C82.1305724,87.0300842 81.9010066,88.0703241 81.8121294,88.3565421 C81.7215038,88.6488851 81.6775762,88.9553209 81.5945785,89.2503463 C81.5427155,89.4350468 81.4749646,89.6198754 81.3825394,89.7876139 C80.9376173,90.5951945 80.344226,91.2519618 79.3496747,91.5885452" id="Fill-9" fill="#FC1D42"></path>
                    <path d="M17.6840176,18.7199525 C16.7743382,18.6557165 15.9763212,18.3247997 15.2227504,17.9055274 C14.5142865,17.5116673 13.8745866,16.9985478 13.5259204,16.2601975 C13.3737165,15.9379601 13.4546526,15.624272 13.5145446,15.3146762 C13.5520536,15.1200725 13.3215849,13.7330136 13.2857967,13.4031702 C13.2573989,13.1424495 13.220799,12.8727606 13.2614518,12.6209499 C13.3055373,12.3474625 13.3893987,12.0640073 13.5369178,11.8312189 C13.8210687,11.3831019 14.1206341,10.9329729 14.4915096,10.5475831 C14.9300386,10.092118 15.4289681,9.68003608 15.9434253,9.29479083 C16.3406414,8.99744697 16.8344336,8.81450321 17.3656154,8.80650379 C18.1868498,8.79425957 18.9553662,8.95751576 19.6763508,9.43835601 C20.2810417,9.84175417 20.7143448,10.3586984 21.115401,10.8983427 C21.3584569,11.2253954 21.4420544,11.6449614 21.6248169,12.012466 C21.9379982,12.6426538 21.9826893,13.3101992 22.0808497,13.969849 C22.0998118,14.0980577 21.8966044,15.1381315 21.8137114,15.4241674 C21.7290593,15.7163292 21.69398,16.0227351 21.6175737,16.3175979 C21.5697026,16.5022302 21.5054389,16.6869943 21.4144083,16.8546957 C20.9762552,17.6619575 20.3765917,18.3185088 19.3438349,18.6550038" id="Fill-11" fill="#FC1D42"></path>
                    <path d="M67.0774036,72.2437583 C66.7569689,72.3160534 66.431923,72.2502118 66.1341611,72.2991039 C65.8664278,72.3430126 65.6971754,72.2200459 65.4842074,72.1731921 C65.4518538,72.1660093 65.4207367,72.1374412 65.3903521,72.1386065 C64.7179483,72.1627596 64.3211769,71.7209407 63.9176515,71.3017909 C63.7106901,71.0869391 63.4969372,70.8658235 63.347999,70.6152292 C63.1711052,70.317646 62.9259585,70.0476803 62.9568361,69.6491997 C62.9751693,69.4121774 62.7793134,69.1609412 62.7474729,68.9102607 C62.6604174,68.2254273 62.6222954,67.527699 62.9226238,66.8955216 C63.0805185,66.563448 63.3434413,66.2658713 63.6115479,66.00114 C63.9127569,65.7039408 64.2578284,65.4411407 64.6114941,65.199338 C65.281205,64.7415211 66.0570424,64.5652019 66.8835144,64.6159892 C67.2647121,64.6394202 67.6516153,64.7186317 68.019874,64.8266872 C68.6290807,65.0053621 69.0582904,65.434408 69.4827541,65.8717726 C70.0066071,66.4118604 70.250673,67.066256 70.3456424,67.7539923 C70.4580664,68.5682679 70.4636964,69.3947852 70.1071971,70.1588755 C69.9342972,70.5297777 69.7231292,70.887896 69.4894279,71.2259113 C69.212232,71.6270561 68.784208,71.8593141 68.2141291,72.0933552" id="Fill-13" fill="#FC1D42"></path>
                    <path d="M92.6844679,57.4690669 C92.1991795,57.3106051 91.6806728,57.1955649 91.2491838,56.9466571 C90.6441488,56.5978116 90.0605812,56.1874181 89.5485003,55.7229253 C88.5778731,54.8432483 87.8704177,53.7622266 87.1774791,52.6813607 C87.0490926,52.4813097 87.0384133,52.2157844 86.9679689,51.981808 C86.6944489,51.0744614 86.8312859,50.2174173 87.2044613,49.3622436 C87.689469,48.2525345 88.634885,47.6548113 89.7482989,47.2368843 C90.4211905,46.9844523 91.1018219,46.7202676 91.8071706,46.5772532 C93.1856628,46.2978879 94.5511586,46.3166145 95.8888259,46.9069748 C97.1383233,47.4590094 98.1866122,48.2123433 98.9620612,49.2855621 C99.2714368,49.7141892 99.577074,50.1580443 99.6576533,50.6891156 C99.7998118,51.6266514 99.9171712,52.5584467 99.4669262,53.4624973 C99.1813033,54.0366314 99.0482802,54.7023789 98.6683993,55.204996 C98.2407354,55.7712094 97.6332231,56.2231843 97.0657587,56.6819074 C96.6020308,57.057021 96.1223565,57.4359859 95.5978702,57.5319309" id="Fill-15" fill="#FC1D42"></path>
                    <path d="M78.4400112,16.8814414 C78.5596069,17.3516428 78.4712144,17.866456 78.4540573,18.3599487 C78.4400839,18.7617942 78.4158585,19.1657181 78.3541485,19.5624141 C78.2197607,20.4272564 78.1176317,21.3056305 77.3946076,21.966627 C77.2526612,22.0964544 77.1973953,22.3041723 77.0827314,22.4637127 C76.6077359,23.1251188 76.0613949,23.6661872 75.320653,24.1432322 C74.4319166,24.7159972 73.4968736,25.0787658 72.5041647,25.3626321 C71.3595499,25.6901292 70.1802004,25.7073073 68.9670424,25.5582784 C67.8671396,25.4231442 66.9847717,24.9619167 66.2539064,24.2460767 C65.3420893,23.3538806 64.3139378,22.530447 63.8025106,21.3457964 C63.6391676,20.967601 63.0269914,16.2247787 62.943511,15.7319918 C62.8544517,15.2065478 62.8658132,14.6699133 62.80061,14.1408469 C62.7214714,13.4998836 62.9632039,13.0218978 63.5433721,12.6915444 C63.9511269,12.459306 64.3465253,12.2041093 64.7743318,12.0063511 C66.0687996,11.4085817 67.3449028,10.7615084 68.6933599,10.2761774 C69.556866,9.96559999 70.5282102,9.87125604 71.4932339,10.0894227 C71.6625774,10.1277765 71.8474272,10.1026118 72.0251342,10.1059881 C72.9152285,10.1226423 73.7195253,10.4317717 74.5008981,10.7936865 C75.2874034,11.1581485 76.0152538,11.6117963 76.5217403,12.2927944 C76.9288828,12.8406549 77.2825352,13.4217824 77.6595611,13.9881205 C77.6126757,14.0076833 77.5657623,14.0271586 77.5188792,14.0467214" id="Fill-17" fill="#FC1D42"></path>
                    <path d="M95.8443504,74.3489473 C95.7030611,74.9539549 95.6120631,75.5703915 95.4725113,76.1758353 C95.2440716,77.167806 94.344019,78.3949478 93.3037082,78.5973874 C92.2637656,78.7998018 89.6220529,78.6546142 89.1253303,78.3018587 C88.7430889,78.0304842 86.4460054,76.4086611 85.9122583,75.6202448 C85.3291626,74.7598155 85.176603,73.8030759 85.2371604,72.828951 C85.2618659,72.4308973 85.4592614,72.0115665 85.6878384,71.6707064 C86.1332526,71.0070048 86.5836536,70.3204866 87.1672462,69.7752836 C87.8324635,69.1543722 88.6409695,68.6809729 89.648787,68.6405349 C89.9204938,68.6295992 90.1807806,68.4807003 90.4543244,68.441731 C91.7195557,68.2614875 92.8837993,68.6315413 93.9853468,69.1827932 C94.2873586,69.3340089 94.4983526,69.6732195 94.7223824,69.9474 C95.1821803,70.5105436 95.625542,71.086415 95.8643526,71.928196" id="Fill-19" fill="#FC1D42"></path>
                    <path d="M55.5924932,40.3887404 C55.504908,40.793878 55.451985,41.2066346 55.3655089,41.6120714 C55.2239823,42.2762988 54.625694,43.0980317 53.915966,43.2335419 C53.2063624,43.3690521 51.3942135,43.271878 51.0488896,43.035658 C50.783203,42.8539752 49.1874032,41.7679233 48.8111263,41.2400276 C48.4002805,40.6638605 48.2829323,40.0232386 48.3112148,39.3709172 C48.322782,39.1043419 48.452167,38.8236105 48.6039863,38.5953721 C48.8995966,38.1508996 49.1983108,37.6912493 49.5898309,37.3261468 C50.0360345,36.9103714 50.5822381,36.5934292 51.2705859,36.5662707 C51.4561923,36.5590418 51.6319843,36.4593158 51.8184556,36.4331684 C52.6807611,36.3124838 53.4820766,36.5602962 54.243318,36.9294752 C54.4520339,37.0307143 54.6013898,37.2578513 54.7585822,37.4413721 C55.0815833,37.8184936 55.3935058,38.2041422 55.5695643,38.7677784" id="Fill-21" fill="#FC1D42"></path>
                    <path d="M36.8640448,57.7335833 C36.8845496,56.6624573 37.3013643,55.7015105 37.8205361,54.8091708 C38.1050288,54.3206961 38.5803057,53.8839529 39.0796324,53.5782391 C40.085073,52.9632856 41.1195762,52.3522781 42.2323077,51.9335303 C43.1123392,51.6025392 44.1170638,51.4626594 45.0829067,51.4270821 C45.6947115,51.4045435 46.3805415,51.6420259 46.9518117,51.9207169 C47.619674,52.2465743 48.3347396,52.6449375 48.787293,53.1882593 C49.6755449,54.2558927 50.5717784,55.3420065 50.5410797,56.8424649 C50.5060076,58.5651946 49.7987007,59.937188 48.5812098,61.0949098 C48.0119215,61.6369634 47.338139,62.0813938 46.7880194,62.6382353 C46.0517608,63.384163 45.0742149,63.6646295 44.0851681,63.8087938 C43.2228022,63.9345066 42.2522267,63.9802035 41.4256668,63.730585 C40.0669735,63.3205184 38.6474726,62.8553268 37.7855059,61.5823029 C37.2414965,60.7798172 36.7613582,59.9517221 36.8120192,58.97417 C36.8217991,58.7840286 36.9065295,58.6006539 36.9565887,58.4148564" id="Fill-23" fill="#FC1D42"></path>
                    <path d="M70.791887,54.0059125 C70.5440523,53.9191492 70.2034468,54.0731555 69.9643279,53.9774046 C69.2294205,53.6833505 68.4959651,53.3646429 67.8140618,52.9714157 C67.3628359,52.7113463 67.0375313,52.2533701 66.5917855,51.9794717 C65.9418989,51.5802436 65.4439055,51.0423817 64.9993202,50.4807277 C64.5684179,49.9368592 64.263818,49.2998357 63.9446927,48.6854657 C63.7745721,48.3581871 64.143727,45.7593798 64.0428452,45.4351445 C63.8505913,44.8167592 66.896746,41.7353903 68.4663749,41.2278033 C70.5298803,40.5610166 72.5650164,40.8259168 74.4352829,41.9613358 C75.2103184,42.4323979 75.9381003,42.999018 76.5972524,43.6077263 C77.4682235,44.4125897 77.8885881,45.4207317 77.9562028,46.5809884 C78.033827,47.9134772 77.8205869,49.1950619 77.3087465,50.3990365 C76.9111351,51.3355503 76.5358013,52.3447507 75.5914432,52.9473146 C74.9625445,53.348794 74.2713209,53.6640291 73.812988,53.9086871" id="Fill-25" fill="#FC1D42"></path>
                    <path d="M75.2289865,109.106803 C75.088425,109.693744 75.0876122,110.321822 74.9045425,110.891301 C74.4850191,112.197585 73.5787237,113.063913 72.2859413,113.58715 C71.3123201,113.981432 70.3238575,114.346809 69.2626762,114.274903 C67.4909591,114.154895 65.9105583,113.515761 64.6033646,112.22197 C64.2732266,111.895521 62.1823673,105.512132 62.8588521,104.460985 C63.4102281,103.605462 64.0458005,102.78713 64.7489896,102.047099 C65.9785483,100.754739 67.5527481,100.101284 69.4064613,100.089757 C72.056132,100.073214 74.1800737,102.362685 74.8532435,104.341839 C74.8895184,104.448734 74.92248,104.55645 74.9569997,104.66384" id="Fill-27" fill="#FC1D42"></path>
                    <path d="M60.1090987,81.7602101 C60.9136591,83.5175618 60.8319968,85.3943334 59.9774957,87.1609334 C59.3177771,88.5279415 58.3336985,89.5171691 56.8698675,90.0861606 C55.3906194,90.6615334 53.9253646,90.6106957 52.4443174,90.0072127 C50.6096812,89.2603662 49.4256017,87.8619595 48.4206404,86.2524475 C47.9804261,85.5483649 48.1759581,81.3152019 49.0231211,80.5882775 C50.1711467,79.6043622 51.3920044,78.7061047 52.9343885,78.3122907 C52.9347898,78.2536972 54.6959526,77.9800839 55.4888037,78.2122804" id="Fill-29" fill="#FC1D42"></path>
                    <path d="M113.334526,12.3458632 C113.851874,13.5156417 113.749303,14.7650491 113.110663,15.9411746 C112.617124,16.851127 111.906429,17.5096718 110.871238,17.8885094 C109.824834,18.2715052 108.80391,18.2376409 107.786333,17.8358679 C106.526122,17.3387317 105.737215,16.4077862 105.079107,15.3363503 C104.790979,14.8676792 105.039277,12.0495896 105.647988,11.5656004 C106.472565,10.9106098 107.345243,10.3126368 108.428286,10.0505258 C108.429994,10.011451 109.661896,9.8293198 110.20752,9.98390556" id="Fill-31" fill="#FC1D42"></path>
                    <path d="M75.2976284,128.945118 C75.3292889,129.496742 75.3556549,130.061257 75.2724093,130.600051 C75.1924033,131.118633 74.9696583,131.611827 74.8074859,132.115483 C74.7803289,132.200039 74.7335597,132.278123 74.7095198,132.363502 C74.6063699,132.730164 74.4561969,133.002265 74.0338339,133.142506 C72.7787035,133.559244 71.6891297,133.371738 70.6205081,132.499776 C69.9888997,131.984948 69.5611733,131.382237 69.2038424,130.689003 C69.045687,130.382391 68.8335746,130.099938 68.6956198,129.786024 C68.3715551,129.049214 68.7157846,128.398347 68.975365,127.756081 C69.3900998,126.730569 70.1007615,125.978036 71.176298,125.611746 C72.266272,125.240793 73.3721685,125.051956 74.4382907,125.727981 C74.7093861,125.899907 74.8740586,126.241114 75.0783367,126.493154" id="Fill-33" fill="#FC1D42"></path>
                    <path d="M108.0072,35.5299347 C108.027543,36.0815595 108.041944,36.6460741 107.940391,37.1848677 C107.842767,37.7034505 107.593937,38.1966442 107.409269,38.7002996 C107.378246,38.7848809 107.326612,38.8629654 107.29907,38.9483186 C107.180485,39.3149811 107.014169,39.587082 106.561524,39.7273227 C105.216377,40.1440608 104.061986,39.9565549 102.94658,39.0845926 C102.287343,38.5697651 101.847126,37.9670545 101.48401,37.2738204 C101.323296,36.967208 101.10461,36.6847547 100.965566,36.3708415 C100.638942,35.6340314 101.020933,34.9831644 101.312675,34.3408976 C101.778748,33.3153856 102.552797,32.5628532 103.705379,32.1965631 C104.873391,31.82561 106.053885,31.636773 107.171149,32.3127977 C107.455258,32.4847241 107.622114,32.8259313 107.833245,33.0779713" id="Fill-35" fill="#FC1D42"></path>
                    <path d="M52.5193936,25.0272987 C52.3836611,25.9056087 51.9885232,26.7409465 51.7036656,27.5938918 C51.6558962,27.7371276 51.5724436,27.8695121 51.5305607,28.0139581 C51.3503275,28.6350349 51.0831052,29.0959993 50.3197607,29.3333995 C48.0518653,30.0391682 46.0724104,29.7217057 44.1157031,28.2448381 C42.9587588,27.3728798 42.1692725,26.3520846 41.5050822,25.1779278 C41.2110032,24.6586554 40.8194909,24.180239 40.561823,23.6485802 C39.9564176,22.4006822 40.5667557,21.2983629 41.0237639,20.2105371 C41.7547326,18.4737156 43.0303409,17.1990724 44.9786739,16.5787489 C46.9538077,15.9504815 48.9618541,15.6305795 50.9140679,16.7754907 C51.4102321,17.0668209 51.7159977,17.644677 52.0920432,18.0715549 C52.2527943,19.5344417 52.4377562,20.8781647 52.5352084,22.2244297 C52.6027053,23.1586247 52.6606526,24.1147135 52.5193936,25.0272987 Z" id="Fill-37" fill="#FC1D42"></path>
                </g>
            </g>
        </g>
    </g>
</svg>