<?xml version="1.0" encoding="UTF-8"?>
<svg width="222px" height="130px" viewBox="0 0 222 130" version="1.1" xmlns="http://www.w3.org/2000/svg" xmlns:xlink="http://www.w3.org/1999/xlink">
    <!-- Generator: Sketch 40.1 (33804) - http://www.bohemiancoding.com/sketch -->
    <title>triangle mid</title>
    <desc>Created with Sketch.</desc>
    <defs></defs>
    <g id="Cheese-&amp;-Lean" stroke="none" stroke-width="1" fill="none" fill-rule="evenodd">
        <g id="triangle-mid">
            <g id="tri-middle">
                <path d="M176.636636,109.966694 C176.636636,109.966694 209.213763,0.702147408 209.617761,1.1865333 C210.021672,1.67091919 220.919237,17.6187732 221.573415,18.251312 C222.031331,18.694046 192.39919,128.114206 191.837838,128.145596 C190.789238,128.20415 62.1586853,130.174462 62.0412731,129.438613 C61.9916684,129.127819 50.0077159,113.185042 49.5984556,112.720663 C49.1891091,112.25637 50.7885368,111.986539 51.4711836,112.716955 C52.1538305,113.447371 176.636636,109.966694 176.636636,109.966694 Z" id="Path" fill="#212121"></path>
                <path d="M1,0.812561376 C1.17486732,0.487021634 209.284136,0.571877556 209.405775,0.812561376 C209.405775,0.812561376 179.94786,108.69281 179.591569,109.3858 C179.235192,110.078876 49.5149571,113.917658 48.9613688,112.892747 C48.4077804,111.867836 0.824269991,1.13982583 1,0.812561376 Z" id="Fill-1" fill="#212121"></path>
                <path d="M1,0.812561376 C1.17486732,0.487021634 209.284136,0.571877556 209.405775,0.812561376 L198.080459,45.8543419 C198.080459,45.8543419 179.765292,109.047908 179.591569,109.3858 C179.235192,110.078876 49.5149571,113.917658 48.9613688,112.892747 C48.7062531,112.420427 37.4632303,88.6500804 26.5093321,63.1233089 C13.6938105,33.258243 0.9052534,0.989009297 1,0.812561376 Z" id="Path" fill="#F8F8F8"></path>
                <path d="M62.7638625,128.311857 C63.0123173,128.94957 189.129017,127.123718 189.412755,126.281368 C189.696494,125.439018 177.037183,110.648645 176.636636,109.966694 C176.236089,109.284828 178.243828,108.362262 178.799228,109.161063 C179.354542,109.959865 191.278746,125.040728 191.278746,125.040728 C191.278746,125.040728 220.906529,18.489495 220.825091,18.251312 C220.745551,18.0191655 209.585065,2.41064896 209.295891,2.13685064 C209.006717,1.86305231 209.213763,0.702147408 209.617761,1.1865333 C210.021672,1.67091919 220.919237,17.6187732 221.573415,18.251312 C222.031331,18.694046 192.39919,128.114206 191.837838,128.145596 C190.789238,128.20415 62.1586853,130.174462 62.0412731,129.438613 C61.9916684,129.127819 50.0077159,113.185042 49.5984556,112.720663 C49.1891091,112.25637 50.7885368,111.986539 51.4711836,112.716955 C52.1538305,113.447371 62.6212598,127.945614 62.7638625,128.311857 Z" id="Path" fill="#F8F8F8"></path>
                <path d="M3.37065637,1.99909467 C3.54638638,1.67183022 206.913479,1.75841085 207.035119,1.99909467 C207.035119,1.99909467 178.762532,107.506277 178.406241,108.199267 C178.049863,108.892343 50.7002853,112.731125 50.1466969,111.706214 C49.5931086,110.681302 3.19492636,2.32635913 3.37065637,1.99909467 Z" id="Path" fill="#212121"></path>
                <path d="M190.306158,11.5511309 C189.241598,11.4910246 121.480596,12.5112093 121.475765,11.977669 C121.468518,11.1793852 121.622422,0.569894135 121.198151,0.526000167 C120.77388,0.4821062 104.653786,0.53436503 103.666523,0.569894135 C103.034775,0.592660358 104.186027,11.7841562 104.019182,11.7897615 C103.852338,11.7953668 29.2432586,12.5708844 28.4926318,12.7376642 C28.4493687,12.7472846 26.8336051,13.852394 27.5008513,15.6680232 C30.6375841,24.2033184 40.0286984,48.4407577 40.6631675,48.3858613 C41.3884577,48.3230668 84.6200932,46.7694444 120.451328,46.3904066 C145.932012,46.1208612 167.670265,46.9396045 167.718451,47.0859342 C167.859768,47.5147827 165.903419,62.2638839 163.268403,74.9509035 C161.277155,84.5383251 158.46941,92.9481672 158.320621,93.1107059 C157.7308,93.7551453 133.689513,93.3429387 133.661475,92.8613123 C133.636371,92.4296164 135.821507,73.7136185 135.642844,73.6916283 C135.260392,73.6444773 127.459102,74.6292404 117.341716,74.6297182 C97.8343352,74.6306395 69.7166649,73.6899816 69.5646504,73.6916283 C69.161765,73.6960072 67.1156364,71.7302696 66.191071,69.6423239 C65.1491475,67.2893484 65.2616068,64.7811711 65.6230258,64.7624834 C66.2722003,64.7288515 146.061546,64.16618 146.3722,64.7985463 C146.533696,65.1272768 143.376849,82.7582232 143.63393,83.8996389 C143.72227,84.2917525 152.866881,83.8996389 152.866881,83.8996389 C152.866881,83.8996389 157.862733,55.2867957 157.917341,54.7981843 C157.954092,54.4696263 46.5003961,56.9544374 44.8106446,57.034809 C44.6530334,57.0422829 47.7159371,66.4632996 52.1310802,76.6871687 C57.2423458,88.5230047 63.8256803,101.434818 63.8794652,102.063145 C63.8794652,102.063145 97.8759248,102.061162 97.9905763,102.063145 C98.2381684,102.067543 96.8535393,93.2623528 96.8535393,92.1107059 C96.8535393,90.9590591 75.2498355,92.0124985 75.2498355,92.0124985 C75.2498355,92.0124985 73.8223207,90.99514 73.268435,89.6333699 C72.1595282,86.9070378 71.5441014,82.8002333 71.8387244,82.7131056 C72.0767809,82.6426262 85.0615452,81.5830426 98.05951,81.5704677 C111.175552,81.5577785 124.305036,82.5929558 124.364267,82.7131056 C124.710983,83.4160989 123.942438,91.8913374 123.590892,92.0124985 C123.103213,92.1806581 107.036726,91.9383249 105.785135,92.0251643 C105.246212,92.0625905 107.137007,111.434793 107.692061,111.413924 C108.583221,111.380464 119.087729,111.329758 119.530117,111.241452 C119.792892,111.189021 118.615999,102.032359 119.333412,102.063145 C119.372168,102.064811 130.67357,101.064897 142.547824,101.064527 C155.715144,101.064116 169.586873,102.063145 169.586873,102.063145 C169.586873,102.063145 172.323352,86.4360317 176.014821,70.7073883 C179.925532,54.0445971 184.733721,38.1427834 184.586873,38.1217561 C184.55513,38.1172074 184.047691,36.8604508 182.792819,36.871947 C172.62914,36.965059 125.438726,38.5407218 91.3056737,38.8906839 C70.690634,39.1020474 54.8385167,38.2310823 54.7831689,38.1217561 C54.6004511,37.7608597 49.835475,24.229461 50.200393,24.1991061 C50.4855101,24.1753758 89.3318279,22.7560336 123.054874,22.4758022 C148.890926,22.26111 171.71989,23.1280686 171.897984,23.3171289 C171.982182,23.4063828 169.559921,30.4226106 170.538211,30.4226106 C171.19048,30.4226106 177.59377,31.41837 181.99344,31.4368862 C184.192519,31.4461411 185.891037,30.4610813 186.120662,30.4850781 C186.120662,30.4850781 190.114098,18.6362304 191.068145,13.6851598 C191.319051,12.3830702 190.428904,11.5580622 190.306158,11.5511309 Z" id="Path" fill="#F8F8F8"></path>
                <polygon id="Path-13" fill="#F8F8F8" points="183.017638 93.4662291 159.586873 93.4662291 169.455006 102.069281 180.570214 103.199091"></polygon>
                <polygon id="Path-13-Copy" fill="#F8F8F8" points="53.1127396 74.4662291 33.5868726 74.9252358 36.8977679 81.9743131 58.2027221 82.8501394"></polygon>
            </g>
        </g>
    </g>
</svg>