<?xml version="1.0" encoding="UTF-8"?>
<svg width="309px" height="143px" viewBox="0 0 309 143" version="1.1" xmlns="http://www.w3.org/2000/svg" xmlns:xlink="http://www.w3.org/1999/xlink">
    <!-- Generator: Sketch 40.1 (33804) - http://www.bohemiancoding.com/sketch -->
    <title>triangle top</title>
    <desc>Created with Sketch.</desc>
    <defs></defs>
    <g id="Cheese-&amp;-Lean" stroke="none" stroke-width="1" fill="none" fill-rule="evenodd">
        <g id="triangle-top">
            <g id="tri-top" transform="translate(1.000000, 0.000000)">
                <path d="M293.705289,3.25524831 C294.549732,3.5551813 306.27099,17.060362 306.088029,17.8193398 C305.613074,19.7851626 271.199499,137.467706 270.813688,137.74359 C270.495292,137.971207 58.3608002,137.753328 57.3882971,137.74359 C56.6385909,137.736053 45.1892545,125.760581 45.0447264,125.485036 C44.8012868,125.020484 27.3713067,82.6311313 14.648206,47.6431953 C5.67305542,22.9619481 0.0449013142,1.96379148 0.0449013142,1.96379148 L293.705289,3.25524831 Z" id="Combined-Shape" fill="#212121"></path>
                <path d="M293.705289,3.25524831 C294.549732,3.5551813 303.176059,12.6386796 306.088029,17.8193398 C309,23 271.199499,142.174288 270.813688,142.450172 C270.495292,142.677789 58.3608002,137.753328 57.3882971,137.74359 C56.6385909,137.736053 45.1892545,125.760581 45.0447264,125.485036 C44.8499564,125.113359 33.9339796,97.9047833 23.4608016,69.1214289 C20.8898366,62.0556657 16.3323558,44.895005 13.9035026,38.0131465 C5.13622785,13.1721464 0.0449013142,1.96379148 0.0449013142,1.96379148 L177,0" id="Path" fill="#F8F8F8"></path>
                <g id="Group-41" transform="translate(46.692015, 4.500273)" fill="#212121">
                    <path d="M258.236131,13.5559137 C258.357594,13.1122805 247.534863,0.493434773 247.176743,0.299265847 C247.098965,0.578960554 212.090437,118.474066 211.640745,119.660164 C215.483093,122.711403 220.552023,131.70872 224.121673,135.383449 M11.2070956,131.298579 C11.8492232,131.855682 223.138273,136.192894 222.954373,136.005161 C222.07925,135.11112 212.357423,122.278793 211.167179,121.316585 C210.217072,121.402873 1.60608501,121.541611 0.318017545,121.565576" id="Fill-39"></path>
                </g>
                <path d="M157.98373,46.5035519 C158.337257,46.8252898 199.809143,80.6764024 200.406588,81.3352632 C200.408121,82.1478851 157.586665,103.217034 157.055832,103.474263 C156.939102,107.021026 157.687711,113.140703 157.941184,112.660255 C158.26172,112.052768 160.732447,110.892137 160.497724,111.329938 C159.905867,112.433977 156.84752,118.69095 156.536268,118.539708 C156.273511,118.412129 153.037228,112.459288 152.67045,111.94834 C152.359018,111.514678 156.530589,113.275688 156.536268,113.008743 C156.594678,110.258677 157.035281,103.185483 157.035281,103.185483 C157.181307,102.906211 197.587652,81.8325353 198.710071,81.3352632 C198.924603,81.2401634 156.853469,46.758441 156.536268,46.5035519 C156.442703,46.4283358 194.691196,8.91061571 195.106559,9.16730419" id="Fill-50" stroke="#FC1D42" stroke-width="3" fill="#FC1D42"></path>
                <path d="M205.444867,10.3340619 C205.444867,10.3340619 204.142447,9.57353346 204.277567,10.3340619 C204.465508,11.3927557 225.817876,61.1811937 225.305432,61.7798636 C225.510049,62.8423362 207.0276,77.8829301 206.669746,78.006011 C206.24609,78.1517647 203.331827,108.028147 203.19842,108.398739 C203.568534,108.440666 245.264957,109.87598 247.686648,110.026052 C248.272646,110.062401 246.702233,106.921318 246.991672,107.152005 C248.011241,107.964987 253.614713,111.556106 253.304183,111.789942 C252.301469,112.545252 246.862952,115.557046 246.544669,115.047717 C246.304537,114.663629 247.905237,111.836097 247.112819,111.789942 C245.645617,111.704469 203.439544,110.079495 202.485776,110.00095 C201.974324,109.958754 206.644417,78.5435003 206.669746,78.006011 C206.685791,77.6650193 224.200591,62.3896 225.305432,61.7798636 C225.110911,61.1873118 205.444867,10.3340619 205.444867,10.3340619 Z" id="Fill-54" stroke="#212121" stroke-width="3" fill="#212121"></path>
                <path d="M230.040804,11.5008197 C230.040804,11.5008197 230.93456,10.7340832 231.125475,11.5008197 C231.784576,14.1474192 233.569506,94.1716695 233.460076,96.6741348 C234.188404,96.9045517 253.418361,97.6175603 254.048076,97.7027633 C258.628792,85.7405221 276.65019,18.620357 276.65019,18.620357 C276.65019,18.620357 272.366199,18.2566925 272.413523,17.9794905 C272.462378,17.6936513 278.571771,12.5676192 278.984791,12.6675774 C279.627306,12.8229581 281.118666,19.8554848 281.161572,19.9336699 C280.934331,20.4933822 277.711929,17.8038663 277.392024,18.620357 C276.75068,20.257657 253.956523,95.975042 253.304183,97.7027633 C253.255778,97.8310625 254.066645,98.4450276 254.048076,98.6335177 C254.735752,98.7477814 232.520461,98.3155736 232.189378,98.333118" id="Fill-58" stroke="#212121" stroke-width="3" fill="#212121"></path>
                <path d="M45.5247148,58.1711294 C46.0927747,57.4688124 63.8159764,111.295828 63.8159764,111.295828 C63.8159764,111.295828 69.2140796,108.755843 70.2578062,109.233772 C70.1028562,109.812828 67.1900846,119.821879 66.5361217,120.00929 C66.1255357,120.126882 58.7499517,113.14276 58.0979718,111.922118 C58.2851918,111.712395 63.7313603,111.330556 63.0342205,109.233772 C62.5822605,107.874483 45.8620173,58.9689143 45.5247148,59.3378871 C44.7585281,60.1762409 31.8866827,77.5038804 31.5171103,78.006011 C32.3463046,77.0033694 45.0001924,58.8194635 45.5247148,58.1711294 Z" id="Fill-62" stroke="#212121" stroke-width="3" fill="#212121"></path>
                <path d="M81.7110266,85.0065574 C81.9127591,84.8029521 105.044137,52.8649248 106.224335,51.1705829 C107.147094,49.8455737 100.377117,50.0967844 100.862969,49.7780156 C101.612119,49.2866816 108.575405,45.799659 109.519257,46.0009251 C109.987081,46.1007034 109.68241,53.4192493 109.185019,53.4454309 C108.606774,53.4757513 105.836423,51.5548613 105.053109,52.6498136 C103.434382,54.9124151 80.7710287,86.3801919 80.7052268,86.2781643 C80.3966789,85.8002361 51.5264017,53.7494444 50.4677119,52.6157144 C50.0569457,52.1758441 80.4520246,9.39705586 80.6138252,9.04247846 C79.5901998,8.98822569 9.77472257,8.80826631 9.66141707,8.67663811 C9.48546454,8.47213305 9.32023862,8.17477748 9.32447519,7.91961851 C9.33051454,7.56027263 80.9110156,7.49451178 80.7603923,7.87572072 C80.2866184,7.79861521 52.4352872,50.1078508 51.2357993,51.9195155" id="Fill-42" stroke="#212121" stroke-width="3" fill="#212121"></path>
                <path d="M103.729394,117.802949 C102.097506,117.913344 85.1038588,94.3809348 85.2129278,95.5073771 C85.2818846,96.2188712 84.2157895,99.4375314 83.5974317,99.4659624 C82.8440448,99.5006914 83.0883232,91.0512946 83.8684815,91.0888127 C85.5247069,91.1686174 89.9284779,92.8395667 90.6139897,93.0252678 C91.3623288,93.2279734 86.2040052,94.676311 86.3802281,95.5073771 C85.8375876,96.2079846 101.370986,116.636191 103.44924,117.140641 C105.527495,117.645091 142.784276,118.243584 142.888658,117.675774 C143.521348,114.233107 149.430313,51.4400391 149.414449,50.0038252 C149.409401,49.5527984 112.808545,39.7069707 112.060837,39.5030055 C111.580933,39.3720071 103.442562,7.30374676 103.913542,7.14863602 C104.320161,7.01466856 103.565881,7.15700336 103.729394,7.5306547 C103.848559,7.80317816 111.33368,39.2724987 112.060837,39.5030055 C113.873454,40.077743 149.414449,50.0038252 149.758739,48.7703917 C150.103029,47.5369583 142.973029,117.825982 142.888658,117.802949" id="Fill-46" stroke="#212121" stroke-width="3" fill="#212121"></path>
            </g>
        </g>
    </g>
</svg>