<?xml version="1.0" encoding="UTF-8"?>
<svg width="19px" height="15px" viewBox="0 0 19 15" version="1.1" xmlns="http://www.w3.org/2000/svg" xmlns:xlink="http://www.w3.org/1999/xlink">
    <!-- Generator: sketchtool 41.2 (35397) - http://www.bohemiancoding.com/sketch -->
    <title>Twitter</title>
    <defs></defs>
    <g id="Page-1-twitter" stroke="none" stroke-width="1" fill="none" fill-rule="evenodd">
        <g id="Social_L_Slide4-twitter" transform="translate(-770.000000, -25.000000)" fill="#212121">
            <g id="Group-3-twitter" transform="translate(-630.000000, 10.000000)">
                <g id="Group-twitter">
                    <path d="M1416.65904,19.2245008 C1416.65904,19.060542 1416.65904,18.8973218 1416.64791,18.7348401 C1417.39261,18.1985847 1418.03544,17.5346023 1418.54631,16.7739817 C1417.85185,17.0803348 1417.11515,17.2812411 1416.36081,17.369994 C1417.15515,16.8965682 1417.74965,16.1519516 1418.03369,15.2747189 C1417.28676,15.7159714 1416.4696,16.0269441 1415.61748,16.1942175 C1414.43799,14.9456154 1412.56381,14.6400156 1411.04585,15.448781 C1409.52789,16.2575464 1408.74368,17.9795409 1409.13295,19.6491689 C1406.07347,19.4964727 1403.22296,18.0578257 1401.29082,15.6912628 C1400.28088,17.4221689 1400.79674,19.6365097 1402.46889,20.7481359 C1401.86334,20.7302684 1401.271,20.5676432 1400.74185,20.2739848 L1400.74185,20.3219907 C1400.74235,22.1252368 1402.01914,23.6783712 1403.79458,24.0354357 C1403.23438,24.1875333 1402.64662,24.2097669 1402.07645,24.1004283 C1402.57493,25.643578 1404.00346,26.7007142 1405.6314,26.7311545 C1404.284,27.7853887 1402.61953,28.3576904 1400.9058,28.3559713 C1400.60305,28.3553927 1400.3006,28.3371437 1400,28.3013183 C1401.74012,29.413045 1403.76484,30.0027356 1405.83244,29.9999905 C1412.83108,30.0029447 1416.65904,24.2304137 1416.65904,19.2245008 Z" id="Shape-Copy"></path>
                </g>
            </g>
        </g>
    </g>
</svg>
