<svg width="19" height="15" viewBox="0 0 19 15" xmlns="http://www.w3.org/2000/svg"><path d="M16.659 4.225c0-.164 0-.328-.011-.49a7.723 7.723 0 0 0 1.898-1.961 7.622 7.622 0 0 1-2.185.596A3.804 3.804 0 0 0 18.034.275a7.646 7.646 0 0 1-2.417.92 3.821 3.821 0 0 0-4.571-.746 3.786 3.786 0 0 0-1.913 4.2A10.82 10.82 0 0 1 1.29.691a3.78 3.78 0 0 0 1.178 5.057 3.79 3.79 0 0 1-1.727-.474v.048a3.794 3.794 0 0 0 3.053 3.713 3.815 3.815 0 0 1-1.719.065 3.807 3.807 0 0 0 3.555 2.631A7.657 7.657 0 0 1 0 13.301 10.808 10.808 0 0 0 5.832 15c7 .003 10.827-5.77 10.827-10.775z" fill="#212121" fill-rule="evenodd"/></svg>